<?xml version="1.0" encoding="utf-8"?>
<!-- Generator: Adobe Illustrator 25.4.1, SVG Export Plug-In . SVG Version: 6.00 Build 0)  -->
<svg version="1.1" id="Layer_1" xmlns="http://www.w3.org/2000/svg" xmlns:xlink="http://www.w3.org/1999/xlink" x="0px" y="0px"
	 viewBox="0 0 1640 619.1" style="enable-background:new 0 0 1640 619.1;" xml:space="preserve">
<style type="text/css">
	.st0{opacity:0.2;fill:url(#Path_186_00000025413896422218896480000010877500127020631469_);enable-background:new    ;}
	.st1{fill:#58FFFE;}
	.st2{opacity:0.2;fill:url(#Path_186-2_00000121967984954056349430000004724293697506865338_);enable-background:new    ;}
	.st3{opacity:0.2;fill:url(#Path_186-3_00000088120072821658632160000018118621654010037670_);enable-background:new    ;}
	.st4{opacity:0.2;fill:url(#Path_186-4_00000126284346032495408390000010787827714932954301_);enable-background:new    ;}
	.st5{opacity:0.2;fill:url(#Path_186-5_00000084524989563437880740000008572333095893397377_);enable-background:new    ;}
	.st6{opacity:0.2;fill:url(#Path_189_00000067919765811266891660000009083512000798569348_);enable-background:new    ;}
	.st7{fill:#5AFF8C;}
	.st8{opacity:0.2;fill:url(#Path_189-2_00000000919986680832082320000010346177036443601594_);enable-background:new    ;}
	.st9{opacity:0.2;fill:url(#Path_189-3_00000078029773414391507700000015209171365951588507_);enable-background:new    ;}
	.st10{opacity:0.2;fill:url(#Path_192_00000165925758771074592660000009962280254406291361_);enable-background:new    ;}
	.st11{fill:#EA0CDA;}
	.st12{opacity:0.2;fill:url(#Path_192-2_00000178923204316717771200000015020407362000859798_);enable-background:new    ;}
	.st13{opacity:0.2;fill:url(#Path_192-3_00000107568372164061788120000002150129827059348391_);enable-background:new    ;}
	.st14{opacity:0.2;fill:url(#Path_192-4_00000022528437679634139440000001938469736889073590_);enable-background:new    ;}
	.st15{opacity:0.2;fill:url(#Path_464_00000134932809975347510190000005511430089625897109_);enable-background:new    ;}
	.st16{opacity:0.2;fill:url(#Path_467_00000105385677273415737180000011409360522166346413_);enable-background:new    ;}
	.st17{opacity:0.2;fill:url(#Path_470_00000000935080418708921700000017881559577274768005_);enable-background:new    ;}
</style>
<g id="Group_305" transform="translate(-114 -200.795)">
	<g id="Group_158" transform="translate(13.343 -81.226)">
		<g id="Group_64" transform="translate(824.907 839.502)">
			
				<radialGradient id="Path_186_00000064315760300832899340000006150779905614111148_" cx="-54.461" cy="-196.903" r="0.5" gradientTransform="matrix(43.6 0 0 -43.6 2396.2893 -8563.167)" gradientUnits="userSpaceOnUse">
				<stop  offset="0" style="stop-color:#000000"/>
				<stop  offset="1" style="stop-color:#00A9FF"/>
			</radialGradient>
			
				<path id="Path_186" style="opacity:0.2;fill:url(#Path_186_00000064315760300832899340000006150779905614111148_);enable-background:new    ;" d="
				M43.6,21.8c0,12-9.8,21.8-21.8,21.8C9.8,43.6,0,33.8,0,21.8C0,9.8,9.8,0,21.8,0S43.6,9.8,43.6,21.8
				C43.6,21.8,43.6,21.8,43.6,21.8z"/>
			<path id="Path_187" class="st1" d="M37.8,10.7c2,3.9,1.8,8-0.6,9.2s-5.9-0.9-7.9-4.8s-1.8-8,0.6-9.2S35.8,6.8,37.8,10.7z"/>
			<path id="Path_188" class="st1" d="M9.8,31.2c0.8,1.6,0.7,3.3-0.2,3.8s-2.4-0.4-3.2-2s-0.7-3.3,0.2-3.8S9,29.7,9.8,31.2z"/>
		</g>
		<g id="Group_57" transform="translate(1657.667 331.161)">
			
				<radialGradient id="Path_186-2_00000103225601696734296990000017079918768015790736_" cx="-883.9645" cy="310.1782" r="0.5" gradientTransform="matrix(55 0 0 -55 48645.5508 17087.2988)" gradientUnits="userSpaceOnUse">
				<stop  offset="0" style="stop-color:#000000"/>
				<stop  offset="1" style="stop-color:#00A9FF"/>
			</radialGradient>
			
				<path id="Path_186-2" style="opacity:0.2;fill:url(#Path_186-2_00000103225601696734296990000017079918768015790736_);enable-background:new    ;" d="
				M55,27.5C55,42.7,42.7,55,27.5,55S0,42.7,0,27.5S12.3,0,27.5,0S55,12.3,55,27.5L55,27.5z"/>
			<path id="Path_187-2" class="st1" d="M47.7,13.5c2.6,4.9,2.2,10.1-0.7,11.6s-7.4-1.2-10-6S34.8,9,37.7,7.4S45.2,8.6,47.7,13.5z"
				/>
			<path id="Path_188-2" class="st1" d="M12.3,39.4c1,2,0.9,4.1-0.3,4.7S9,43.7,8,41.7S7.1,37.6,8.3,37S11.3,37.4,12.3,39.4z"/>
		</g>
		<g id="Group_52" transform="translate(100.657 425.655)">
			
				<radialGradient id="Path_186-3_00000109017607653453118580000014563409483515505584_" cx="673.6812" cy="215.4383" r="0.5" gradientTransform="matrix(57.9581 0 0 -57.958 -39016.3164 12515.3525)" gradientUnits="userSpaceOnUse">
				<stop  offset="0" style="stop-color:#000000"/>
				<stop  offset="1" style="stop-color:#00A9FF"/>
			</radialGradient>
			
				<path id="Path_186-3" style="opacity:0.2;fill:url(#Path_186-3_00000109017607653453118580000014563409483515505584_);enable-background:new    ;" d="
				M58,29c0,16-13,29-29,29S0,45,0,29C0,13,13,0,29,0C45,0,58,13,58,29C58,29,58,29,58,29z"/>
			<path id="Path_187-3" class="st1" d="M50.3,14.2c2.7,5.1,2.3,10.6-0.8,12.3s-7.8-1.2-10.5-6.4S36.7,9.5,39.8,7.8
				S47.6,9,50.3,14.2z"/>
			<path id="Path_188-3" class="st1" d="M13,41.5c1.1,2.1,1,4.3-0.3,5S9.5,46,8.4,43.9s-1-4.3,0.3-5S11.9,39.4,13,41.5z"/>
		</g>
		<g id="Group_54" transform="translate(238.657 839.502)">
			
				<radialGradient id="Path_186-4_00000045597160609452415050000011442324563928465086_" cx="532.7651" cy="-197.2806" r="0.5" gradientTransform="matrix(46.4882 0 0 -46.488 -24744.0215 -9147.9326)" gradientUnits="userSpaceOnUse">
				<stop  offset="0" style="stop-color:#000000"/>
				<stop  offset="1" style="stop-color:#00A9FF"/>
			</radialGradient>
			
				<path id="Path_186-4" style="opacity:0.2;fill:url(#Path_186-4_00000045597160609452415050000011442324563928465086_);enable-background:new    ;" d="
				M46.5,23.2c0,12.8-10.4,23.2-23.2,23.2S0,36.1,0,23.2C0,10.4,10.4,0,23.2,0C36.1,0,46.5,10.4,46.5,23.2
				C46.5,23.2,46.5,23.2,46.5,23.2z"/>
			<path id="Path_187-4" class="st1" d="M40.3,11.4c2.2,4.1,1.9,8.5-0.6,9.8s-6.3-1-8.4-5.1s-1.9-8.5,0.6-9.8S38.2,7.2,40.3,11.4z"
				/>
			<path id="Path_188-4" class="st1" d="M10.4,33.3c0.9,1.7,0.8,3.5-0.3,4s-2.6-0.4-3.4-2.1S6,31.8,7,31.2S9.6,31.6,10.4,33.3z"/>
		</g>
		<g id="Group_53" transform="translate(883.037 546.959)">
			
				<radialGradient id="Path_186-5_00000100341341376177720220000013385719486019345842_" cx="-108.1095" cy="93.9063" r="0.5" gradientTransform="matrix(61 0 0 -61 6625.1792 5758.7827)" gradientUnits="userSpaceOnUse">
				<stop  offset="0" style="stop-color:#000000"/>
				<stop  offset="1" style="stop-color:#00A9FF"/>
			</radialGradient>
			
				<path id="Path_186-5" style="opacity:0.2;fill:url(#Path_186-5_00000100341341376177720220000013385719486019345842_);enable-background:new    ;" d="
				M61,30.5C61,47.3,47.3,61,30.5,61S0,47.3,0,30.5S13.7,0,30.5,0l0,0C47.3,0,61,13.7,61,30.5z"/>
			<path id="Path_187-5" class="st1" d="M52.9,14.9c2.8,5.4,2.5,11.2-0.8,12.9s-8.2-1.3-11.1-6.7S38.6,9.9,41.9,8.2
				S50.1,9.5,52.9,14.9z"/>
			<path id="Path_188-5" class="st1" d="M13.7,43.7c1.2,2.2,1,4.6-0.3,5.3s-3.4-0.5-4.5-2.7s-1-4.6,0.3-5.3S12.5,41.5,13.7,43.7z"/>
		</g>
		<g id="Group_48" transform="translate(541.861 313.919)">
			
				<radialGradient id="Path_189_00000182500919801873529500000000113770215988056969_" cx="230.0726" cy="328.1045" r="0.5" gradientTransform="matrix(48.1602 0 0 -48.16 -11056.252 15825.583)" gradientUnits="userSpaceOnUse">
				<stop  offset="0" style="stop-color:#000000"/>
				<stop  offset="1" style="stop-color:#2AFF50"/>
			</radialGradient>
			
				<path id="Path_189" style="opacity:0.2;fill:url(#Path_189_00000182500919801873529500000000113770215988056969_);enable-background:new    ;" d="
				M48.2,24.1c0,13.3-10.8,24.1-24.1,24.1C10.8,48.2,0,37.4,0,24.1C0,10.8,10.8,0,24.1,0C37.4,0,48.2,10.8,48.2,24.1L48.2,24.1z"/>
			<path id="Path_190" class="st7" d="M41.8,11.8c2.2,4.3,2,8.8-0.6,10.2s-6.5-1-8.7-5.3s-2-8.8,0.6-10.2S39.6,7.5,41.8,11.8z"/>
			<path id="Path_191" class="st7" d="M10.8,34.5c0.9,1.7,0.8,3.6-0.3,4.2S7.9,38.3,7,36.5s-0.8-3.6,0.3-4.2S9.9,32.8,10.8,34.5z"/>
		</g>
		<g id="Group_58" transform="translate(1425.722 583.387)">
			
				<radialGradient id="Path_189-2_00000031181270330499741900000012307472995420500389_" cx="-653.7884" cy="58.6365" r="0.5" gradientTransform="matrix(48.1602 0 0 -48.16 31510.6328 2848.0107)" gradientUnits="userSpaceOnUse">
				<stop  offset="0" style="stop-color:#000000"/>
				<stop  offset="1" style="stop-color:#2AFF50"/>
			</radialGradient>
			
				<path id="Path_189-2" style="opacity:0.2;fill:url(#Path_189-2_00000031181270330499741900000012307472995420500389_);enable-background:new    ;" d="
				M48.2,24.1c0,13.3-10.8,24.1-24.1,24.1C10.8,48.2,0,37.4,0,24.1C0,10.8,10.8,0,24.1,0C37.4,0,48.2,10.8,48.2,24.1L48.2,24.1z"/>
			<path id="Path_190-2" class="st7" d="M41.8,11.8c2.2,4.3,2,8.8-0.6,10.2s-6.5-1-8.7-5.3s-2-8.8,0.6-10.2S39.6,7.5,41.8,11.8z"/>
			<path id="Path_191-2" class="st7" d="M10.8,34.5c0.9,1.7,0.8,3.6-0.3,4.2S7.9,38.3,7,36.5s-0.8-3.6,0.3-4.2S9.9,32.8,10.8,34.5z"
				/>
		</g>
		<g id="Group_50" transform="translate(118.834 821.516)">
			
				<radialGradient id="Path_189-3_00000099644490072483604000000016266985091380435885_" cx="658.7134" cy="-181.6643" r="0.5" gradientTransform="matrix(79.562 0 0 -79.562 -52368.7812 -14413.792)" gradientUnits="userSpaceOnUse">
				<stop  offset="0" style="stop-color:#000000"/>
				<stop  offset="1" style="stop-color:#2AFF50"/>
			</radialGradient>
			
				<path id="Path_189-3" style="opacity:0.2;fill:url(#Path_189-3_00000099644490072483604000000016266985091380435885_);enable-background:new    ;" d="
				M79.6,39.8c0,22-17.8,39.8-39.8,39.8S0,61.8,0,39.8C0,17.8,17.8,0,39.8,0C61.8,0,79.6,17.8,79.6,39.8z"/>
			<path id="Path_190-3" class="st7" d="M69,19.5c3.7,7.1,3.2,14.6-1.1,16.8s-10.8-1.7-14.4-8.7S50.3,13,54.6,10.7
				S65.3,12.4,69,19.5z"/>
			<path id="Path_191-3" class="st7" d="M17.9,57c1.5,2.9,1.3,6-0.4,6.9s-4.4-0.7-5.9-3.6s-1.3-6,0.4-6.9S16.3,54.1,17.9,57z"/>
		</g>
		<g id="Group_65" transform="translate(557.769 768.338)">
			
				<radialGradient id="Path_192_00000163783216244942515660000008168725891229103757_" cx="212.2324" cy="-125.567" r="0.5" gradientTransform="matrix(42.4 0 0 -42.4 -8977.4551 -5302.8438)" gradientUnits="userSpaceOnUse">
				<stop  offset="0" style="stop-color:#000000"/>
				<stop  offset="1" style="stop-color:#FF2AFA"/>
			</radialGradient>
			
				<path id="Path_192" style="opacity:0.2;fill:url(#Path_192_00000163783216244942515660000008168725891229103757_);enable-background:new    ;" d="
				M42.4,21.2c0,11.7-9.5,21.2-21.2,21.2C9.5,42.4,0,32.9,0,21.2S9.5,0,21.2,0l0,0C32.9,0,42.4,9.5,42.4,21.2z"/>
			<path id="Path_193" class="st11" d="M36.8,10.4c2,3.8,1.7,7.8-0.6,9s-5.7-0.9-7.7-4.7s-1.7-7.8,0.6-9S34.8,6.6,36.8,10.4z"/>
			<path id="Path_194" class="st11" d="M9.5,30.4c0.8,1.5,0.7,3.2-0.2,3.7S7,33.7,6.1,32.1S5.4,29,6.4,28.5S8.7,28.9,9.5,30.4z"/>
		</g>
		<g id="Group_59" transform="translate(1684.678 647.745)">
			
				<radialGradient id="Path_192-2_00000033342092533299349980000014093120646206852282_" cx="-910.7575" cy="-6.4902" r="0.5" gradientTransform="matrix(55.98 0 0 -55.98 51012.1797 -335.3292)" gradientUnits="userSpaceOnUse">
				<stop  offset="0" style="stop-color:#000000"/>
				<stop  offset="1" style="stop-color:#FF2AFA"/>
			</radialGradient>
			
				<path id="Path_192-2" style="opacity:0.2;fill:url(#Path_192-2_00000033342092533299349980000014093120646206852282_);enable-background:new    ;" d="
				M56,28c0,15.5-12.5,28-28,28S0,43.4,0,28C0,12.5,12.5,0,28,0l0,0C43.5,0,56,12.5,56,28z"/>
			<path id="Path_193-2" class="st11" d="M48.6,13.7c2.6,5,2.3,10.3-0.7,11.9s-7.6-1.2-10.2-6.1S35.4,9.1,38.4,7.6S46,8.7,48.6,13.7
				z"/>
			<path id="Path_194-2" class="st11" d="M12.6,40.1c1.1,2,0.9,4.2-0.3,4.8s-3.1-0.5-4.1-2.5s-0.9-4.2,0.3-4.8S11.5,38.1,12.6,40.1z
				"/>
		</g>
		<g id="Group_51" transform="translate(284.132 320.398)">
			
				<radialGradient id="Path_192-3_00000182508534926866443780000004115889912837291423_" cx="493.0738" cy="319.5859" r="0.5" gradientTransform="matrix(76.526 0 0 -76.526 -37694.7031 24494.8906)" gradientUnits="userSpaceOnUse">
				<stop  offset="0" style="stop-color:#000000"/>
				<stop  offset="1" style="stop-color:#FF2AFA"/>
			</radialGradient>
			
				<path id="Path_192-3" style="opacity:0.2;fill:url(#Path_192-3_00000182508534926866443780000004115889912837291423_);enable-background:new    ;" d="
				M76.5,38.3c0,21.1-17.1,38.3-38.3,38.3C17.1,76.5,0,59.4,0,38.3S17.1,0,38.3,0c0,0,0,0,0,0C59.4,0,76.5,17.1,76.5,38.3z"/>
			<path id="Path_193-3" class="st11" d="M66.4,18.7c3.6,6.8,3.1,14.1-1,16.2s-10.3-1.6-13.9-8.4s-3.1-14.1,1-16.2
				S62.9,11.9,66.4,18.7z"/>
			<path id="Path_194-3" class="st11" d="M17.2,54.8c1.4,2.8,1.3,5.7-0.4,6.6s-4.2-0.7-5.7-3.4s-1.3-5.7,0.4-6.6
				S15.7,52.1,17.2,54.8z"/>
		</g>
		<g id="Group_60" transform="translate(1161.798 282.021)">
			
				<radialGradient id="Path_192-4_00000072976625635548515120000006216378888311433135_" cx="-387.8775" cy="359.2338" r="0.5" gradientTransform="matrix(55.98 0 0 -55.98 21741.3672 20137.8926)" gradientUnits="userSpaceOnUse">
				<stop  offset="0" style="stop-color:#000000"/>
				<stop  offset="1" style="stop-color:#FF2AFA"/>
			</radialGradient>
			
				<path id="Path_192-4" style="opacity:0.2;fill:url(#Path_192-4_00000072976625635548515120000006216378888311433135_);enable-background:new    ;" d="
				M56,28c0,15.5-12.5,28-28,28S0,43.4,0,28C0,12.5,12.5,0,28,0l0,0C43.5,0,56,12.5,56,28z"/>
			<path id="Path_193-4" class="st11" d="M48.6,13.7c2.6,5,2.3,10.3-0.7,11.9s-7.6-1.2-10.2-6.1S35.4,9.1,38.4,7.6S46,8.7,48.6,13.7
				z"/>
			<path id="Path_194-4" class="st11" d="M12.6,40.1c1.1,2,0.9,4.2-0.3,4.8s-3.1-0.5-4.1-2.5s-0.9-4.2,0.3-4.8S11.5,38.1,12.6,40.1z
				"/>
		</g>
	</g>
	<g id="Group_302" transform="translate(1171.7 446.118)">
		
			<radialGradient id="Path_464_00000121995705665457972930000001298517494289718656_" cx="-389.1043" cy="115.7167" r="0.5" gradientTransform="matrix(40.522 0 0 -40.522 15787.5586 4709.3276)" gradientUnits="userSpaceOnUse">
			<stop  offset="0" style="stop-color:#000000"/>
			<stop  offset="1" style="stop-color:#00A9FF"/>
		</radialGradient>
		
			<path id="Path_464" style="opacity:0.2;fill:url(#Path_464_00000121995705665457972930000001298517494289718656_);enable-background:new    ;" d="
			M40.5,20.3c0,11.2-9.1,20.3-20.3,20.3C9.1,40.5,0,31.4,0,20.3C0,9.1,9.1,0,20.3,0C31.4,0,40.5,9.1,40.5,20.3L40.5,20.3z"/>
		<path id="Path_465" class="st1" d="M35.2,9.9c1.9,3.6,1.6,7.4-0.5,8.6s-5.5-0.8-7.4-4.4s-1.6-7.4,0.5-8.6S33.3,6.3,35.2,9.9z"/>
		<path id="Path_466" class="st1" d="M9.1,29c0.8,1.5,0.7,3-0.2,3.5s-2.2-0.3-3-1.8s-0.7-3,0.2-3.5S8.3,27.6,9.1,29z"/>
	</g>
	<g id="Group_303" transform="translate(1225.867 410.494)">
		
			<radialGradient id="Path_467_00000034806126504649264260000011368516942503152012_" cx="-450.37" cy="154.0869" r="0.5" gradientTransform="matrix(28.5381 0 0 -28.538 12866.9658 4411.6079)" gradientUnits="userSpaceOnUse">
			<stop  offset="0" style="stop-color:#000000"/>
			<stop  offset="1" style="stop-color:#00A9FF"/>
		</radialGradient>
		
			<path id="Path_467" style="opacity:0.2;fill:url(#Path_467_00000034806126504649264260000011368516942503152012_);enable-background:new    ;" d="
			M28.5,14.3c0,7.9-6.4,14.3-14.3,14.3C6.4,28.5,0,22.2,0,14.3C0,6.4,6.4,0,14.3,0c0,0,0,0,0,0C22.1,0,28.5,6.4,28.5,14.3z"/>
		<path id="Path_468" class="st1" d="M24.8,7c1.3,2.5,1.2,5.2-0.4,6s-3.9-0.6-5.2-3.1s-1.2-5.2,0.4-6S23.4,4.5,24.8,7z"/>
		<path id="Path_469" class="st1" d="M6.4,20.5c0.5,1,0.5,2.1-0.2,2.5s-1.6-0.2-2.1-1.3s-0.5-2.1,0.2-2.5S5.9,19.4,6.4,20.5z"/>
	</g>
	<g id="Group_304" transform="translate(1160.997 388.11)">
		
			<radialGradient id="Path_470_00000127013193447540398380000000263249301109348518_" cx="-388.9937" cy="177.8225" r="0.5" gradientTransform="matrix(24.912 0 0 -24.912 9703.085 4442.3711)" gradientUnits="userSpaceOnUse">
			<stop  offset="0" style="stop-color:#000000"/>
			<stop  offset="1" style="stop-color:#00A9FF"/>
		</radialGradient>
		
			<path id="Path_470" style="opacity:0.2;fill:url(#Path_470_00000127013193447540398380000000263249301109348518_);enable-background:new    ;" d="
			M24.9,12.5c0,6.9-5.6,12.5-12.5,12.5S0,19.3,0,12.5C0,5.6,5.6,0,12.5,0C19.3,0,24.9,5.6,24.9,12.5C24.9,12.5,24.9,12.5,24.9,12.5z
			"/>
		<path id="Path_471" class="st1" d="M21.6,6.1c1.2,2.2,1,4.6-0.3,5.3s-3.4-0.5-4.5-2.7s-1-4.6,0.3-5.3S20.5,3.9,21.6,6.1z"/>
		<path id="Path_472" class="st1" d="M5.6,17.9C6.1,18.8,6,19.7,5.5,20s-1.4-0.2-1.8-1.1S3.2,17,3.7,16.7S5.1,17,5.6,17.9z"/>
	</g>
</g>
</svg>
