<?xml version="1.0" encoding="utf-8"?>
<!-- Generator: Adobe Illustrator 25.4.1, SVG Export Plug-In . SVG Version: 6.00 Build 0)  -->
<svg version="1.1" id="Group_153" xmlns="http://www.w3.org/2000/svg" xmlns:xlink="http://www.w3.org/1999/xlink" x="0px" y="0px"
	 viewBox="0 0 79.5 125.1" style="enable-background:new 0 0 79.5 125.1;" xml:space="preserve">
<style type="text/css">
	.st0{opacity:0.19;fill:#FFFFFF;enable-background:new    ;}
	.st1{fill:url(#Path_455_00000177449695700082499420000017639112886928224647_);}
	.st2{fill:url(#Path_456_00000170261591534981183400000012109225324499575703_);}
	.st3{opacity:0.23;fill:#F9F9F9;enable-background:new    ;}
	.st4{opacity:0.15;fill:#2D2D2D;enable-background:new    ;}
	.st5{opacity:0.19;fill:#2D2D2D;enable-background:new    ;}
	.st6{opacity:0.44;fill:#CCCCCC;enable-background:new    ;}
	.st7{opacity:0.69;fill:url(#Path_473_00000106865716847866191000000005449360361357134781_);enable-background:new    ;}
	.st8{fill:#58FFFE;}
	.st9{opacity:0.69;fill:url(#Path_476_00000074443789868194460990000000574483339157022398_);enable-background:new    ;}
	.st10{opacity:0.69;fill:url(#Path_479_00000163037513678176716460000012203349802196662940_);enable-background:new    ;}
	.st11{opacity:0.69;fill:url(#Path_482_00000105387876970126028210000012545027528943860609_);enable-background:new    ;}
	.st12{opacity:0.69;fill:url(#Path_486_00000026164568680930778120000000401128875760287396_);enable-background:new    ;}
	.st13{opacity:0.38;fill:#CAFFFE;enable-background:new    ;}
	.st14{opacity:0.44;fill:#383838;enable-background:new    ;}
	.st15{opacity:0.69;fill:url(#Path_489_00000036219865700093348790000011865940389798800768_);enable-background:new    ;}
	.st16{opacity:0.69;fill:url(#Path_492_00000111895253281396742810000006719824844233041044_);enable-background:new    ;}
	.st17{opacity:0.69;fill:url(#Path_495_00000176737104290697739850000004665770748384602296_);enable-background:new    ;}
	.st18{opacity:0.69;fill:url(#Path_498_00000031892164837531037930000002749624270909461913_);enable-background:new    ;}
</style>
<g id="Group_113" transform="translate(0)">
	<path id="Path_453" class="st0" d="M29.7,11.2c0,0-0.4,21.7-0.7,24.5c-0.7,5.5-3.5,10.5-7.8,14.1c-5.7,4.5-12.2,6.7-18,19.8
		s-2.7,28.1,2.1,35.6s15.2,19,33.9,19.8s33.9-13.9,38-26.2s2-19.4,0.3-25.8s-7.3-14.5-11.3-17.5s-12-8.1-13.4-16.2s-0.3-28-0.3-28
		s-4.3,2.3-12.2,2.2S29.7,11.2,29.7,11.2z"/>
	<path id="Path_454" class="st0" d="M26.3,3.5c0,0,0.6,3.7,14.5,4c12.7,0.2,15.5-3.6,15.5-3.7s-0.3,4-0.3,4s-0.4,2.3-3.6,3.6
		c-4.3,1.8-8.8,2.3-13.7,2c-6.5-0.2-9.1-2.2-9.1-2.2c-1.1-0.6-2-1.3-2.8-2.3C26.3,8.1,26,7.1,26,6.2C26.1,5.3,26.2,4.4,26.3,3.5z"/>
	
		<linearGradient id="Path_455_00000179645801450884739970000004862748067133725375_" gradientUnits="userSpaceOnUse" x1="-928.5153" y1="36.5671" x2="-929.3043" y2="36.4491" gradientTransform="matrix(74.793 0 0 17.7875 69515.0625 -562.9965)">
		<stop  offset="0" style="stop-color:#3A90E7"/>
		<stop  offset="1" style="stop-color:#00CAFF"/>
	</linearGradient>
	<path id="Path_455" style="fill:url(#Path_455_00000179645801450884739970000004862748067133725375_);" d="M2,85
		c0,0,5.5,9.1,28,9.7S68.7,86,71.5,84c1.9-1.5,3.9-3.1,5.4-4.9c0,0-17.4,6.6-31,3.7S21,75.6,12.6,77.6S2.7,83.7,2,85z"/>
	
		<linearGradient id="Path_456_00000103255754691501184360000012296567931772239232_" gradientUnits="userSpaceOnUse" x1="-929.2881" y1="15.1801" x2="-928.6504" y2="14.9118" gradientTransform="matrix(75.489 0 0 43.8591 70170.625 -560.9512)">
		<stop  offset="0" style="stop-color:#3A90E7"/>
		<stop  offset="1" style="stop-color:#00CAFF"/>
	</linearGradient>
	<path id="Path_456" style="fill:url(#Path_456_00000103255754691501184360000012296567931772239232_);" d="M2.3,90.2
		c0,0,1.4,11.8,9.3,20s18.8,15.2,35.9,11.9s25.1-17,27.7-24.3s2.4-12.1,2.2-14.7c-0.1-1.4-0.2-2.7-0.5-4c0,0-7.8,9.1-25.2,13
		s-28,2.7-35.1,0.8c-6.5-1.7-9.2-3-11.5-5C4,86.9,3,86.1,2,85C1.9,86.7,2,88.5,2.3,90.2z"/>
	<path id="Path_457" class="st3" d="M20.1,54.8c0,0-8.5,6.5-5.9,12.5s12.6,2.4,18.1-3.8s1.8-13.7-2.6-12.7S21.7,53.4,20.1,54.8z"/>
	<path id="Path_458" class="st4" d="M63,72.2c0,0,2.2,16.3-3.9,25.9s-9.6,12.5-6.1,14.8s14.9-0.7,18.9-10.8s5-20.8,3.2-27.4
		s-6.5-8.3-9.2-7.1C63.9,68.2,62.7,70.2,63,72.2z"/>
	<path id="Path_459" class="st5" d="M45.7,33.9c0,0-0.5,10.6,3,16.1s7.8,7.2,9.1,6.9s2.3-1.7-0.3-3.7c-3.5-2.8-6-6.6-7.3-10.8
		c-1.4-4.9,0-10.9-1.1-12.2S45.9,29,45.7,31C45.6,32,45.6,32.9,45.7,33.9z"/>
	<path id="Path_460" class="st3" d="M32.2,18.9c0,0-0.5,13.9-0.6,16.6s-1.1,6.2,1.2,6s3.2-1.8,2.8-6s-0.8-15.8-0.8-17.2
		s-0.1-2.1-1.3-2S32.2,18.9,32.2,18.9z"/>
	<path id="Path_461" class="st3" d="M34.9,8.5c0,0,0.2,3.1-1.1,3.1S32,9.1,32.4,7.8s1.3-0.7,1.9-0.5S34.9,8.5,34.9,8.5z"/>
	<path id="Path_462" class="st5" d="M47.4,7.7c-0.9,0.1-1.5,0.8-1.4,1.7v0.1c0.2,1.7-0.1,2.6,1.8,2.4s2.8-0.1,2.8-2.1
		s-1-2.3-1.8-2.3S47.4,7.7,47.4,7.7z"/>
	<path id="Path_463" class="st6" d="M55.5,2.6C54.2,1.7,51.6,0,43.5,0S32.4,0.5,30.6,0.9c-1.2,0.3-2.3,0.8-3.4,1.4
		c-1.2,0.8-1.1,1.2-0.7,1.9s3.2,3.1,13.6,3.3s13.2-1.9,14.5-2.3S56.8,3.4,55.5,2.6z M48.2,4.5c-0.7,0.3-2.2,1.4-7.8,1.3
		s-7-1.4-7.3-1.8s-0.3-0.6,0.4-1c0.6-0.3,1.2-0.6,1.8-0.7c1-0.2,2.6-0.5,6.9-0.5s5.7,0.9,6.4,1.4S48.9,4.2,48.2,4.5L48.2,4.5z"/>
</g>
<radialGradient id="Path_473_00000083080580611158422080000002843368597061799325_" cx="-823.5153" cy="80.6603" r="0.5" gradientTransform="matrix(7.9841 0 0 7.984 6609.1938 -573.9703)" gradientUnits="userSpaceOnUse">
	<stop  offset="0" style="stop-color:#005B89;stop-opacity:0.7"/>
	<stop  offset="1" style="stop-color:#00A9FF;stop-opacity:0.2"/>
</radialGradient>
<path id="Path_473" style="opacity:0.69;fill:url(#Path_473_00000083080580611158422080000002843368597061799325_);enable-background:new    ;" d="
	M38.2,70c0,2.2-1.8,4-4,4s-4-1.8-4-4s1.8-4,4-4l0,0C36.4,66,38.2,67.8,38.2,70L38.2,70z"/>
<path id="Path_474" class="st8" d="M37.1,68c0.4,0.7,0.3,1.5-0.1,1.7s-1.1-0.2-1.5-0.9s-0.3-1.5,0.1-1.7S36.7,67.3,37.1,68z"/>
<path id="Path_475" class="st8" d="M32,71.7c0.2,0.3,0.1,0.6,0,0.7s-0.4-0.1-0.6-0.4s-0.1-0.6,0-0.7S31.8,71.5,32,71.7z"/>
<radialGradient id="Path_476_00000033358193245965709360000002990582244024753808_" cx="-813.5818" cy="87.4102" r="0.4995" gradientTransform="matrix(7.3641 0 0 7.364 6040.2144 -581.7888)" gradientUnits="userSpaceOnUse">
	<stop  offset="0" style="stop-color:#005B89;stop-opacity:0.7"/>
	<stop  offset="1" style="stop-color:#00A9FF;stop-opacity:0.2"/>
</radialGradient>
<path id="Path_476" style="opacity:0.69;fill:url(#Path_476_00000033358193245965709360000002990582244024753808_);enable-background:new    ;" d="
	M52.6,61.9c0,2-1.6,3.7-3.7,3.7s-3.7-1.6-3.7-3.7c0-2,1.6-3.7,3.7-3.7C51,58.2,52.6,59.9,52.6,61.9L52.6,61.9z"/>
<path id="Path_477" class="st8" d="M51.6,60c0.3,0.7,0.3,1.4-0.1,1.6s-1-0.2-1.3-0.8s-0.3-1.4,0.1-1.6S51.3,59.4,51.6,60z"/>
<path id="Path_478" class="st8" d="M46.9,63.5c0.1,0.3,0.1,0.6,0,0.6s-0.4-0.1-0.5-0.3s-0.1-0.5,0-0.6S46.8,63.2,46.9,63.5z"/>
<radialGradient id="Path_479_00000180345593209996276730000000121286101461818002_" cx="-800.9873" cy="95.9662" r="0.4992" gradientTransform="matrix(6.704 0 0 6.704 5406.127 -599.1572)" gradientUnits="userSpaceOnUse">
	<stop  offset="0" style="stop-color:#005B89;stop-opacity:0.7"/>
	<stop  offset="1" style="stop-color:#00A9FF;stop-opacity:0.2"/>
</radialGradient>
<path id="Path_479" style="opacity:0.69;fill:url(#Path_479_00000180345593209996276730000000121286101461818002_);enable-background:new    ;" d="
	M39.6,44.2c0,1.9-1.5,3.4-3.4,3.4s-3.4-1.5-3.4-3.4s1.5-3.4,3.4-3.4C38.1,40.9,39.6,42.4,39.6,44.2L39.6,44.2z"/>
<path id="Path_480" class="st8" d="M38.8,42.5c0.3,0.6,0.3,1.2-0.1,1.4s-0.9-0.1-1.2-0.7s-0.3-1.2,0.1-1.4S38.4,41.9,38.8,42.5z"/>
<path id="Path_481" class="st8" d="M34.4,45.7c0.1,0.2,0.1,0.5,0,0.6S34,46.2,33.9,46s-0.1-0.5,0-0.6S34.3,45.4,34.4,45.7z"/>
<radialGradient id="Path_482_00000131330273158773755640000012321617411689462162_" cx="-785.2294" cy="106.6714" r="0.4999" gradientTransform="matrix(6.028 0 0 6.028 4776.4292 -613.7151)" gradientUnits="userSpaceOnUse">
	<stop  offset="0" style="stop-color:#005B89;stop-opacity:0.7"/>
	<stop  offset="1" style="stop-color:#00A9FF;stop-opacity:0.2"/>
</radialGradient>
<path id="Path_482" style="opacity:0.69;fill:url(#Path_482_00000131330273158773755640000012321617411689462162_);enable-background:new    ;" d="
	M46.1,29.3c0,1.7-1.3,3-3,3s-3-1.3-3-3s1.3-3,3-3l0,0C44.7,26.3,46.1,27.6,46.1,29.3z"/>
<path id="Path_483" class="st8" d="M45.3,27.8c0.3,0.5,0.2,1.1-0.1,1.3s-0.8-0.1-1.1-0.7s-0.2-1.1,0.1-1.3S45,27.2,45.3,27.8z"/>
<path id="Path_484" class="st8" d="M41.4,30.6c0.1,0.2,0.1,0.5,0,0.5S41.1,31,41,30.8s-0.1-0.5,0-0.5S41.3,30.4,41.4,30.6z"/>
<g>
	
		<radialGradient id="Path_486_00000080166959725782991110000014411273065131276456_" cx="-739.0915" cy="138.299" r="0.6475" gradientTransform="matrix(4.642 0 0 4.6466 3467.313 -557.1129)" gradientUnits="userSpaceOnUse">
		<stop  offset="0" style="stop-color:#005B89;stop-opacity:0.7"/>
		<stop  offset="1" style="stop-color:#00A9FF;stop-opacity:0.2"/>
	</radialGradient>
	
		<path id="Path_486" style="opacity:0.69;fill:url(#Path_486_00000080166959725782991110000014411273065131276456_);enable-background:new    ;" d="
		M35.8,87.7c1.4,0.2,2.7,0.2,4.1-0.2c0.4-1.9-0.8-3.8-2.7-4.3c-1.9-0.4-3.8,0.8-4.3,2.7c-0.1,0.3-0.1,0.5-0.1,0.8c0,0.1,0,0.1,0,0.1
		C33.8,87.3,34.8,87.5,35.8,87.7z"/>
	<path id="Path_485" class="st13" d="M39,84.9c0.3,0.6,0.3,1.3-0.1,1.5s-1-0.2-1.3-0.8s-0.3-1.3,0.1-1.5S38.7,84.3,39,84.9z"/>
	<path id="Path_487" class="st14" d="M37.2,88.5c2.5,0,3.3-1.2,3.3-1.2c-1.5,0.6-3.1,0.8-4.6,0.5c-1.2-0.1-2.4-0.5-3.4-1.1
		C32.5,86.6,33.3,88.5,37.2,88.5z"/>
</g>
<g>
	
		<radialGradient id="Path_489_00000091710367822255521810000014662998100474708110_" cx="-772.7123" cy="176.31" r="0.647" gradientTransform="matrix(5.5667 0 0 3.642 4324.6548 -553.3499)" gradientUnits="userSpaceOnUse">
		<stop  offset="0" style="stop-color:#005B89;stop-opacity:0.7"/>
		<stop  offset="1" style="stop-color:#00A9FF;stop-opacity:0.2"/>
	</radialGradient>
	
		<path id="Path_489" style="opacity:0.69;fill:url(#Path_489_00000091710367822255521810000014662998100474708110_);enable-background:new    ;" d="
		M22.7,90.5c1.1,0.2,2.2,0.1,3.2-0.1c0.3-1.5-0.6-3-2.1-3.3s-3,0.6-3.3,2.1c0,0.2-0.1,0.4-0.1,0.6v0.1
		C21.2,90.2,21.9,90.4,22.7,90.5z"/>
	<path id="Path_488" class="st13" d="M25.2,88.3c0.3,0.5,0.2,1-0.1,1.2s-0.8-0.1-1-0.6s-0.2-1,0.1-1.2S25,87.8,25.2,88.3z"/>
	<path id="Path_490" class="st14" d="M23.8,91.1c2,0,2.6-1,2.6-1c-1.1,0.5-2.4,0.6-3.6,0.4c-0.9-0.1-1.9-0.4-2.7-0.9
		C20.1,89.7,20.8,91.1,23.8,91.1z"/>
</g>
<g>
	
		<radialGradient id="Path_492_00000151516386994387772510000008121581799244654218_" cx="-700.8285" cy="132.3694" r="0.627" gradientTransform="matrix(4.1228 0.3983 -0.3988 4.1282 2954.8682 -183.4689)" gradientUnits="userSpaceOnUse">
		<stop  offset="0" style="stop-color:#005B89;stop-opacity:0.7"/>
		<stop  offset="1" style="stop-color:#00A9FF;stop-opacity:0.2"/>
	</radialGradient>
	
		<path id="Path_492" style="opacity:0.69;fill:url(#Path_492_00000151516386994387772510000008121581799244654218_);enable-background:new    ;" d="
		M12,85.7c1.2,0.3,2.4,0.4,3.5,0.2c0.5-1.6-0.3-3.4-1.9-3.9s-3.4,0.3-3.9,1.9c-0.1,0.2-0.1,0.5-0.1,0.7v0.1
		C10.3,85.1,11.1,85.4,12,85.7z"/>
	<path id="Path_491" class="st13" d="M15,83.5c0.2,0.6,0.1,1.1-0.2,1.3s-0.8-0.2-1-0.8s-0.1-1.1,0.2-1.3S14.7,82.9,15,83.5z"/>
	<path id="Path_493" class="st14" d="M13.1,86.4c2.2,0.2,2.9-0.8,2.9-0.8c-1.3,0.4-2.7,0.4-4,0c-1-0.2-2-0.6-2.9-1.2
		C9.2,84.5,9.7,86.1,13.1,86.4z"/>
</g>
<g>
	
		<radialGradient id="Path_495_00000139974476450442079130000014842691175063529658_" cx="-1175.5122" cy="159.7788" r="0.647" gradientTransform="matrix(-4.0151 0 0 4.02 -4671.877 -554.1389)" gradientUnits="userSpaceOnUse">
		<stop  offset="0" style="stop-color:#005B89;stop-opacity:0.7"/>
		<stop  offset="1" style="stop-color:#00A9FF;stop-opacity:0.2"/>
	</radialGradient>
	
		<path id="Path_495" style="opacity:0.69;fill:url(#Path_495_00000139974476450442079130000014842691175063529658_);enable-background:new    ;" d="
		M50.1,90.1c-1.2,0.2-2.4,0.2-3.5-0.1c-0.4-1.7,0.6-3.3,2.3-3.7c1.7-0.4,3.3,0.6,3.7,2.3c0.1,0.2,0.1,0.5,0.1,0.7v0.1
		C51.8,89.7,51,89.9,50.1,90.1z"/>
	<path id="Path_494" class="st13" d="M47.4,87.7c-0.3,0.5-0.2,1.1,0.1,1.3s0.8-0.1,1.1-0.7s0.2-1.1-0.1-1.3S47.6,87.1,47.4,87.7z"/>
	<path id="Path_496" class="st14" d="M48.9,90.7c-2.2,0-2.9-1.1-2.9-1.1c1.3,0.5,2.7,0.7,4,0.4c1-0.1,2-0.4,3-1
		C53,89.2,52.3,90.7,48.9,90.7z"/>
</g>
<g>
	
		<radialGradient id="Path_498_00000023241139257787682360000002608502950599087798_" cx="-1140.1594" cy="181.9046" r="0.614" gradientTransform="matrix(-4.1821 0.6005 0.6001 4.1867 -4821.1069 8.51)" gradientUnits="userSpaceOnUse">
		<stop  offset="0" style="stop-color:#005B89;stop-opacity:0.7"/>
		<stop  offset="1" style="stop-color:#00A9FF;stop-opacity:0.2"/>
	</radialGradient>
	
		<path id="Path_498" style="opacity:0.69;fill:url(#Path_498_00000023241139257787682360000002608502950599087798_);enable-background:new    ;" d="
		M60.7,87c-1.1,0.4-2.3,0.5-3.5,0.4c-0.6-1.6,0.2-3.4,1.8-4s3.4,0.2,4,1.8c0.1,0.2,0.1,0.4,0.2,0.7V86C62.4,86.4,61.6,86.7,60.7,87z
		"/>
	<path id="Path_497" class="st13" d="M57.7,85c-0.2,0.6-0.1,1.2,0.3,1.3s0.8-0.2,1-0.8s0.1-1.2-0.3-1.3S57.9,84.4,57.7,85z"/>
	<path id="Path_499" class="st14" d="M59.6,87.8c-2.2,0.3-3-0.6-3-0.6c1.3,0.3,2.7,0.3,4-0.1c1-0.3,2-0.7,2.8-1.4
		C63.5,85.7,63,87.3,59.6,87.8z"/>
</g>
</svg>
