<?xml version="1.0" encoding="utf-8"?>
<!-- Generator: Adobe Illustrator 25.4.1, SVG Export Plug-In . SVG Version: 6.00 Build 0)  -->
<svg version="1.1" id="Layer_1" xmlns="http://www.w3.org/2000/svg" xmlns:xlink="http://www.w3.org/1999/xlink" x="0px" y="0px"
	 viewBox="0 0 398.7 513" style="enable-background:new 0 0 398.7 513;" xml:space="preserve">
<style type="text/css">
	.st0{fill:url(#Path_519_00000088127444260453752510000016768659757287495059_);}
	.st1{opacity:0.1;}
	.st2{fill:#282828;}
	.st3{fill:#1B3171;}
</style>
<linearGradient id="Path_519_00000163771806674305585100000000795236692849882021_" gradientUnits="userSpaceOnUse" x1="-311.4628" y1="641.407" x2="-310.5931" y2="641.407" gradientTransform="matrix(398.2842 0 0 -513.738 124068.6641 329771.7812)">
	<stop  offset="0" style="stop-color:#4773CA"/>
	<stop  offset="1" style="stop-color:#05ABD7"/>
</linearGradient>
<path id="Path_519" style="fill:url(#Path_519_00000163771806674305585100000000795236692849882021_);" d="M2.9,369.7l20.4-259
	C30.5,47.6,79,0.9,131,1.4l31.6-0.1c-4.1,4.3-8.6,11.5-10.2,17.4c-2,7.2-2.1,20.2,3,32.7c5.2,12.5,22.3,28,44.7,28.3
	s35.4-14.4,40.9-22.9c5.5-8.5,10.3-26.5,3.7-41.4c-2-4.7-4.8-9.1-8.2-12.9l39.9,0.3c52.9,0.5,96.7,49.9,101.6,114.4l19.3,257.3
	c6.1,81.3-47,137.2-117.4,137.4H90.6C26.1,510.7-4.9,438.8,2.9,369.7z"/>
<g class="st1">
	<path class="st2" d="M6.4,376l20.4-259C34,53.8,82.5,7.1,134.5,7.6l23.2-0.1c1.6-2.4,3.3-4.6,4.9-6.3l-31.6,0.1
		C78.9,0.9,30.5,47.6,23.3,110.7l-20.4,259C-1.2,406,5.4,443.1,22,470.3C8,443.8,2.6,409.6,6.4,376z"/>
	<path class="st2" d="M279.8,9.1c33.4,0.3,63.2,20.2,81.9,51c-18.3-34.4-49.8-56.9-85.4-57.3l-39.9-0.3c1.8,1.9,3.4,4,4.8,6.3
		L279.8,9.1z"/>
	<path class="st2" d="M159.1,58c5.4,12.4,22.3,27.6,44.5,27.9c22.4,0.3,35.4-14.4,40.9-22.9c5.5-8.5,10.3-26.5,3.7-41.4
		c-1.1-2.8-2.6-5.4-4.3-7.8c0.2,0.5,0.5,1,0.7,1.6c6.6,14.9,1.8,32.9-3.7,41.4c-5.5,8.5-18.5,23.2-40.9,22.9
		C181.5,79.4,166.6,68.8,159.1,58z"/>
</g>
<path id="Path_518" class="st3" d="M21.2,363.8L39.5,120c6.7-59.7,45.1-101,91.3-101l9.6-0.2c-0.4,1.1-0.8,2.1-1.1,3.2
	c-2.4,8.8-3.7,20.3,1.9,37.3c5.7,17.1,33.3,39.7,59.5,38.6s41.6-13.7,48.3-24c5.2-6.9,18.2-31.5,9.5-51.9h14.4
	c45.8,0.4,84.7,44.6,88.8,103.2l18.4,242.5c5.6,76.9-44.4,127.1-109.6,126.6H100.6C42.4,493.5,13.9,429,21.2,363.8z"/>
<g class="st1">
	<path class="st2" d="M386.2,372.9l-18.4-242.5c-2.5-36.4-18.5-67.3-41.3-85.5c19.3,18.6,32.6,47,34.9,79.9l18.4,242.5
		c5.6,76.9-44.4,127.1-109.6,126.6H100.5c-16.6-0.2-30.7-5.6-42.3-14.7c12.7,12.5,29,20,48.7,20.3h169.7
		C341.8,500,391.9,449.7,386.2,372.9z"/>
</g>
</svg>
