<svg xmlns="http://www.w3.org/2000/svg" xmlns:xlink="http://www.w3.org/1999/xlink" width="361.217" height="208.279" viewBox="0 0 361.217 208.279">
  <defs>
    <linearGradient id="linear-gradient" y1="0.5" x2="1" y2="0.5" gradientUnits="objectBoundingBox">
      <stop offset="0" stop-color="#444b8c"/>
      <stop offset="0.996" stop-color="#26264f"/>
    </linearGradient>
    <linearGradient id="linear-gradient-2" y1="0.5" x2="1" y2="0.5" gradientUnits="objectBoundingBox">
      <stop offset="0.004" stop-color="#b043ff"/>
      <stop offset="0.515" stop-color="#2cb1dc"/>
      <stop offset="1" stop-color="#00fb96"/>
    </linearGradient>
  </defs>
  <g id="Group_282" data-name="Group 282" transform="translate(-915.598 704.911)">
    <g id="Group_280" data-name="Group 280" transform="translate(915.598 -704.911)">
      <g id="Group_279" data-name="Group 279">
        <g id="Group_278" data-name="Group 278">
          <path id="Path_964" data-name="Path 964" d="M1276.052-563.166l-357.643-3.048v9.02a4.8,4.8,0,0,0,3.673,4.9l101.131,17.762a14.17,14.17,0,0,0,3.628.167l245.325-20.252a4.579,4.579,0,0,0,3.886-4.784Z" transform="translate(-914.834 742.595)" fill="#26264f"/>
          <g id="Group_277" data-name="Group 277">
            <path id="Path_965" data-name="Path 965" d="M1147.028-539.936l-224.158,16.5a6.794,6.794,0,0,1-7.273-7.008V-697.367a7.416,7.416,0,0,1,7.273-7.544h224.158c3.3,0,5.976,3.053,5.976,6.819v150.9C1153-543.429,1150.332-540.18,1147.028-539.936Z" transform="translate(-915.598 704.911)" fill="#26264f"/>
            <path id="Path_966" data-name="Path 966" d="M1149.838-539.936l-224.156,16.5a6.793,6.793,0,0,1-7.273-7.008V-697.367a7.415,7.415,0,0,1,7.273-7.544h224.156c3.305,0,5.977,3.053,5.977,6.819v150.9C1155.815-543.429,1153.143-540.18,1149.838-539.936Z" transform="translate(-914.834 704.911)" fill="url(#linear-gradient)"/>
            <path id="Path_967" data-name="Path 967" d="M1140.772-552.646,931.993-538.312a5.569,5.569,0,0,1-5.917-5.752V-690.205a6.075,6.075,0,0,1,5.917-6.184l208.779-.9c2.727-.011,4.932,2.49,4.932,5.588v133.109C1145.7-555.5,1143.5-552.832,1140.772-552.646Z" transform="translate(-912.751 706.982)" fill="url(#linear-gradient-2)"/>
            <path id="Path_968" data-name="Path 968" d="M1019.589-700.721a2.712,2.712,0,0,1-2.579,2.817,2.7,2.7,0,0,1-2.584-2.807,2.71,2.71,0,0,1,2.584-2.817A2.7,2.7,0,0,1,1019.589-700.721Z" transform="translate(-888.746 705.287)" fill="#fff"/>
            <path id="Path_969" data-name="Path 969" d="M925.681-523.436,1148.7-539.853l1.134-.083a6.017,6.017,0,0,0,3.949-2c-16.049-.879-26.018-6.575-32.448-12.459-12.914-11.818-10.673-23.473-24.6-31.243-17.369-9.692-31.026,2.589-44.206-9.528-7.991-7.347-4.068-12.825-13.9-23.8-10.89-12.159-17.979-8.072-28.923-19.015-13.839-13.836-6.918-24.6-18.838-34.536-14.46-12.052-30.055-.9-43.821-12.455-5.936-4.985-9.194-12.232-10.9-19.94H925.682a7.416,7.416,0,0,0-7.273,7.544v166.923A6.794,6.794,0,0,0,925.681-523.436Z" transform="translate(-914.834 704.911)" fill="#fff" opacity="0.48" style="mix-blend-mode: soft-light;isolation: isolate"/>
          </g>
          <path id="Path_970" data-name="Path 970" d="M1158.773-575.893,918.409-558.524l104.8,18.407a14.223,14.223,0,0,0,3.628.168l249.211-20.574L1162.6-575.775A18.667,18.667,0,0,0,1158.773-575.893Z" transform="translate(-914.834 739.952)" fill="url(#linear-gradient)"/>
          <path id="Path_971" data-name="Path 971" d="M945.988-558.992l200.11-14.676,61.932,8.259-198.386,15.688Z" transform="translate(-907.341 740.57)" fill="#26264f"/>
        </g>
      </g>
    </g>
    <g id="Group_281" data-name="Group 281" transform="translate(945.371 -646.552)">
      <path id="Path_972" data-name="Path 972" d="M1002.8-626.282q-.076-11.411-.152-22.819c-.038-5.737-4.336-10.054-9.843-9.916q-22.051.544-44.09,1.115a10.06,10.06,0,0,0-9.7,10.358q.133,22.856.292,45.688a9.6,9.6,0,0,0,9.69,9.823q22.2-.521,44.4-1.119a8.757,8.757,0,0,0,4.031-1.044,10.089,10.089,0,0,0,5.519-9.408C1002.926-611.159,1002.849-618.727,1002.8-626.282Zm-53.653-21.956c2.772-.075,5.532-.137,8.3-.225a1.066,1.066,0,0,1,1.081.59q4.292,7.731,8.6,15.426c.025.065.051.116.076.181.649,1.15,1.323,2.288,1.958,3.45a.7.7,0,0,1-.6,1.1c-.547.036-1.081.02-1.628.018-2.276.064-4.565.126-6.842.2a1.173,1.173,0,0,1-1.208-.7q-5.208-9.359-10.441-18.707C947.975-647.75,948.217-648.213,949.145-648.238Zm20.029,26.174c-.661,1.254-1.335,2.494-2.009,3.734q-4.2,7.931-8.38,15.852a.953.953,0,0,1-.89.56c-2.861.06-5.723.145-8.6.217-.776.015-1-.5-.585-1.276q2.842-5.378,5.7-10.752c1.488-2.807,2.988-5.613,4.451-8.42a1.388,1.388,0,0,1,1.348-.853c2.175-.028,4.349-.094,6.537-.146.585-.022,1.157-.057,1.742-.053C969.226-623.208,969.518-622.728,969.175-622.064Zm4.6-6.992c.75-1.429,1.5-2.845,2.264-4.273q3.453-6.5,6.905-13.02c.076-.125.153-.249.229-.362.343-.651.661-1.3,1-1.955a.857.857,0,0,1,.8-.487c2.9-.071,5.8-.155,8.711-.212.7-.019.928.509.547,1.223-1.246,2.368-2.493,4.724-3.752,7.092q-2.995,5.639-6,11.276c-.191.364-.42.7-.636,1.05a.705.705,0,0,1-.776.64c-2.912.071-5.812.155-8.724.214C973.677-627.863,973.435-628.392,973.778-629.056ZM993.96-602.84c-1.539.059-3.065.093-4.6.126-1.234.029-2.467.032-3.688.1a1.226,1.226,0,0,1-1.4-.79,9.562,9.562,0,0,0-.445-.876q-2.175-3.838-4.324-7.676-2.8-5.019-5.583-10.025c-.509-.9-.254-1.356.763-1.377,2.645-.079,5.278-.145,7.923-.21,1.043-.022,1.17.058,1.6,1.1,1.132,1.965,2.187,3.965,3.319,5.93,2.34,4.085,4.6,8.218,6.931,12.314l.153.272C994.889-603.335,994.621-602.859,993.96-602.84Z" transform="translate(-939.01 659.021)" fill="#fff"/>
      <path id="Path_973" data-name="Path 973" d="M1041.332-631.63c-.015-2.387-.036-4.774-.045-7.161a5.106,5.106,0,0,1,4.642-5.311c3.005-.235,6.015-.4,9.021-.474a5.954,5.954,0,0,1,5.955,5.389,13.753,13.753,0,0,1-.01,4.32,6.811,6.811,0,0,1-6.4,5.691c-2.5.156-5.005.247-7.508.409-.556.037-.685-.14-.66-.677a20.8,20.8,0,0,0-.015-2.323c-.033-.537.1-.721.653-.741,2.361-.092,4.723-.235,7.086-.365,2.224-.121,3.387-1.4,3.364-3.71a8.544,8.544,0,0,0-.11-1.933,2.684,2.684,0,0,0-2.917-2.351c-2.685.1-5.37.258-8.055.427-1.038.065-1.473.588-1.47,1.712.009,3.245.042,6.491.065,9.736.012,1.633.014,3.266.038,4.9,0,.32-.07.458-.4.469-.928.034-1.858.075-2.785.153-.464.038-.4-.266-.4-.556Q1041.356-627.827,1041.332-631.63Z" transform="translate(-911.221 662.945)" fill="#fff"/>
      <path id="Path_974" data-name="Path 974" d="M1089.349-638.685c.015,2.512.037,5.025.047,7.537.014,3.392-1.866,5.519-5.122,5.748-2.119.15-4.239.27-6.357.331a4.449,4.449,0,0,1-4.941-4.334,33.37,33.37,0,0,1-.036-6.4,4.9,4.9,0,0,1,4.359-4.569c2.214-.243,4.439-.273,6.658-.411.365-.023.372.187.372.46,0,.88-.015,1.761.024,2.638.021.464-.1.619-.567.637-1.836.071-3.673.184-5.51.284-1.443.078-1.8.467-1.795,1.938.009,1.507.014,3.015.031,4.522.013,1.138.461,1.581,1.557,1.527,2.039-.1,4.077-.212,6.116-.324,1.2-.066,1.635-.543,1.629-1.8q-.042-7.79-.1-15.58c-.006-.908-.008-.907.852-.953.667-.036,1.335-.03,2-.12.568-.075.753.069.748.7C1089.293-644.13,1089.331-641.408,1089.349-638.685Z" transform="translate(-902.658 662.131)" fill="#fff"/>
      <path id="Path_975" data-name="Path 975" d="M1065.639-641.248c1.17-.062,2.341-.14,3.511-.183a4.507,4.507,0,0,1,4.908,4.5,46.261,46.261,0,0,1,.015,6.027,4.954,4.954,0,0,1-4.687,4.83c-2.32.17-4.643.309-6.961.36a4.45,4.45,0,0,1-4.481-3.515,5.575,5.575,0,0,1,2.368-5.994,4.688,4.688,0,0,1,2.266-.689c2.019-.113,4.038-.206,6.056-.336.425-.027.56.1.545.537-.027.8-.032,1.6.018,2.386.034.529-.173.624-.621.643-1.937.083-3.875.188-5.813.307a1.585,1.585,0,0,0-1.531,1.827,1.329,1.329,0,0,0,1.413,1.288q3.361-.143,6.721-.359a1.4,1.4,0,0,0,1.31-1.438q.035-2.766-.033-5.527a1.311,1.311,0,0,0-1.559-1.307c-2.382.121-4.764.231-7.144.393-.548.037-.692-.121-.664-.666.041-.774.02-1.551-.01-2.323-.016-.4.1-.549.5-.563C1063.055-641.094,1064.347-641.178,1065.639-641.248Z" transform="translate(-906.734 663.799)" fill="#fff"/>
      <path id="Path_976" data-name="Path 976" d="M1024.891-623.522l-4.835.258c-.258.014-.389-.177-.539-.337-1.362-1.451-2.748-2.882-4.071-4.372-.427-.482-.622-.369-.988.08-1.306,1.6-2.655,3.163-3.971,4.755a1.115,1.115,0,0,1-.891.444c-1.464.06-2.927.149-4.54.235.931-1.118,1.759-2.117,2.592-3.111,1.447-1.728,2.888-3.464,4.358-5.172.325-.378.308-.578-.01-.913-1.941-2.04-3.858-4.1-5.779-6.16a.705.705,0,0,1-.286-.456c1.293-.07,2.578-.083,3.853-.226a1.932,1.932,0,0,1,1.857.777c.928,1.086,1.942,2.093,2.9,3.15.275.3.45.273.716-.046,1.1-1.33,2.229-2.641,3.341-3.963.165-.2.3-.39.589-.4,1.532-.072,3.064-.159,4.595-.24.081.291-.134.411-.256.558-1.892,2.262-3.781,4.53-5.7,6.772-.313.365-.28.542.016.855,2.232,2.344,4.443,4.709,6.661,7.068C1024.6-623.869,1024.69-623.759,1024.891-623.522Z" transform="translate(-921.065 664.399)" fill="#fff"/>
      <path id="Path_977" data-name="Path 977" d="M1027.715-629.54c-.01-1.591-.028-3.18-.029-4.771a5.252,5.252,0,0,1,4.888-5.435c2.662-.179,5.324-.285,7.986-.446.44-.027.548.135.539.557-.019.879-.023,1.76.019,2.635.023.49-.154.6-.59.621-2.481.113-4.962.253-7.443.389-1.3.071-1.744.552-1.736,1.9.018,3.18.029,6.362.07,9.542.006.5-.143.656-.613.663-.846.011-1.7.065-2.541.133-.4.033-.525-.1-.524-.511C1027.748-626.025,1027.727-627.783,1027.715-629.54Z" transform="translate(-914.917 664.135)" fill="#fff"/>
      <path id="Path_978" data-name="Path 978" d="M1022.109-631.429c-.015-2.428-.019-4.857-.056-7.283-.006-.463.111-.629.571-.636.886-.013,1.775-.072,2.662-.139.357-.027.5.076.5.469q.032,7.409.09,14.818c0,.318-.046.507-.429.513-.907.013-1.816.044-2.723.121-.46.038-.581-.117-.58-.58C1022.151-626.573,1022.125-629,1022.109-631.429Z" transform="translate(-916.447 664.327)" fill="#fff"/>
      <path id="Path_979" data-name="Path 979" d="M1004.329-630.474c.015,2.4.018,4.811.057,7.214.008.515-.126.7-.637.707-.844.005-1.693.067-2.54.13-.348.027-.5-.06-.5-.46q-.03-7.4-.1-14.808c0-.412.169-.492.507-.5.867-.031,1.735-.061,2.6-.144.468-.044.574.132.574.585C1004.288-635.326,1004.313-632.9,1004.329-630.474Z" transform="translate(-922.273 664.638)" fill="#fff"/>
      <path id="Path_980" data-name="Path 980" d="M1023.865-641.213c-.463.025-.926.039-1.389.079-.3.026-.44-.061-.438-.4.01-.877-.005-1.754-.013-2.631,0-.225.009-.42.305-.431,1-.039,2.011-.083,3.015-.136.279-.015.4.086.4.384q0,1.316.017,2.631c.005.291-.1.42-.389.427C1024.872-641.276,1024.369-641.239,1023.865-641.213Z" transform="translate(-916.454 662.902)" fill="#fff"/>
      <path id="Path_981" data-name="Path 981" d="M1002.411-640.068c-.484.025-.969.045-1.453.08-.257.019-.363-.084-.361-.352q0-1.35-.018-2.7c0-.271.116-.375.365-.388q1.454-.069,2.907-.156c.282-.018.4.094.4.388,0,.88,0,1.76.018,2.639,0,.3-.126.408-.4.416C1003.38-640.128,1002.9-640.095,1002.411-640.068Z" transform="translate(-922.281 663.214)" fill="#fff"/>
    </g>
  </g>
</svg>
