<svg version="1.1" id="Layer_1" xmlns="http://www.w3.org/2000/svg" x="0px" y="0px"
	 viewBox="0 0 270 90" style="enable-background:new 0 0 270 90;">
<style type="text/css">
	.st0{fill:#08EE8B;}
	.st1{fill:#B044FE;}
	.st2{fill:url(#SVGID_1_);}
	.st3{fill:url(#SVGID_00000181065165139136118960000009355518309748810153_);}
	.st4{fill:url(#SVGID_00000000918828628990841840000011974742391647211411_);}
	.st5{fill:url(#SVGID_00000179613216210104365440000004362756745179599789_);}
</style>
<g>
	<path d="M47.9,0C58.2,0,68.6,0,79,0c6.8,0,12.3,4.4,13.7,11.1c0.2,0.9,0.3,1.8,0.3,2.7c0,20.7,0,41.5,0,62.2
		c0,7.5-5.4,13.3-12.9,13.9c-0.3,0-0.7,0-1,0c-20.8,0-41.7,0-62.5,0C9.9,90,4.3,85.4,3,78.8c-0.2-0.8-0.2-1.7-0.2-2.5
		c0-20.9,0-41.8,0-62.7c0-6.8,5.1-12.7,12-13.6C15.3,0,15.9,0,16.5,0C27,0,37.4,0,47.9,0z M43.8,41.9c0.2,0,0.4,0,0.6,0
		c0.9-0.1,1.3-0.7,0.8-1.6c-0.4-0.8-0.9-1.5-1.3-2.3c-1-1.9-2.1-3.8-3.1-5.6c-1.6-2.9-3.3-5.8-5-8.7c-1.8-3.3-3.7-6.6-5.6-9.9
		c-0.3-0.4-0.7-0.6-1.2-0.6c-4.1,0-8.1,0-12.2,0c-1,0-1.4,0.7-0.9,1.6c5,8.8,9.9,17.6,14.9,26.4c0.3,0.5,0.6,0.7,1.1,0.7
		c1.2,0,2.4,0,3.6,0C38.3,42,41,41.9,43.8,41.9z M42.9,48.1c-1.8,0-3.7,0-5.5,0c-0.8,0-1.6-0.1-2.4,0c-0.9,0-1.8,0-2.7,0
		c-0.7,0-1.2,0.3-1.5,0.9c-2.1,3.8-4.2,7.5-6.4,11.3c-2.8,5-5.6,9.9-8.4,14.9c-0.5,0.9-0.1,1.7,1,1.7c4-0.1,8,0,12,0
		c0.6,0,1-0.2,1.3-0.8c0.4-0.8,0.9-1.6,1.3-2.3c1.1-2.1,2.3-4.1,3.4-6.2c0.3-0.4,0.5-0.9,0.8-1.3c2.4-4.3,4.9-8.6,7.3-13
		c0.7-1.2,1.4-2.4,2.1-3.7c0.4-0.8,0.1-1.4-0.8-1.5C43.9,48,43.4,48.1,42.9,48.1z M64.9,17c-0.1,0.1-0.2,0.3-0.3,0.4
		c-3.4,6.1-6.8,12.1-10.3,18.2c-0.9,1.6-1.8,3.1-2.6,4.7c-0.5,0.8-0.1,1.5,0.9,1.6c0.1,0,0.2,0,0.3,0c3.9,0,7.7,0,11.6,0
		c0.2,0,0.4,0,0.7-0.1c0.4,0,0.7-0.3,0.8-0.6c0.6-0.9,1.1-1.9,1.7-2.8c4.5-7.9,8.9-15.8,13.4-23.7c0.4-0.8,0-1.7-0.9-1.7
		c-1.9,0.1-3.7,0-5.6,0c-2.2,0-4.4,0-6.6,0c-0.5,0-1,0.1-1.2,0.6C66.1,14.9,65.5,15.9,64.9,17z M64.1,71.4c0.9,1.6,1.8,3.2,2.7,4.8
		c0.2,0.4,0.6,0.6,1.1,0.6c4.2,0,8.4,0,12.5,0c0.5,0,0.8-0.2,0.9-0.7c0.1-0.4-0.1-0.7-0.2-1c-4.9-8.7-9.7-17.4-14.8-26
		c-0.5-0.9-0.9-1.1-1.9-1c-0.1,0-0.1,0-0.2,0c-3.8,0-7.6,0-11.4,0c-1.1,0-1.5,0.7-0.9,1.6c2.7,4.8,5.4,9.6,8.2,14.5
		C61.3,66.6,62.7,69,64.1,71.4z"/>
	<path class="st0" d="M186.9,49.4c0-3.3,0-6.6,0-9.9c-0.1-3.7,2.7-6.9,7-7c4-0.1,8,0,12,0c4.5,0,8.3,3.3,8.9,7.8
		c0.3,2.1,0.4,4.3-0.1,6.4c-0.8,3.6-3.8,6.2-7.5,6.7c-0.6,0.1-1.3,0.1-1.9,0.1c-3.5,0-7.1,0-10.6,0c-0.5,0-0.6-0.1-0.6-0.6
		c0-1.3,0-2.6,0-3.8c0-0.5,0.1-0.7,0.6-0.7c3.6,0,7.1,0,10.7,0c0.8,0,1.5-0.2,2.3-0.5c1.1-0.5,1.9-1.4,2.1-2.6
		c0.2-1.7,0.4-3.4-0.2-5.1c-0.5-1.5-1.9-2.6-3.5-2.6c-4,0-8.1,0-12.1,0c-1.2,0-1.8,0.6-1.9,1.8c0,0.2,0,0.4,0,0.6
		c0,6.6,0,13.2,0,19.8c0,0.5-0.1,0.7-0.6,0.7c-1.3,0-2.6,0-4,0c-0.4,0-0.5-0.1-0.5-0.5C186.9,56.3,186.9,52.9,186.9,49.4z"/>
	<path class="st0" d="M262.1,42c0-3.7,0-7.4,0-11c0-0.4,0.1-0.6,0.5-0.6c1.3,0,2.6,0.1,3.9,0c0.6,0,0.7,0.2,0.7,0.7
		c0,6.2,0,12.4,0,18.6c0,1.3,0,2.7,0,4c-0.2,3.7-2.6,6.2-6.2,6.6c-1.4,0.2-2.7,0.1-4.1,0.1c-2.3,0-4.6,0.1-6.9-0.1
		c-3.3-0.3-5.7-2.7-6.1-6c-0.2-1.3-0.1-2.6-0.1-3.9c0-1.7-0.1-3.3,0.1-5c0.4-3.1,2.5-5.3,5.6-5.9c0.5-0.1,1-0.1,1.5-0.1
		c2.8,0,5.7,0,8.5,0c0.5,0,0.6,0.1,0.6,0.6c0,1.3,0,2.6,0,3.8c0,0.5-0.1,0.7-0.7,0.7c-2.8,0-5.5,0-8.3,0c-1.6,0-2.2,0.6-2.2,2.2
		c0,2.2,0,4.3,0,6.5c0,1.5,0.6,2.2,2.2,2.2c2.9,0,5.9,0,8.8,0c1.5,0,2.2-0.7,2.3-2.3C262.2,49.3,262.1,45.6,262.1,42z"/>
	<path class="st0" d="M227.7,39.3c1.7,0,3.4,0,5.1,0c3.2,0,5.9,2,6.7,4.9c0.2,0.6,0.3,1.3,0.3,1.9c0,2.4,0,4.9,0,7.3
		c0,3.4-2.3,6.2-5.5,6.8c-0.6,0.1-1.3,0.1-1.9,0.1c-2.8,0-5.6,0-8.4,0c-2.8,0-5.1-1-6.5-3.5c-2.1-3.8-0.3-10.4,6-10.5
		c2.9-0.1,5.9,0,8.8,0c0.4,0,0.5,0.1,0.5,0.5c0,1.3,0,2.6,0,3.9c0,0.4-0.1,0.5-0.5,0.5c-2.9,0-5.7,0-8.6,0c-1.5,0-2.5,1.3-2.1,2.8
		c0.2,0.9,1,1.5,1.9,1.5c3.2,0,6.3,0,9.5,0c1,0,1.8-0.8,1.9-1.8c0.1-0.9,0-1.8,0-2.7c0-1.5,0-3,0-4.5c0-1.6-0.8-2.4-2.4-2.4
		c-3.4,0-6.9,0-10.3,0c-0.5,0-0.6-0.1-0.6-0.6c0-1.3,0-2.5,0-3.8c0-0.4,0.1-0.5,0.5-0.5C224,39.3,225.8,39.3,227.7,39.3z"/>
	<path class="st1" d="M121.5,60.3c0.8-0.8,1.5-1.6,2.2-2.4c2.6-2.9,5.2-5.7,7.9-8.6c0.3-0.3,0.3-0.5,0-0.8c-2.9-3.2-5.8-6.3-8.7-9.5
		c0-0.1-0.1-0.1-0.1-0.2c0.1-0.2,0.3-0.1,0.4-0.1c2.1,0,4.1,0,6.2,0c0.3,0,0.5,0.1,0.8,0.3c1.7,1.8,3.4,3.6,5.1,5.5
		c0.3,0.3,0.5,0.3,0.8,0c1.7-1.8,3.3-3.6,5-5.4c0.2-0.2,0.3-0.4,0.6-0.4c2.2,0,4.3,0,6.5,0c0.1,0,0.1,0,0.3,0
		c-0.4,0.5-0.8,0.9-1.1,1.2c-2.6,2.8-5.2,5.7-7.8,8.5c-0.3,0.3-0.3,0.5,0,0.8c3.3,3.5,6.5,7,9.8,10.5c0.1,0.1,0.2,0.2,0.3,0.3
		c-0.1,0.2-0.2,0.1-0.4,0.1c-2.1,0-4.2,0-6.3,0c-0.4,0-0.6-0.2-0.8-0.4c-2-2.2-4.1-4.5-6.1-6.7c-0.3-0.4-0.5-0.4-0.8,0
		c-0.8,1-1.7,1.9-2.6,2.8c-1.3,1.3-2.5,2.7-3.8,4c-0.1,0.1-0.3,0.2-0.5,0.2c-2.2,0-4.5,0-6.7,0C121.6,60.4,121.6,60.3,121.5,60.3z"
		/>
	<path class="st1" d="M162.3,52.7c0-2.2,0-4.4,0-6.6c0-4.1,2.9-7.2,7-7.2c3.9-0.1,7.7,0,11.6,0c0.4,0,0.4,0.1,0.4,0.5
		c0,1.4,0,2.7,0,4.1c0,0.5-0.1,0.7-0.6,0.7c-3.6,0-7.1,0-10.7,0c-0.3,0-0.5,0-0.8,0c-1,0.1-1.6,0.7-1.7,1.8c0,0.2,0,0.4,0,0.7
		c0,4.4,0,8.9,0,13.3c0,0.5-0.2,0.6-0.7,0.6c-1.4,0-2.7,0-4.1,0c-0.4,0-0.5-0.1-0.5-0.5C162.3,57.5,162.3,55.1,162.3,52.7z"/>
	<path class="st1" d="M152.3,49.5c0-3.4,0-6.8,0-10.2c0-0.4,0.1-0.5,0.5-0.5c1.4,0,2.8,0,4.2,0c0.4,0,0.5,0.1,0.5,0.5
		c0,6.9,0,13.7,0,20.6c0,0.4-0.1,0.5-0.5,0.5c-1.4,0-2.8,0-4.2,0c-0.4,0-0.5-0.1-0.5-0.5C152.3,56.4,152.3,53,152.3,49.5z"/>
	<path class="st1" d="M113.6,49.6c0-3.4,0-6.8,0-10.2c0-0.5,0.1-0.6,0.6-0.6c1.4,0,2.8,0,4.1,0c0.4,0,0.5,0.1,0.5,0.5
		c0,6.9,0,13.7,0,20.6c0,0.4-0.1,0.5-0.5,0.5c-1.4,0-2.8,0-4.1,0c-0.4,0-0.6-0.1-0.6-0.6C113.6,56.4,113.6,53,113.6,49.6z"/>
	<path class="st1" d="M154.9,34.4c-0.7,0-1.4,0-2.1,0c-0.3,0-0.5-0.1-0.5-0.4c0-1.3,0-2.6,0-4c0-0.3,0.1-0.4,0.4-0.4
		c1.5,0,3,0,4.5,0c0.3,0,0.4,0.1,0.4,0.4c0,1.3,0,2.7,0,4c0,0.3-0.1,0.4-0.4,0.4C156.4,34.4,155.6,34.4,154.9,34.4z"/>
	<path class="st1" d="M116.1,34.4c-0.7,0-1.4,0-2.1,0c-0.3,0-0.5-0.1-0.5-0.4c0-1.3,0-2.6,0-4c0-0.3,0.1-0.4,0.4-0.4
		c1.5,0,3,0,4.5,0c0.3,0,0.4,0.1,0.4,0.4c0,1.3,0,2.6,0,4c0,0.3-0.1,0.4-0.4,0.4C117.6,34.4,116.9,34.4,116.1,34.4z"/>
	<g>
		<linearGradient id="SVGID_1_" gradientUnits="userSpaceOnUse" x1="15.0079" y1="27.6416" x2="79.1015" y2="27.3932">
			<stop  offset="4.475343e-07" style="stop-color:#B044FE"/>
			<stop  offset="0.3268" style="stop-color:#7A71F1"/>
			<stop  offset="0.6263" style="stop-color:#03CEB9"/>
			<stop  offset="1" style="stop-color:#08EE8B"/>
		</linearGradient>
		<path class="st2" d="M30.8,41.2c0.3,0.5,0.6,0.7,1.1,0.7c1.2,0,2.4,0,3.6,0c2.7,0.1,5.4,0.1,8.1,0c0.2,0,0.4,0,0.6,0
			c0.9-0.1,1.3-0.7,0.8-1.6c-0.4-0.8-0.9-1.5-1.3-2.3c-1-1.9-2.1-3.8-3.1-5.6c-1.6-2.9-3.3-5.8-5-8.7c-1.8-3.3-3.7-6.6-5.6-9.9
			c-0.3-0.4-0.7-0.6-1.2-0.6c-4.1,0-8.1,0-12.2,0c-1,0-1.4,0.7-0.9,1.6C20.9,23.6,25.9,32.4,30.8,41.2z"/>
		
			<linearGradient id="SVGID_00000164477766954573422240000017178430822496152994_" gradientUnits="userSpaceOnUse" x1="15.1435" y1="62.6213" x2="79.2371" y2="62.3729">
			<stop  offset="4.475343e-07" style="stop-color:#B044FE"/>
			<stop  offset="0.3268" style="stop-color:#7A71F1"/>
			<stop  offset="0.6263" style="stop-color:#03CEB9"/>
			<stop  offset="1" style="stop-color:#08EE8B"/>
		</linearGradient>
		<path style="fill:url(#SVGID_00000164477766954573422240000017178430822496152994_);" d="M81,75.1c-4.9-8.7-9.7-17.4-14.8-26
			c-0.5-0.9-0.9-1.1-1.9-1c-0.1,0-0.1,0-0.2,0c-3.8,0-7.6,0-11.4,0c-1.1,0-1.5,0.7-0.9,1.6c2.7,4.8,5.4,9.6,8.2,14.5
			c1.4,2.4,2.7,4.8,4.1,7.2c0.9,1.6,1.8,3.2,2.7,4.8c0.2,0.4,0.6,0.6,1.1,0.6c4.2,0,8.4,0,12.5,0c0.5,0,0.8-0.2,0.9-0.7
			C81.4,75.7,81.2,75.4,81,75.1z"/>
		
			<linearGradient id="SVGID_00000155828481265822922480000008151629035834644386_" gradientUnits="userSpaceOnUse" x1="15.0084" y1="27.7787" x2="79.102" y2="27.5302">
			<stop  offset="4.475343e-07" style="stop-color:#B044FE"/>
			<stop  offset="0.3268" style="stop-color:#7A71F1"/>
			<stop  offset="0.6263" style="stop-color:#03CEB9"/>
			<stop  offset="1" style="stop-color:#08EE8B"/>
		</linearGradient>
		<path style="fill:url(#SVGID_00000155828481265822922480000008151629035834644386_);" d="M52.6,41.9c0.1,0,0.2,0,0.3,0
			c3.9,0,7.7,0,11.6,0c0.2,0,0.4,0,0.7-0.1c0.4,0,0.7-0.3,0.8-0.6c0.6-0.9,1.1-1.9,1.7-2.8c4.5-7.9,8.9-15.8,13.4-23.7
			c0.4-0.8,0-1.7-0.9-1.7c-1.9,0.1-3.7,0-5.6,0c-2.2,0-4.4,0-6.6,0c-0.5,0-1,0.1-1.2,0.6c-0.6,1.1-1.2,2.1-1.8,3.2
			c-0.1,0.1-0.2,0.3-0.3,0.4c-3.4,6.1-6.8,12.1-10.3,18.2c-0.9,1.6-1.8,3.1-2.6,4.7C51.3,41.2,51.7,41.9,52.6,41.9z"/>
		
			<linearGradient id="SVGID_00000078760764031790232740000005750254283977306280_" gradientUnits="userSpaceOnUse" x1="15.1429" y1="62.4807" x2="79.2365" y2="62.2323">
			<stop  offset="4.475343e-07" style="stop-color:#B044FE"/>
			<stop  offset="0.3268" style="stop-color:#7A71F1"/>
			<stop  offset="0.6263" style="stop-color:#03CEB9"/>
			<stop  offset="1" style="stop-color:#08EE8B"/>
		</linearGradient>
		<path style="fill:url(#SVGID_00000078760764031790232740000005750254283977306280_);" d="M44.4,48.1c-0.5,0-1,0-1.6,0
			c-1.8,0-3.7,0-5.5,0c-0.8,0-1.6-0.1-2.4,0c-0.9,0-1.8,0-2.7,0c-0.7,0-1.2,0.3-1.5,0.9c-2.1,3.8-4.2,7.5-6.4,11.3
			c-2.8,5-5.6,9.9-8.4,14.9c-0.5,0.9-0.1,1.7,1,1.7c4-0.1,8,0,12,0c0.6,0,1-0.2,1.3-0.8c0.4-0.8,0.9-1.6,1.3-2.3
			c1.1-2.1,2.3-4.1,3.4-6.2c0.3-0.4,0.5-0.9,0.8-1.3c2.4-4.3,4.9-8.6,7.3-13c0.7-1.2,1.4-2.4,2.1-3.7C45.7,48.8,45.3,48.1,44.4,48.1
			z"/>
	</g>
</g>
</svg>
