<?xml version="1.0" encoding="utf-8"?>
<!-- Generator: Adobe Illustrator 25.4.1, SVG Export Plug-In . SVG Version: 6.00 Build 0)  -->
<svg version="1.1" id="Group_153" xmlns="http://www.w3.org/2000/svg" xmlns:xlink="http://www.w3.org/1999/xlink" x="0px" y="0px"
	 viewBox="0 0 79.5 125.1" style="enable-background:new 0 0 79.5 125.1;" xml:space="preserve">
<style type="text/css">
	.st0{opacity:0.19;fill:#FFFFFF;enable-background:new    ;}
	.st1{fill:url(#Path_455_00000154397045566890027200000008009201608249703851_);}
	.st2{fill:url(#Path_456_00000086661668527340812610000007519533147075047042_);}
	.st3{opacity:0.23;fill:#F9F9F9;enable-background:new    ;}
	.st4{opacity:0.19;fill:#2D2D2D;enable-background:new    ;}
	.st5{opacity:0.44;fill:#CCCCCC;enable-background:new    ;}
	.st6{opacity:0.2;fill:url(#Path_473_00000150073183317390458610000008303229297118288815_);enable-background:new    ;}
	.st7{fill:#58FFFE;}
	.st8{opacity:0.2;fill:url(#Path_476_00000183246163920068262650000007210756547664376996_);enable-background:new    ;}
	.st9{opacity:0.2;fill:url(#Path_479_00000180363274487737944190000001164790786828761739_);enable-background:new    ;}
	.st10{opacity:0.2;fill:url(#Path_482_00000096058913435558954230000004881712861696253102_);enable-background:new    ;}
	.st11{opacity:0.69;fill:url(#Path_486_00000108294130204552725050000000576510715160728996_);enable-background:new    ;}
	.st12{opacity:0.69;fill:url(#Path_489_00000052062253840282638370000004458673285974867618_);enable-background:new    ;}
	.st13{opacity:0.69;fill:url(#Path_492_00000090280155804315789340000005559626212889163189_);enable-background:new    ;}
	.st14{opacity:0.69;fill:url(#Path_495_00000162338270710716177000000004302523429035584156_);enable-background:new    ;}
	.st15{opacity:0.69;fill:url(#Path_498_00000105392514070444204890000009823206621801201287_);enable-background:new    ;}
	.st16{opacity:0.54;fill:#FFFFFF;enable-background:new    ;}
	.st17{opacity:0.44;fill:#383838;enable-background:new    ;}
</style>
<g>
	<g id="Group_113" transform="translate(0)">
		<path id="Path_453" class="st0" d="M30,11.5c0,0-0.4,21.5-0.7,24.3c-0.7,5.5-3.5,10.5-7.7,14c-5.7,4.5-12.1,6.6-17.9,19.7
			S1,97.3,5.7,104.8s15.1,18.9,33.6,19.6S73,110.7,77,98.4s2-19.2,0.3-25.5s-7.2-14.4-11.2-17.4s-11.9-8-13.3-16.1
			s-0.3-27.7-0.3-27.7s-4.3,2.3-12.1,2.2S30,11.5,30,11.5z"/>
		<path id="Path_454" class="st0" d="M26.6,3.8c0,0,0.6,3.7,14.4,4C53.6,8,56.3,4.2,56.3,4.1s-0.2,4.1-0.2,4.1s-0.4,2.2-3.5,3.6
			c-4.3,1.8-8.9,2.5-13.6,2.1c-6.4-0.4-9-2.4-9-2.4c-1.1-0.5-2-1.3-2.7-2.2c-0.5-0.8-0.8-1.8-0.8-2.7C26.4,5.6,26.5,4.7,26.6,3.8z"
			/>
		
			<linearGradient id="Path_455_00000068654626076299144240000004063561367912695723_" gradientUnits="userSpaceOnUse" x1="-465.3163" y1="433.6698" x2="-466.1053" y2="433.7878" gradientTransform="matrix(74.1639 0 0 -17.6368 34578.2461 7735.6113)">
			<stop  offset="4.000000e-03" style="stop-color:#05ABD7"/>
			<stop  offset="1" style="stop-color:#00FB96"/>
		</linearGradient>
		<path id="Path_455" style="fill:url(#Path_455_00000068654626076299144240000004063561367912695723_);" d="M2.5,84.7
			c0,0,5.5,9,27.7,9.7s38.3-8.6,41.1-10.7c1.9-1.5,3.9-3.1,5.3-4.9c0,0-17.3,6.5-30.8,3.6s-24.7-7.2-33-5.1S3.2,83.4,2.5,84.7z"/>
		
			<linearGradient id="Path_456_00000039113024013896199270000016653786623563369121_" gradientUnits="userSpaceOnUse" x1="-466.0173" y1="441.8382" x2="-465.3803" y2="442.1062" gradientTransform="matrix(74.8501 0 0 -43.4848 34901.3867 19317.5605)">
			<stop  offset="4.000000e-03" style="stop-color:#05ABD7"/>
			<stop  offset="1" style="stop-color:#00FB96"/>
		</linearGradient>
		<path id="Path_456" style="fill:url(#Path_456_00000039113024013896199270000016653786623563369121_);" d="M2.8,89.8
			c0,0,1.4,11.7,9.3,19.8s18.7,15.1,35.6,11.8s24.9-16.9,27.4-24.1s2.4-12,2.2-14.5c-0.1-1.3-0.3-2.7-0.5-4c0,0-7.6,9.1-24.9,12.9
			S24,94.3,17,92.4c-6.4-1.7-9.2-3-11.4-4.9c-1.1-0.9-2.1-1.8-3.1-2.8C2.4,86.4,2.5,88.1,2.8,89.8z"/>
		<path id="Path_457" class="st3" d="M20.5,54.7c0,0-8.5,6.4-5.9,12.4s12.5,2.4,17.9-3.7s1.8-13.6-2.6-12.6S22.1,53.3,20.5,54.7z"/>
		<path id="Path_458" class="st4" d="M62.9,71.9c0,0,2.2,16.1-3.9,25.6S49.5,110,53,112.3s14.8-0.7,18.7-10.7s5-20.6,3.2-27.1
			s-6.4-8.3-9.2-7C63.8,68,62.6,69.9,62.9,71.9z"/>
		<path id="Path_459" class="st4" d="M45.8,34c0,0-0.5,10.5,3,16s7.8,7.1,9,6.9s2.2-1.6-0.3-3.7c-3.4-2.8-5.9-6.5-7.2-10.7
			c-1.4-4.8,0-10.8-1.1-12.1s-3.2-1.2-3.4,0.8C45.7,32.1,45.7,33,45.8,34z"/>
		<path id="Path_460" class="st3" d="M32.5,19.1c0,0-0.5,13.8-0.6,16.5s-1.1,6.2,1.2,6s3.2-1.8,2.7-6s-0.8-15.7-0.8-17.1
			s-0.1-2.1-1.3-1.9S32.5,19.1,32.5,19.1z"/>
		<path id="Path_461" class="st3" d="M35.2,8.8c0,0,0.2,3.1-1.1,3s-1.8-2.5-1.4-3.8s1.3-0.7,1.9-0.5S35.2,8.8,35.2,8.8z"/>
		<path id="Path_462" class="st4" d="M47.5,8C46.6,8,46,8.8,46.1,9.7c0,0,0,0.1,0,0.1c0.2,1.7-0.1,2.6,1.8,2.3s2.8-0.1,2.8-2.1
			s-1-2.3-1.8-2.2S47.5,8,47.5,8z"/>
		<path id="Path_463" class="st5" d="M55.6,2.9c-1.3-0.8-3.9-2.5-11.9-2.5s-11,0.5-12.8,0.9c-1.2,0.3-2.3,0.8-3.3,1.3
			c-1.2,0.7-1.1,1.2-0.7,1.9S30,7.6,40.3,7.8s13.1-1.9,14.3-2.3S56.9,3.8,55.6,2.9z M48.4,4.8c-0.7,0.3-2.2,1.4-7.7,1.2
			s-7-1.4-7.2-1.7s-0.3-0.6,0.4-1C34.4,3,35,2.8,35.6,2.6c2.3-0.5,4.6-0.6,6.9-0.5c4.3,0,5.7,0.9,6.4,1.4S49,4.6,48.4,4.8L48.4,4.8z
			"/>
	</g>
	
		<radialGradient id="Path_473_00000163060394478508573530000016082597638279331725_" cx="-425.6308" cy="416.9633" r="0.5" gradientTransform="matrix(7.916 0 0 -7.916 3403.3743 3369.843)" gradientUnits="userSpaceOnUse">
		<stop  offset="0" style="stop-color:#000000"/>
		<stop  offset="1" style="stop-color:#02DEAE"/>
	</radialGradient>
	
		<path id="Path_473" style="opacity:0.2;fill:url(#Path_473_00000163060394478508573530000016082597638279331725_);enable-background:new    ;" d="
		M38,69.2c0,2.2-1.8,4-4,4s-4-1.8-4-4c0-2.2,1.8-4,4-4S38,67,38,69.2L38,69.2z"/>
	<path id="Path_474" class="st7" d="M37,67.1c0.4,0.7,0.3,1.5-0.1,1.7s-1.1-0.2-1.4-0.9s-0.3-1.5,0.1-1.7S36.6,66.4,37,67.1z"/>
	
		<radialGradient id="Path_476_00000147919338303787702630000005239905194713867450_" cx="-421.8582" cy="414.3958" r="0.5" gradientTransform="matrix(7.3021 0 0 -7.3021 3129.1335 3087.0371)" gradientUnits="userSpaceOnUse">
		<stop  offset="0" style="stop-color:#000000"/>
		<stop  offset="1" style="stop-color:#02DEAE"/>
	</radialGradient>
	
		<path id="Path_476" style="opacity:0.2;fill:url(#Path_476_00000147919338303787702630000005239905194713867450_);enable-background:new    ;" d="
		M52.3,61.1c0,2-1.6,3.7-3.7,3.7S45,63.1,45,61.1c0-2,1.6-3.7,3.7-3.7C50.7,57.4,52.3,59.1,52.3,61.1C52.3,61.1,52.3,61.1,52.3,61.1
		z"/>
	<path id="Path_477" class="st7" d="M51.4,59.2c0.3,0.6,0.3,1.3-0.1,1.5s-1-0.2-1.3-0.8s-0.3-1.3,0.1-1.5S51,58.6,51.4,59.2z"/>
	<path id="Path_478" class="st7" d="M46.7,62.7c0.1,0.3,0.1,0.5,0,0.6s-0.4-0.1-0.5-0.3s-0.1-0.5,0-0.6S46.5,62.4,46.7,62.7z"/>
	
		<radialGradient id="Path_479_00000030482716426484661750000018348666426173517500_" cx="-417.0727" cy="411.1389" r="0.5" gradientTransform="matrix(6.648 0 0 -6.648 2808.8738 2776.8157)" gradientUnits="userSpaceOnUse">
		<stop  offset="0" style="stop-color:#000000"/>
		<stop  offset="1" style="stop-color:#02DEAE"/>
	</radialGradient>
	
		<path id="Path_479" style="opacity:0.2;fill:url(#Path_479_00000030482716426484661750000018348666426173517500_);enable-background:new    ;" d="
		M39.5,43.6c0,1.8-1.5,3.3-3.3,3.3s-3.3-1.5-3.3-3.3c0-1.8,1.5-3.3,3.3-3.3c0,0,0,0,0,0C38,40.2,39.5,41.7,39.5,43.6z"/>
	<path id="Path_480" class="st7" d="M38.6,41.9c0.3,0.6,0.3,1.2-0.1,1.4s-0.9-0.1-1.2-0.7s-0.3-1.2,0.1-1.4S38.3,41.3,38.6,41.9z"/>
	<path id="Path_481" class="st7" d="M34.3,45c0.1,0.2,0.1,0.5,0,0.6s-0.4-0.1-0.5-0.3s-0.1-0.5,0-0.6S34.2,44.8,34.3,45z"/>
	
		<radialGradient id="Path_482_00000096036520947226530450000007958175603775477378_" cx="-411.0654" cy="407.0501" r="0.5" gradientTransform="matrix(5.9761 0 0 -5.976 2499.4358 2461.3098)" gradientUnits="userSpaceOnUse">
		<stop  offset="0" style="stop-color:#000000"/>
		<stop  offset="1" style="stop-color:#02DEAE"/>
	</radialGradient>
	
		<path id="Path_482" style="opacity:0.2;fill:url(#Path_482_00000096036520947226530450000007958175603775477378_);enable-background:new    ;" d="
		M45.9,28.8c0,1.7-1.3,3-3,3s-3-1.3-3-3c0-1.6,1.3-3,3-3C44.5,25.8,45.9,27.1,45.9,28.8C45.9,28.8,45.9,28.8,45.9,28.8z"/>
	<path id="Path_483" class="st7" d="M45.1,27.2c0.3,0.5,0.2,1.1-0.1,1.3s-0.8-0.1-1.1-0.7s-0.2-1.1,0.1-1.3S44.8,26.7,45.1,27.2z"/>
	<path id="Path_484" class="st7" d="M41.2,30.1c0.1,0.2,0.1,0.4,0,0.5s-0.3-0.1-0.4-0.3s-0.1-0.4,0-0.5S41.1,29.9,41.2,30.1z"/>
	<g>
		
			<radialGradient id="Path_486_00000170274940279681831740000001977505861011108747_" cx="-394.1782" cy="395.5134" r="0.6469" gradientTransform="matrix(4.646 0 0 -4.6539 1869.8153 1925.9001)" gradientUnits="userSpaceOnUse">
			<stop  offset="5.327789e-09" style="stop-color:#100C0B;stop-opacity:0.4"/>
			<stop  offset="1" style="stop-color:#FFFFFF;stop-opacity:0.1"/>
		</radialGradient>
		
			<path id="Path_486_00000167393287611297651650000016901405244191824267_" style="opacity:0.69;fill:url(#Path_486_00000170274940279681831740000001977505861011108747_);enable-background:new    ;" d="
			M37.9,87.4c1.4,0.2,2.7,0.2,4.1-0.2c0.4-1.9-0.7-3.8-2.7-4.3c-1.9-0.4-3.8,0.7-4.3,2.7c-0.1,0.3-0.1,0.5-0.1,0.8
			c0,0.1,0,0.1,0,0.1C35.9,87,36.9,87.2,37.9,87.4z"/>
		
			<radialGradient id="Path_489_00000013888879349949172540000005297398932693006980_" cx="-406.8433" cy="380.9519" r="0.6465" gradientTransform="matrix(5.5706 0 0 -3.6356 2291.5923 1473.4663)" gradientUnits="userSpaceOnUse">
			<stop  offset="5.327789e-09" style="stop-color:#100C0B;stop-opacity:0.4"/>
			<stop  offset="1" style="stop-color:#FFFFFF;stop-opacity:0.1"/>
		</radialGradient>
		
			<path id="Path_489_00000121244732192379403360000014421873716455389581_" style="opacity:0.69;fill:url(#Path_489_00000013888879349949172540000005297398932693006980_);enable-background:new    ;" d="
			M24.8,90.2c1.1,0.2,2.2,0.1,3.2-0.1c0.3-1.5-0.6-3-2.1-3.3c-1.5-0.3-3,0.6-3.3,2.1c0,0.2-0.1,0.4-0.1,0.6c0,0,0,0.1,0,0.1
			C23.2,89.9,24,90.1,24.8,90.2z"/>
		
			<radialGradient id="Path_492_00000152968411525665985650000010440349130228310923_" cx="-379.7112" cy="397.7047" r="0.6265" gradientTransform="matrix(4.1256 0.3986 0.399 -4.131 1422.5345 1877.8021)" gradientUnits="userSpaceOnUse">
			<stop  offset="5.327789e-09" style="stop-color:#100C0B;stop-opacity:0.4"/>
			<stop  offset="1" style="stop-color:#FFFFFF;stop-opacity:0.1"/>
		</radialGradient>
		
			<path id="Path_492_00000078012490533668001110000001940130637500407741_" style="opacity:0.69;fill:url(#Path_492_00000152968411525665985650000010440349130228310923_);enable-background:new    ;" d="
			M14,85.4c1.2,0.3,2.4,0.4,3.5,0.2c0.5-1.6-0.3-3.4-1.9-3.9c-1.6-0.5-3.4,0.3-3.9,1.9c-0.1,0.2-0.1,0.5-0.1,0.7c0,0,0,0.1,0,0.1
			C12.3,84.8,13.2,85.1,14,85.4z"/>
		
			<radialGradient id="Path_495_00000011722931101239076090000000487541980469748653_" cx="-520.4762" cy="384.0544" r="0.6465" gradientTransform="matrix(3.9597 -0.6804 -0.6811 -3.9639 2375.6194 1255.9648)" gradientUnits="userSpaceOnUse">
			<stop  offset="5.327789e-09" style="stop-color:#100C0B;stop-opacity:0.4"/>
			<stop  offset="1" style="stop-color:#FFFFFF;stop-opacity:0.1"/>
		</radialGradient>
		
			<path id="Path_495_00000156573242674596742360000005212996635975474821_" style="opacity:0.69;fill:url(#Path_495_00000011722931101239076090000000487541980469748653_);enable-background:new    ;" d="
			M48.7,89.7c0,0,0-0.1,0-0.1c0-0.2-0.1-0.5,0-0.7c0.1-1.7,1.5-3,3.2-2.9c1.7,0.1,3,1.5,2.9,3.2c-1.1,0.5-2.3,0.7-3.5,0.7
			C50.4,90,49.5,89.9,48.7,89.7z"/>
		
			<radialGradient id="Path_498_00000080185014830401760170000015678205915613465509_" cx="-545.4244" cy="379.0146" r="0.6135" gradientTransform="matrix(-4.1847 0.6008 -0.6004 -4.1885 -1996.5173 2000.2804)" gradientUnits="userSpaceOnUse">
			<stop  offset="5.327789e-09" style="stop-color:#100C0B;stop-opacity:0.4"/>
			<stop  offset="1" style="stop-color:#FFFFFF;stop-opacity:0.1"/>
		</radialGradient>
		
			<path id="Path_498_00000068658286474403939920000015700390293048330119_" style="opacity:0.69;fill:url(#Path_498_00000080185014830401760170000015678205915613465509_);enable-background:new    ;" d="
			M62.8,86.7c-1.1,0.4-2.3,0.5-3.5,0.4c-0.6-1.6,0.2-3.4,1.8-4c1.6-0.6,3.4,0.2,4,1.8c0.1,0.2,0.1,0.4,0.2,0.7c0,0,0,0.1,0,0.1
			C64.4,86.1,63.6,86.4,62.8,86.7z"/>
		<path id="Path_485_00000031890692201657920930000013284532487333511869_" class="st16" d="M41.1,84.6c0.3,0.6,0.3,1.3-0.1,1.5
			c-0.4,0.2-1-0.1-1.3-0.8c-0.3-0.6-0.3-1.3,0.1-1.5C40.1,83.6,40.7,84,41.1,84.6z"/>
		<path id="Path_487_00000166652630413297901450000005255710313209340601_" class="st17" d="M39.3,88.2c2.5,0,3.3-1.2,3.3-1.2
			c-1.5,0.6-3.1,0.8-4.6,0.5c-1.2-0.1-2.4-0.5-3.4-1.1C34.5,86.3,35.3,88.2,39.3,88.2z"/>
		<path id="Path_488_00000152226937523316419850000016079330911772759730_" class="st16" d="M27.3,88c0.3,0.5,0.2,1-0.1,1.2
			c-0.3,0.2-0.8-0.1-1-0.6c-0.3-0.5-0.2-1,0.1-1.2C26.6,87.2,27,87.5,27.3,88z"/>
		<path id="Path_490_00000010989654859962283420000014797351341899897735_" class="st17" d="M25.9,90.8c2,0,2.6-1,2.6-1
			c-1.1,0.5-2.4,0.6-3.6,0.4c-0.9-0.1-1.9-0.4-2.7-0.9C22.1,89.4,22.8,90.8,25.9,90.8z"/>
		<path id="Path_491_00000151529821500754601870000013636332214502194587_" class="st16" d="M17,83.2c0.2,0.6,0.1,1.1-0.2,1.3
			c-0.3,0.1-0.8-0.2-1-0.8c-0.2-0.6-0.1-1.1,0.2-1.3C16.3,82.3,16.8,82.6,17,83.2z"/>
		<path id="Path_493_00000124846471139155182790000006386559729487940269_" class="st17" d="M15.2,86.1c2.2,0.2,2.9-0.8,2.9-0.8
			c-1.3,0.4-2.7,0.4-4,0c-1-0.2-2-0.6-2.9-1.2C11.2,84.2,11.8,85.8,15.2,86.1z"/>
		<path id="Path_494_00000036251189442521842750000017005625961918680996_" class="st16" d="M49.4,87.4c-0.3,0.5-0.2,1.1,0.1,1.3
			c0.3,0.2,0.8-0.1,1.1-0.7c0.3-0.5,0.2-1.1-0.1-1.3C50.2,86.5,49.7,86.8,49.4,87.4z"/>
		<path id="Path_497_00000042703390445052837820000003762221653769764749_" class="st16" d="M59.7,84.7c-0.2,0.6-0.1,1.2,0.3,1.3
			c0.4,0.1,0.8-0.2,1-0.8c0.2-0.6,0.1-1.2-0.3-1.3C60.3,83.7,59.9,84.1,59.7,84.7z"/>
		<path id="Path_499_00000089541456898286669030000002097462737404847269_" class="st17" d="M61.7,87.5c-2.2,0.3-3-0.6-3-0.6
			c1.3,0.3,2.7,0.3,4-0.1c1-0.3,2-0.7,2.8-1.4C65.5,85.4,65,87,61.7,87.5z"/>
		<path id="Path_496_00000122709557818882812670000012063031049767594427_" class="st17" d="M50.9,90.4c-2.2,0-2.9-1.1-2.9-1.1
			c1.3,0.5,2.7,0.7,4,0.4c1-0.1,2-0.4,3-1C55.1,88.9,54.3,90.4,50.9,90.4z"/>
	</g>
</g>
</svg>
