<?xml version="1.0" encoding="utf-8"?>
<!-- Generator: Adobe Illustrator 25.4.1, SVG Export Plug-In . SVG Version: 6.00 Build 0)  -->
<svg version="1.1" id="Layer_1" xmlns="http://www.w3.org/2000/svg" xmlns:xlink="http://www.w3.org/1999/xlink" x="0px" y="0px"
	 viewBox="0 0 398.7 513" style="enable-background:new 0 0 398.7 513;" xml:space="preserve">
<style type="text/css">
	.st0{fill:url(#Path_512-2_00000125562740292481801400000012777338920416198554_);}
	.st1{fill:url(#Path_512-3_00000086663855764070670430000002487475732667075475_);}
	.st2{opacity:9.000000e-02;}
	.st3{fill:#232323;}
	.st4{fill:#1B3171;}
	.st5{opacity:0.1;}
</style>
<g>
	
		<linearGradient id="Path_512-2_00000116224408342596359210000001713396919320406405_" gradientUnits="userSpaceOnUse" x1="-311.1685" y1="641.2513" x2="-310.2575" y2="641.2513" gradientTransform="matrix(-395.9229 0 0 -510.6252 -122817.2422 327695.375)">
		<stop  offset="0" style="stop-color:#05ABD7"/>
		<stop  offset="4.000000e-03" style="stop-color:#05ABD7"/>
		<stop  offset="1" style="stop-color:#1BE0AE"/>
	</linearGradient>
	<path id="Path_512-2" style="fill:url(#Path_512-2_00000116224408342596359210000001713396919320406405_);" d="M308.9,478.1
		L119,510.4C53.1,521.6-4.2,454.5,1.8,373.4L21,116.7C25.9,52.3,69.6,3,122.4,2.5l39.8-0.3c-3.5,3.8-6.2,8.1-8.2,12.8
		c-6.6,14.9-1.8,32.8,3.7,41.3s18.5,23.1,40.8,22.8s39.4-15.8,44.6-28.2s5-25.4,3-32.6c-1.6-5.9-6.1-13-10.2-17.3l31.5,0.1
		c6.7-0.1,13.4,0.6,20,2.1c43.9,9.9,81.2,52.2,87.4,106.9l21.6,226.1C404.1,405.1,365,468.5,308.9,478.1z"/>
	<g transform="matrix(1, 0, 0, 1, 0, 0)">
		
			<linearGradient id="Path_512-3_00000118384139664446526600000005922537991532116116_" gradientUnits="userSpaceOnUse" x1="1.3841" y1="256.3177" x2="397.3071" y2="256.3177" gradientTransform="matrix(-1 0 0 1 398.688 0)">
			<stop  offset="0" style="stop-color:#05ABD7"/>
			<stop  offset="4.000000e-03" style="stop-color:#05ABD7"/>
			<stop  offset="1" style="stop-color:#1BE0AE"/>
		</linearGradient>
		<path id="Path_512-3" style="fill:url(#Path_512-3_00000118384139664446526600000005922537991532116116_);" d="M308.9,478.1
			L119,510.4C53.1,521.6-4.2,454.5,1.8,373.4L21,116.7C25.9,52.3,69.6,3,122.4,2.5l39.8-0.3c-3.5,3.8-6.2,8.1-8.2,12.8
			c-6.6,14.9-1.8,32.8,3.7,41.3s18.5,23.1,40.8,22.8s39.4-15.8,44.6-28.2s5-25.4,3-32.6c-1.6-5.9-6.1-13-10.2-17.3l31.5,0.1
			c6.7-0.1,13.4,0.6,20,2.1c43.9,9.9,81.2,52.2,87.4,106.9l21.6,226.1C404.1,405.1,365,468.5,308.9,478.1z"/>
	</g>
</g>
<g class="st2">
	<path class="st3" d="M271.8,7c6.7-0.1,13.4,0.6,20,2.1c22.7,5.1,43.6,18.9,59.4,38.6c-16.2-22.8-38.9-38.8-63.8-44.4
		c-6.6-1.5-13.3-2.2-20-2.1l-31.5-0.1c1.5,1.6,3.1,3.6,4.6,5.8L271.8,7z"/>
	<path class="st3" d="M6.2,379.3l19.2-256.7C30.3,58.3,74,9,126.8,8.5l30.9-0.3c1.3-2.1,2.8-4,4.5-5.9l-39.8,0.3
		C69.6,3.2,25.9,52.5,21.1,116.8L1.9,373.5c-2.9,39.2,8.9,75.1,29.4,100.5C13.5,449.1,3.5,415.6,6.2,379.3z"/>
	<path class="st3" d="M162.4,62.7c5.6,8.5,18.5,22.7,40.5,22.4c22.3-0.3,39.4-15.8,44.6-28.2s5-25.4,3-32.6
		c-1.5-5.6-5.7-12.3-9.6-16.7c2.3,3.5,4.2,7.4,5.2,10.9c2,7.2,2.1,20.1-3,32.6S220.8,79,198.5,79.3C181,79.5,169.3,70.6,162.4,62.7z
		"/>
</g>
<g transform="matrix(1, 0, 0, 1, 0, 0)">
	<path id="Path_513-2" class="st4" d="M295.5,462.8l-167.1,30C67.2,503.4,13.4,443.2,19,366.6l18.3-241.9
		c4.1-58.5,42.9-102.5,88.5-103h14.4c-8.7,20.3,4.3,44.8,9.4,51.7c6.7,10.4,22.1,22.9,48.2,24s53.6-21.5,59.3-38.5
		c5.7-17,4.3-28.4,1.9-37.2c-0.3-1-0.6-2.1-1.1-3.2l9.5,0.2c46,0,84.4,41.3,91.1,100.8l21,213.1
		C386.9,397.7,352.1,452.8,295.5,462.8z"/>
</g>
<g class="st5">
	<path class="st4" d="M386.1,338.2l-21-213.1c-4-35.7-19.4-64.8-41-82.4c18.1,17.9,30.8,44.5,34.4,76.5l21,213.1
		c7.3,65.1-27.6,120.2-84.1,130.2l-167.1,30c-24.9,4.3-48.6-3.1-67.6-18.6c19.9,19.5,46.3,29.4,74.2,24.6l167.1-30
		C358.5,458.4,393.4,403.3,386.1,338.2z"/>
</g>
</svg>
