<?xml version="1.0" encoding="utf-8"?>
<!-- Generator: Adobe Illustrator 25.4.1, SVG Export Plug-In . SVG Version: 6.00 Build 0)  -->
<svg version="1.1" id="Layer_1" xmlns="http://www.w3.org/2000/svg" xmlns:xlink="http://www.w3.org/1999/xlink" x="0px" y="0px"
	 viewBox="0 0 216.6 63.6" style="enable-background:new 0 0 216.6 63.6;" xml:space="preserve">
<style type="text/css">
	.st0{fill:url(#Rectangle_57_00000095324692155059695940000007316539915720808604_);}
	.st1{fill:#193776;}
</style>
<linearGradient id="Rectangle_57_00000123400715369274438910000001677423692309519035_" gradientUnits="userSpaceOnUse" x1="0" y1="31.822" x2="216.555" y2="31.822">
	<stop  offset="0" style="stop-color:#05ABD7"/>
	<stop  offset="4.000000e-03" style="stop-color:#05ABD7"/>
	<stop  offset="1" style="stop-color:#1BE0AE"/>
</linearGradient>
<path id="Rectangle_57" style="fill:url(#Rectangle_57_00000123400715369274438910000001677423692309519035_);" d="M19,0h178.6
	c10.5,0,19,8.5,19,19v25.6c0,10.5-8.5,19-19,19H19c-10.5,0-19-8.5-19-19V19C0,8.5,8.5,0,19,0z"/>
<path id="Rectangle_58" class="st1" d="M22.3,6.6h172.9c7.7,0,14,6.3,14,14V43c0,7.7-6.3,14-14,14H22.3c-7.7,0-14-6.3-14-14V20.6
	C8.3,12.9,14.5,6.6,22.3,6.6z"/>
</svg>
