<?xml version="1.0" encoding="utf-8"?>
<!-- Generator: Adobe Illustrator 25.4.1, SVG Export Plug-In . SVG Version: 6.00 Build 0)  -->
<svg version="1.1" id="Layer_1" xmlns="http://www.w3.org/2000/svg" xmlns:xlink="http://www.w3.org/1999/xlink" x="0px" y="0px"
	 viewBox="0 0 703.4 1904.6" style="enable-background:new 0 0 703.4 1904.6;" xml:space="preserve">
<style type="text/css">
	.st0{fill:url(#SVGID_1_);}
	.st1{opacity:0.12;fill:#FFFFFF;enable-background:new    ;}
	.st2{fill:#FFFFFF;}
	.st3{opacity:0.19;fill:#FFFFFF;enable-background:new    ;}
	.st4{fill:url(#Path_455_00000163034496453610580920000007030982241467298213_);}
	.st5{fill:url(#Path_456_00000166672743716593572430000007808928855781410729_);}
	.st6{opacity:0.23;fill:#F9F9F9;enable-background:new    ;}
	.st7{opacity:0.19;fill:#2D2D2D;enable-background:new    ;}
	.st8{opacity:0.44;fill:#CCCCCC;enable-background:new    ;}
	.st9{opacity:0.2;fill:url(#Path_473_00000173842673124171353930000008339948611555733893_);enable-background:new    ;}
	.st10{fill:#58FFFE;}
	.st11{opacity:0.2;fill:url(#Path_476_00000096023607071648525280000002709482359011032222_);enable-background:new    ;}
	.st12{opacity:0.2;fill:url(#Path_479_00000110428853443907941240000000326558981565373316_);enable-background:new    ;}
	.st13{opacity:0.2;fill:url(#Path_482_00000132050724021883944310000005899951082128955780_);enable-background:new    ;}
	.st14{opacity:0.67;fill:#58FFFE;enable-background:new    ;}
	.st15{opacity:0.69;fill:url(#Path_486_00000055677255886206404340000001129436980139890070_);enable-background:new    ;}
	.st16{opacity:0.44;fill:#383838;enable-background:new    ;}
	.st17{opacity:0.69;fill:url(#Path_489_00000150068033415622289110000006733773270436130478_);enable-background:new    ;}
	.st18{opacity:0.69;fill:url(#Path_492_00000039828419450518489740000012604926696728712094_);enable-background:new    ;}
	.st19{opacity:0.69;fill:url(#Path_495_00000065790355985442282270000000842441778478385569_);enable-background:new    ;}
	.st20{opacity:0.69;fill:url(#Path_498_00000017478694088115203880000006133663138608566159_);enable-background:new    ;}
	.st21{opacity:0.26;fill:#FFFFFF;enable-background:new    ;}
	.st22{opacity:0.17;fill:#FFFFFF;enable-background:new    ;}
	.st23{opacity:0.79;fill:none;stroke:#5FB3FF;stroke-miterlimit:10;enable-background:new    ;}
</style>
<linearGradient id="SVGID_1_" gradientUnits="userSpaceOnUse" x1="357.8242" y1="159.8242" x2="354.7603" y2="997.7816">
	<stop  offset="0" style="stop-color:#B442ED"/>
	<stop  offset="1" style="stop-color:#11EAAA"/>
</linearGradient>
<path class="st0" d="M660.3,904.5c-39.2-36.1-99.6-33.1-106.6-32.6l-99.4-0.1v-0.2l-296.6-0.3l-1,0c-0.5,0-55.3,4-87.7-25.9
	c-16-14.8-24.1-35.9-24.1-62.8c0-41,15.2-75,48.5-93.4c24.5-13.6,51.4-12.2,54.4-12.4h251.1v0h165.6l0.8,0
	c1.3-0.1,32.9,2.2,63.9-14.7c29.4-16,63.6-52.8,63.6-117c0-34.5-10.9-62-32.5-81.9c-39.2-36.1-99.5-33.1-106.6-32.6l-99.4-0.1v-0.2
	l-296.6-0.2l-1,0c-0.5,0-55.3,4-87.7-25.9c-16-14.8-24.1-35.9-24.1-62.8c0-41,17.5-73.3,50.8-91.8c24.5-13.6,49.1-13.9,52.1-14.1
	l249.9-0.3l9.3,0c30.1,0.1,54.5-24.5,54-54.6l0-1.4c-0.4-13,0-11.4,0.2-26.3c0-3.9-3.1-7-7-7l-11.8,0c-3.7,0-6.7,3-6.7,6.7V171
	c0,21.4-17.4,38.8-38.8,38.8H147.4l-0.8,0c-21.9,0.7-43.2,6.5-62.5,16.8c-29.4,16-65,50.7-65,114.9c0,34.5,10.9,62,32.5,81.9
	c39.2,36.1,99.6,33.1,106.6,32.6l99.4,0.1v0.2l296.6,0.3l1,0c0.5,0,55.3-4,87.7,25.9c16,14.8,24.1,35.9,24.1,62.8
	c0,41-16.1,75.5-49.4,93.9c-24.5,13.6-50.5,11.7-53.5,12H313v0H147.4l-0.8,0c-1.3,0.1-33.8-1.7-64.8,15.2
	c-29.4,16-62.7,52.4-62.7,116.5c0,34.5,10.9,62,32.5,81.9c39.2,36.1,99.5,33.1,106.6,32.6l99.4,0.1v0.2l296.6,0.2l1,0
	c0.6,0,55.3-4,87.7,25.9c16,14.8,22.9,35.9,24.1,62.8c0.9,21.1,25.8,15.9,25.8,0C692.8,951.9,681.9,924.3,660.3,904.5z"/>
<path id="Path_542" class="st1" d="M555.9,1559.4l0.8,0c1.3-0.1,34.8,2.5,65.8-14.4c29.4-16,61.7-53.2,61.7-117.3
	c0-34.5-10.9-62-32.5-81.9c-39.2-36.1-99.6-33.1-106.6-32.6l-99.4-0.1v-0.2l-296.6-0.3l-1,0c-0.5,0-55.3,4-87.7-25.9
	c-16-14.8-24.1-35.9-24.1-62.8c0-41,16.2-74.2,49.5-92.7c24.5-13.6,50.3-13,53.4-13.2h251.1v0h174.2l0.8,0
	c1.3-0.1,33.3,1.3,64.3-15.6c29.4-16,63.2-51.9,63.2-116.1c0-34.5-10.9-62-32.5-81.9c-39.2-36.1-99.6-33.1-106.6-32.6l-99.4-0.1
	v-0.2l-296.6-0.3l-1,0c-0.5,0-55.3,4-87.7-25.9c-16-14.8-24.1-35.9-24.1-62.8c0-41,15.2-75,48.5-93.4c24.5-13.6,51.4-12.2,54.4-12.4
	h251.1v0h165.6l0.8,0c1.3-0.1,32.9,2.2,63.9-14.7c29.4-16,63.6-52.8,63.6-117c0-34.5-10.9-62-32.5-81.9
	c-39.2-36.1-99.5-33.1-106.6-32.6l-99.4-0.1v-0.2l-296.6-0.2l-1,0c-0.5,0-55.3,4-87.7-25.9c-16-14.8-24.1-35.9-24.1-62.8
	c0-41,17.5-73.3,50.8-91.8c24.5-13.6,49.1-13.9,52.1-14.1h239.4l21.5-0.2c29.3-0.3,52.8-24.3,52.6-53.6c-0.1-15.2-0.2-28.3-0.2-30.5
	l-0.1-0.5c-0.2-1.4-1.1-2.6-2.5-3.6c-2.3-1.6-5.9-1.3-9.6-1.3c-3.8-0.1-7.8-0.5-10.3,1.2c-1.3,0.9-2.3,2.1-2.6,3.6l0,0l-0.4,22.3
	c-0.4,19.7-16,35.6-35.7,36.4l-12.3,0.5H147.4l-0.8,0c-21.9,0.7-43.2,6.5-62.5,16.8c-29.4,16-65,50.7-65,114.9
	c0,34.5,10.9,62,32.5,81.9c39.2,36.1,99.6,33.1,106.6,32.6l99.4,0.1v0.2l296.6,0.3l1,0c0.5,0,55.3-4,87.7,25.9
	c16,14.8,24.1,35.9,24.1,62.8c0,41-16.1,75.4-49.4,93.9c-24.5,13.6-50.5,11.7-53.5,12H313v0H147.4l-0.8,0
	c-1.3,0.1-33.8-1.7-64.8,15.2c-29.4,16-62.7,52.4-62.7,116.5c0,34.5,10.9,62,32.5,81.9c39.2,36.1,99.5,33.1,106.6,32.6l99.4,0.1v0.2
	l296.6,0.2l1,0c0.6,0,55.3-4,87.7,25.9c16,14.8,24.1,35.9,24.1,62.8c0,41-15.7,74.6-49,93c-24.5,13.6-50.9,12.6-53.9,12.9H358v0
	H138.8l-0.8,0c-1.3,0.1-32.7-1-63.8,15.9c-29.4,16-63.7,51.6-63.7,115.7c0,34.5,10.9,62,32.5,81.9c39.2,36.1,99.5,33.1,106.6,32.6
	l99.4,0.1v0.2l296.6,0.2l1,0c0.6,0,55.3-4,87.7,25.9c16,14.8,24.1,35.9,24.1,62.8c0,41-14.2,75.8-47.5,94.2
	c-24.5,13.6-52.4,11.4-55.4,11.7H285h0c-23.6,0-42.7,19.1-42.6,42.7l0.1,39.3c0,3.9,5.4,9.8,12.5,9.2c9.7-0.8,12-4.1,12.2-8.3
	l0.3-36.6c0.1-11.3,9.3-20.4,20.6-20.4L555.9,1559.4z"/>
<path id="Path_547" class="st2" d="M28.8,781c0-1.9,0-3.9,0.1-5.8c1.1-32.2,10.9-60,26.9-76.3c34.8-35.3,80.6-34.6,82.5-34.5h425.1
	c59.6,0,97.1-36.4,107.8-72.4c10.6-35.9,10.9-85.5-20.2-117.1c-29.1-29.5-91.9-29-92.5-29c-3.8,0-382.5,1.1-423.9,0
	c-47.7-1.3-101-29-105-86.6c-3.8-53.6,11.6-90.4,48.6-116c31.7-22,80.3-20.7,82.3-20.7l240.8-3.5c23.1-0.3,41.9-18.9,42.5-42
	l0.6-24.8c1.2,0,7.9-0.8,7.9,0.4l-0.8,25.2c-0.8,26.5-22.5,47.5-48.9,47.7l-242.2,1.5c-0.6,0-49.2-1.2-79.7,19.9
	c-36,24.9-50.3,59.4-46.6,111.9c3.9,54.8,54.9,81.2,100.7,82.4c41.3,1.1,419.9,0,423.7,0c2.6,0,65.3-0.6,95.7,30.3
	c32.5,32.9,32.3,84.4,21.3,121.5c-11.2,37.6-50.1,75.6-112.1,75.6H138.3c-0.5,0-45.9-0.7-79.3,33.2c-15.2,15.4-24.6,42.2-25.6,73.3
	c-0.9,28.1,5.3,54.7,16,67.7c23.4,28.7,59.3,42.1,109.9,41c53-1.1,396.7,0,400.2,0.1c2.2,0,54.6-0.8,84.5,22.4
	c30.2,23.5,34.2,48.5,35.8,58c1.5,9.6,2.5,25.6,2.6,26.2c0,1.2-0.9,2.3-2.2,2.3c-1.2,0-2.2-0.9-2.3-2.1c0-0.2-1-16.4-2.5-25.8
	c-1.6-9.8-5.3-32.8-34.1-55.2c-28.6-22.2-81.1-21.5-81.7-21.5c-3.5,0-347.2-1.2-400.1-0.1c-51.3,1.1-89.5-13.3-113.5-42.7
	C35.2,832.8,28.8,808.3,28.8,781z"/>
<g id="Group_163" transform="translate(1557.487 2827.944)">
	<g id="Group_113" transform="translate(0)">
		<path id="Path_453" class="st3" d="M-1324.2-1177c0,0-0.8,43.5-1.5,49.2s-4.1,19.2-15.6,28.3s-24.5,13.4-36.2,39.8
			c-11.6,26.4-5.4,56.3,4.2,71.4s30.4,38.2,68,39.7s68-27.8,76.2-52.6c8.2-24.8,4.1-38.9,0.6-51.7c-3.5-12.8-14.7-29.1-22.6-35.1
			c-8-6-24-16.2-26.8-32.5c-2.8-16.3-0.7-56.1-0.7-56.1s-8.6,4.6-24.5,4.4S-1324.2-1177-1324.2-1177z"/>
		<path id="Path_454" class="st3" d="M-1331.1-1192.6c0,0,1.2,7.5,29.1,8c25.6,0.5,31.1-7.2,31.1-7.5c0-0.2-0.5,8.2-0.5,8.2
			s-0.8,4.5-7.1,7.2c-6.3,2.7-14.5,5-27.5,4.3c-13-0.7-18.2-4.8-18.2-4.8s-3.9-2-5.5-4.5s-1.3-3.7-1.5-5.5
			C-1331.4-1188.9-1331.3-1190.7-1331.1-1192.6z"/>
		
			<linearGradient id="Path_455_00000059290712800340171010000002041158893826441886_" gradientUnits="userSpaceOnUse" x1="-961.3076" y1="-1851.0339" x2="-962.0966" y2="-1850.9159" gradientTransform="matrix(150.037 0 0 -35.6831 142985.5312 -67074.7656)">
			<stop  offset="4.000000e-03" style="stop-color:#05ABD7"/>
			<stop  offset="1" style="stop-color:#00FB96"/>
		</linearGradient>
		<path id="Path_455" style="fill:url(#Path_455_00000059290712800340171010000002041158893826441886_);" d="M-1379.7-1029
			c0,0,11.1,18.3,56.1,19.6s77.6-17.4,83.1-21.6c3.8-3,7.4-6.3,10.8-9.9c0,0-35,13.2-62.3,7.4c-27.3-5.8-50-14.5-66.7-10.4
			S-1378.3-1031.6-1379.7-1029z"/>
		
			<linearGradient id="Path_456_00000009552822479701421170000004008133952679933375_" gradientUnits="userSpaceOnUse" x1="-961.8567" y1="-1846.3578" x2="-961.2197" y2="-1846.0897" gradientTransform="matrix(151.4326 0 0 -87.9828 144311.9844 -163436.9531)">
			<stop  offset="4.000000e-03" style="stop-color:#05ABD7"/>
			<stop  offset="1" style="stop-color:#00FB96"/>
		</linearGradient>
		<path id="Path_456" style="fill:url(#Path_456_00000009552822479701421170000004008133952679933375_);" d="M-1379.1-1018.5
			c0,0,2.8,23.7,18.7,40.1c15.9,16.4,37.8,30.5,72,23.8s50.4-34.1,55.5-48.8s4.8-24.3,4.4-29.4c-0.2-2.7-0.6-5.4-1.1-8.1
			c0,0-15.4,18.3-50.4,26c-35,7.7-56.1,5.5-70.4,1.7c-13-3.5-18.5-5.7-23-9.6c-2.2-1.9-4.3-3.9-6.3-6.1
			C-1379.9-1025.5-1379.7-1022-1379.1-1018.5z"/>
		<path id="Path_457" class="st6" d="M-1343.4-1089.6c0,0-17.1,13-11.9,25.1c5.3,12.1,25.2,4.8,36.3-7.5s3.6-27.5-5.2-25.5
			C-1333-1095.4-1340.2-1092.4-1343.4-1089.6z"/>
		<path id="Path_458" class="st7" d="M-1257.5-1054.7c0,0,4.4,32.7-7.9,51.9c-12.2,19.2-19.3,25.1-12.3,29.7s30-1.4,37.9-21.6
			c7.9-20.2,10-41.7,6.5-54.9c-3.5-13.2-13-16.7-18.5-14.3S-1257.8-1057.4-1257.5-1054.7z"/>
		<path id="Path_459" class="st7" d="M-1292.1-1131.6c0,0-0.9,21.2,6.1,32.4c7,11.2,15.7,14.5,18.3,13.9c2.6-0.6,4.5-3.3-0.7-7.4
			c-6.9-5.6-12-13.2-14.6-21.7c-2.8-9.7,0.1-21.8-2.2-24.6c-2.3-2.8-6.4-2.4-6.8,1.7C-1292.4-1135.4-1292.4-1133.5-1292.1-1131.6z"
			/>
		<path id="Path_460" class="st6" d="M-1319.2-1161.6c0,0-1.1,27.9-1.3,33.4s-2.3,12.5,2.4,12.1s6.4-3.7,5.5-12.1
			c-0.9-8.4-1.7-31.8-1.7-34.6c0-2.8-0.2-4.2-2.5-3.9C-1319.1-1166.4-1319.2-1161.6-1319.2-1161.6z"/>
		<path id="Path_461" class="st6" d="M-1313.7-1182.4c0,0,0.4,6.2-2.2,6.1c-2.6-0.1-3.6-5.1-2.9-7.6s2.7-1.4,3.9-0.9
			S-1313.7-1182.4-1313.7-1182.4z"/>
		<path id="Path_462" class="st7" d="M-1288.8-1184.2c-1.7,0.2-3,1.7-2.8,3.4c0,0.1,0,0.1,0,0.2c0.3,3.3-0.2,5.2,3.6,4.7
			c3.8-0.5,5.6-0.2,5.6-4.2s-2-4.7-3.6-4.5C-1287.8-1184.4-1288.8-1184.2-1288.8-1184.2z"/>
		<path id="Path_463" class="st8" d="M-1272.4-1194.4c-2.6-1.7-7.9-5.1-24.1-5.1c-16.2-0.1-22.2,0.9-25.9,1.9
			c-2.4,0.6-4.6,1.6-6.8,2.7c-2.3,1.5-2.2,2.5-1.3,3.8c0.9,1.3,6.3,6.2,27.2,6.6c20.9,0.4,26.4-3.8,29-4.7
			C-1271.7-1190.2-1269.8-1192.7-1272.4-1194.4z M-1287-1190.5c-1.4,0.5-4.4,2.7-15.6,2.5c-11.2-0.2-14.1-2.8-14.6-3.5
			s-0.5-1.2,0.7-2c1.2-0.6,2.4-1.1,3.6-1.5c1.9-0.5,5.2-1,13.9-1c8.7,0,11.5,1.8,12.9,2.8C-1284.6-1192.4-1285.6-1191-1287-1190.5
			L-1287-1190.5z"/>
	</g>
	<g id="Group_114" transform="translate(60.554 132.451)">
		
			<radialGradient id="Path_473_00000095338658665440115690000004519341032950328201_" cx="-1120.2446" cy="-1993.0592" r="0.5" gradientTransform="matrix(16.016 0 0 -16.016 16566.0352 -33112.3281)" gradientUnits="userSpaceOnUse">
			<stop  offset="0" style="stop-color:#000000"/>
			<stop  offset="1" style="stop-color:#00A9FF"/>
		</radialGradient>
		
			<path id="Path_473" style="opacity:0.2;fill:url(#Path_473_00000095338658665440115690000004519341032950328201_);enable-background:new    ;" d="
			M-1367.8-1191.5c0,4.4-3.6,8-8,8c-4.4,0-8-3.6-8-8c0-4.4,3.6-8,8-8c0,0,0,0,0,0C-1371.4-1199.5-1367.8-1195.9-1367.8-1191.5
			C-1367.8-1191.5-1367.8-1191.5-1367.8-1191.5z"/>
		<path id="Path_474" class="st10" d="M-1369.9-1195.6c0.7,1.4,0.6,2.9-0.2,3.4c-0.9,0.5-2.2-0.3-2.9-1.8s-0.6-2.9,0.2-3.4
			C-1371.9-1197.8-1370.6-1197-1369.9-1195.6z"/>
		<path id="Path_475" class="st10" d="M-1380.2-1188c0.3,0.6,0.3,1.2-0.1,1.4c-0.4,0.2-0.9-0.1-1.2-0.7c-0.3-0.6-0.3-1.2,0.1-1.4
			C-1381-1188.9-1380.5-1188.6-1380.2-1188z"/>
	</g>
	<g id="Group_115" transform="translate(90.759 116.761)">
		
			<radialGradient id="Path_476_00000076594546638067162480000004527328409833382054_" cx="-1159.6715" cy="-1978.8428" r="0.5" gradientTransform="matrix(14.774 0 0 -14.774 15756.6299 -30427.6465)" gradientUnits="userSpaceOnUse">
			<stop  offset="0" style="stop-color:#000000"/>
			<stop  offset="1" style="stop-color:#00A9FF"/>
		</radialGradient>
		
			<path id="Path_476" style="opacity:0.2;fill:url(#Path_476_00000076594546638067162480000004527328409833382054_);enable-background:new    ;" d="
			M-1369-1192.1c0,4.1-3.3,7.4-7.4,7.4c-4.1,0-7.4-3.3-7.4-7.4c0-4.1,3.3-7.4,7.4-7.4l0,0C-1372.3-1199.5-1369-1196.2-1369-1192.1
			C-1369-1192.1-1369-1192.1-1369-1192.1z"/>
		<path id="Path_477" class="st10" d="M-1371-1195.9c0.7,1.3,0.6,2.7-0.2,3.1c-0.8,0.4-2-0.3-2.7-1.6s-0.6-2.7,0.2-3.1
			C-1372.9-1197.9-1371.7-1197.2-1371-1195.9z"/>
		<path id="Path_478" class="st10" d="M-1380.5-1188.9c0.3,0.5,0.2,1.1-0.1,1.3c-0.3,0.2-0.8-0.1-1.1-0.7c-0.3-0.5-0.2-1.1,0.1-1.3
			S-1380.8-1189.5-1380.5-1188.9z"/>
	</g>
	<g id="Group_116" transform="translate(66.078 81.95)">
		
			<radialGradient id="Path_479_00000143590062860733688520000010000878257519468721_" cx="-1146.7167" cy="-1945.9054" r="0.5" gradientTransform="matrix(13.4481 0 0 -13.4481 14044.0391 -27361.4434)" gradientUnits="userSpaceOnUse">
			<stop  offset="0" style="stop-color:#000000"/>
			<stop  offset="1" style="stop-color:#00A9FF"/>
		</radialGradient>
		
			<path id="Path_479" style="opacity:0.2;fill:url(#Path_479_00000143590062860733688520000010000878257519468721_);enable-background:new    ;" d="
			M-1370.4-1192.8c0,3.7-3,6.7-6.7,6.7c-3.7,0-6.7-3-6.7-6.7c0-3.7,3-6.7,6.7-6.7l0,0C-1373.4-1199.5-1370.4-1196.5-1370.4-1192.8z"
			/>
		<path id="Path_480" class="st10" d="M-1372.1-1196.2c0.6,1.2,0.5,2.5-0.2,2.8s-1.8-0.3-2.4-1.5s-0.5-2.5,0.2-2.8
			C-1373.8-1198.1-1372.8-1197.4-1372.1-1196.2z"/>
		<path id="Path_481" class="st10" d="M-1380.8-1189.9c0.3,0.5,0.2,1-0.1,1.2c-0.3,0.2-0.7-0.1-1-0.6s-0.2-1,0.1-1.2
			C-1381.5-1190.6-1381-1190.4-1380.8-1189.9z"/>
	</g>
	<g id="Group_117" transform="translate(80.327 52.715)">
		
			<radialGradient id="Path_482_00000109012649221364485410000002822908986359451563_" cx="-1175.6172" cy="-1919.0116" r="0.5" gradientTransform="matrix(12.092 0 0 -12.092 12837.8574 -24398.2363)" gradientUnits="userSpaceOnUse">
			<stop  offset="0" style="stop-color:#000000"/>
			<stop  offset="1" style="stop-color:#00A9FF"/>
		</radialGradient>
		
			<path id="Path_482" style="opacity:0.2;fill:url(#Path_482_00000109012649221364485410000002822908986359451563_);enable-background:new    ;" d="
			M-1371.7-1193.5c0,3.3-2.7,6-6,6c-3.3,0-6-2.7-6-6c0-3.3,2.7-6,6-6l0,0C-1374.4-1199.5-1371.7-1196.8-1371.7-1193.5
			C-1371.7-1193.5-1371.7-1193.5-1371.7-1193.5z"/>
		<path id="Path_483" class="st10" d="M-1373.3-1196.6c0.6,1.1,0.5,2.2-0.2,2.6c-0.6,0.3-1.6-0.3-2.2-1.3s-0.5-2.2,0.2-2.6
			C-1374.9-1198.2-1373.9-1197.6-1373.3-1196.6z"/>
		<path id="Path_484" class="st10" d="M-1381.1-1190.8c0.2,0.4,0.2,0.9-0.1,1c-0.3,0.1-0.7-0.1-0.9-0.5s-0.2-0.9,0.1-1
			C-1381.7-1191.5-1381.3-1191.3-1381.1-1190.8z"/>
	</g>
	<path id="Path_485" class="st14" d="M-1300.7-1029.8c0.7,1.3,0.6,2.6-0.2,3c-0.8,0.4-1.9-0.3-2.6-1.6c-0.7-1.3-0.6-2.6,0.2-3
		C-1302.5-1031.8-1301.3-1031.1-1300.7-1029.8z"/>
	
		<radialGradient id="Path_486_00000031912843586559691040000000853005464150387388_" cx="-1138.6536" cy="-1873.1906" r="0.6475" gradientTransform="matrix(9.3128 0 0 -9.3236 9298.2266 -18493.4824)" gradientUnits="userSpaceOnUse">
		<stop  offset="1.385225e-07" style="stop-color:#002C43;stop-opacity:0.6"/>
		<stop  offset="1" style="stop-color:#00A9FF;stop-opacity:0.4"/>
	</radialGradient>
	
		<path id="Path_486" style="opacity:0.69;fill:url(#Path_486_00000031912843586559691040000000853005464150387388_);enable-background:new    ;" d="
		M-1307.1-1024.2c2.7,0.5,5.5,0.4,8.2-0.3c0.9-3.8-1.5-7.7-5.3-8.6s-7.7,1.5-8.6,5.3c-0.1,0.5-0.2,1.1-0.2,1.6c0,0.1,0,0.2,0,0.3
		C-1311.1-1025.1-1309.1-1024.5-1307.1-1024.2z"/>
	<path id="Path_487" class="st16" d="M-1304.3-1022.7c5.1,0,6.6-2.5,6.6-2.5s-3.2,1.8-9.3,1c-2.4-0.3-4.7-1-6.9-2.2
		C-1313.8-1026.3-1312.2-1022.7-1304.3-1022.7z"/>
	<path id="Path_488" class="st14" d="M-1328.3-1023c0.5,1,0.5,2.1-0.1,2.4c-0.6,0.3-1.5-0.2-2-1.2s-0.5-2.1,0.1-2.4
		C-1329.8-1024.5-1328.9-1024-1328.3-1023z"/>
	
		<radialGradient id="Path_489_00000108269638451522113170000015713717685685493689_" cx="-1107.3517" cy="-1881.4556" r="0.647" gradientTransform="matrix(11.1652 0 0 -7.3156 11031.4443 -14786.0156)" gradientUnits="userSpaceOnUse">
		<stop  offset="1.385225e-07" style="stop-color:#002C43;stop-opacity:0.6"/>
		<stop  offset="1" style="stop-color:#00A9FF;stop-opacity:0.4"/>
	</radialGradient>
	
		<path id="Path_489" style="opacity:0.69;fill:url(#Path_489_00000108269638451522113170000015713717685685493689_);enable-background:new    ;" d="
		M-1333.4-1018.6c2.1,0.4,4.3,0.3,6.4-0.2c0.7-3-1.2-6-4.2-6.7c-3-0.7-6,1.2-6.7,4.2c-0.1,0.4-0.1,0.9-0.1,1.3c0,0.1,0,0.2,0,0.2
		C-1336.5-1019.2-1334.9-1018.8-1333.4-1018.6z"/>
	<path id="Path_490" class="st16" d="M-1331.2-1017.4c4,0,5.2-1.9,5.2-1.9s-2.5,1.4-7.3,0.8c-1.9-0.2-3.7-0.8-5.4-1.7
		C-1338.6-1020.2-1337.3-1017.4-1331.2-1017.4z"/>
	<path id="Path_491" class="st14" d="M-1348.9-1032.6c0.5,1.1,0.3,2.3-0.4,2.6c-0.7,0.3-1.6-0.4-2.1-1.6c-0.5-1.1-0.3-2.3,0.4-2.6
		S-1349.4-1033.7-1348.9-1032.6z"/>
	
		<radialGradient id="Path_492_00000178194896285186350560000003777203283116192903_" cx="-1157.1735" cy="-1896.9921" r="0.627" gradientTransform="matrix(8.2715 0.7982 0.8001 -8.2729 9735.7109 -15802.0156)" gradientUnits="userSpaceOnUse">
		<stop  offset="1.385225e-07" style="stop-color:#002C43;stop-opacity:0.6"/>
		<stop  offset="1" style="stop-color:#00A9FF;stop-opacity:0.4"/>
	</radialGradient>
	
		<path id="Path_492" style="opacity:0.69;fill:url(#Path_492_00000178194896285186350560000003777203283116192903_);enable-background:new    ;" d="
		M-1354.9-1028.3c2.3,0.6,4.7,0.8,7.1,0.4c1.1-3.2-0.7-6.7-3.9-7.8s-6.7,0.7-7.8,3.9c-0.1,0.4-0.2,0.9-0.3,1.4c0,0.1,0,0.2,0,0.3
		C-1358.3-1029.4-1356.6-1028.7-1354.9-1028.3z"/>
	<path id="Path_493" class="st16" d="M-1352.6-1026.7c4.4,0.4,5.9-1.6,5.9-1.6s-2.9,1.3-8.1,0.1c-2.1-0.4-4-1.3-5.7-2.5
		C-1360.6-1030.7-1359.4-1027.4-1352.6-1026.7z"/>
	<path id="Path_494" class="st14" d="M-1284-1024.3c-0.6,1.1-0.5,2.3,0.2,2.6c0.7,0.3,1.7-0.3,2.2-1.4s0.5-2.3-0.2-2.6
		C-1282.4-1026-1283.4-1025.4-1284-1024.3z"/>
	
		<radialGradient id="Path_495_00000133488094584051318630000013769914159265007269_" cx="-731.825" cy="-1877.9065" r="0.647" gradientTransform="matrix(-8.0537 0 0 -8.0611 -7176.6812 -16161.1934)" gradientUnits="userSpaceOnUse">
		<stop  offset="1.385225e-07" style="stop-color:#002C43;stop-opacity:0.6"/>
		<stop  offset="1" style="stop-color:#00A9FF;stop-opacity:0.4"/>
	</radialGradient>
	
		<path id="Path_495" style="opacity:0.69;fill:url(#Path_495_00000133488094584051318630000013769914159265007269_);enable-background:new    ;" d="
		M-1278.4-1019.4c-2.4,0.4-4.8,0.3-7.1-0.3c-0.8-3.3,1.3-6.6,4.6-7.4c3.3-0.8,6.6,1.3,7.4,4.6c0.1,0.5,0.2,0.9,0.2,1.4
		c0,0.1,0,0.2,0,0.3C-1275-1020.2-1276.7-1019.7-1278.4-1019.4z"/>
	<path id="Path_496" class="st16" d="M-1280.8-1018.1c-4.4,0-5.7-2.1-5.7-2.1s2.7,1.5,8.1,0.9c2.1-0.2,4.1-0.9,5.9-1.9
		C-1272.6-1021.2-1274-1018.1-1280.8-1018.1z"/>
	<path id="Path_497" class="st14" d="M-1263.3-1029.6c-0.4,1.2-0.2,2.3,0.5,2.6s1.6-0.5,2-1.7c0.4-1.2,0.2-2.3-0.5-2.6
		S-1262.9-1030.8-1263.3-1029.6z"/>
	
		<radialGradient id="Path_498_00000035526495917924142280000004766335723658097308_" cx="-740.0846" cy="-1846.3979" r="0.614" gradientTransform="matrix(-8.3888 1.2038 -1.2037 -8.3927 -9696.8887 -15634.1299)" gradientUnits="userSpaceOnUse">
		<stop  offset="1.385225e-07" style="stop-color:#002C43;stop-opacity:0.6"/>
		<stop  offset="1" style="stop-color:#00A9FF;stop-opacity:0.4"/>
	</radialGradient>
	
		<path id="Path_498" style="opacity:0.69;fill:url(#Path_498_00000035526495917924142280000004766335723658097308_);enable-background:new    ;" d="
		M-1257.1-1025.6c-2.3,0.7-4.7,1-7.1,0.7c-1.2-3.2,0.3-6.7,3.5-8c3.2-1.2,6.7,0.3,8,3.5c0.2,0.4,0.3,0.9,0.4,1.4c0,0.1,0,0.2,0,0.3
		C-1253.8-1026.8-1255.4-1026.1-1257.1-1025.6z"/>
	<path id="Path_499" class="st16" d="M-1259.3-1023.9c-4.4,0.6-6-1.3-6-1.3s2.9,1.1,8.1-0.3c2-0.5,3.9-1.5,5.6-2.7
		C-1251.6-1028.2-1252.6-1024.9-1259.3-1023.9z"/>
</g>
<g>
	<path id="Path_540" class="st21" d="M436.1,115.6c1.2,0.5,0,16.7,0,16.7s1.4,4.4,11.3,4.6s13-4.6,13-4.6v-19L530,46.3
		c0,0-28.7,21.6-82.6,21.6s-80.6-21.6-80.6-21.6L436.1,115.6z"/>
	<path id="Path_541" class="st3" d="M366.8,46.3c0,0,24.3-19.6,84.8-18.6s79.3,18.6,79.3,18.6s-26.4,21.7-79.3,21.7
		S373,50.6,373,50.6L366.8,46.3z"/>
	<path id="Path_546" class="st22" d="M376,47.5c0,0,33.4-15.2,68-14.3s56,7.3,56,7.3s-34-4.3-59.2-3.5s-49.6,10.5-49.5,13
		s15.1,7.5,25.2,10.2s20.4,4.4,20.4,4.4s-28.1-2-44.3-8.2S376,47.5,376,47.5z"/>
</g>
<path id="Path_542_00000057866714864734683010000011566689138254845866_" class="st23" d="M555.9,1558.9l0.8,0
	c1.3-0.1,34.8,2.5,65.8-14.4c29.4-16,61.7-53.2,61.7-117.3c0-34.5-10.9-62-32.5-81.9c-39.2-36.1-99.6-33.1-106.6-32.6l-99.4-0.1
	v-0.2l-296.6-0.3l-1,0c-0.5,0-55.3,4-87.7-25.9c-16-14.8-24.1-35.9-24.1-62.8c0-41,16.2-74.2,49.5-92.7c24.5-13.6,50.3-13,53.4-13.2
	h251.1v0h174.2l0.8,0c1.3-0.1,33.3,1.3,64.3-15.6c29.4-16,63.2-51.9,63.2-116.1c0-34.5-10.9-62-32.5-81.9
	c-39.2-36.1-99.6-33.1-106.6-32.6l-99.4-0.1v-0.2L157.7,871l-1,0c-0.5,0-55.3,4-87.7-25.9c-16-14.8-24.1-35.9-24.1-62.8
	c0-41,15.2-75,48.5-93.4c24.5-13.6,51.4-12.2,54.4-12.4h251.1v0h165.6l0.8,0c1.3-0.1,32.9,2.2,63.9-14.7c29.4-16,63.6-52.8,63.6-117
	c0-34.5-10.9-62-32.5-81.9c-39.2-36.1-99.5-33.1-106.6-32.6l-99.4-0.1V430l-296.6-0.2l-1,0c-0.5,0-55.3,4-87.7-25.9
	C53.1,389.2,45,368,45,341.1c0-41,17.5-73.3,50.8-91.8c24.5-13.6,49.1-13.9,52.1-14.1h239.4l21.5-0.2c29.3-0.3,52.8-24.3,52.6-53.6
	c-0.1-15.2-0.2-28.3-0.2-30.5l-0.1-0.5c-0.2-1.4-1.1-2.6-2.5-3.6c-2.3-1.6-5.9-1.3-9.6-1.3c-3.8-0.1-7.8-0.5-10.3,1.2
	c-1.3,0.9-2.3,2.1-2.6,3.6l0,0l-0.4,22.3c-0.4,19.7-16,35.6-35.7,36.4l-12.3,0.5H147.4l-0.8,0c-21.9,0.7-43.2,6.5-62.5,16.8
	c-29.4,16-65,50.7-65,114.9c0,34.5,10.9,62,32.5,81.9c39.2,36.1,99.6,33.1,106.6,32.6l99.4,0.1v0.2l296.6,0.3l1,0
	c0.5,0,55.3-4,87.7,25.9c16,14.8,24.1,35.9,24.1,62.8c0,41-16.1,75.4-49.4,93.9c-24.5,13.6-50.5,11.7-53.5,12H313v0H147.4l-0.8,0
	c-1.3,0.1-33.8-1.7-64.8,15.2c-29.4,16-62.7,52.4-62.7,116.5c0,34.5,10.9,62,32.5,81.9c39.2,36.1,99.5,33.1,106.6,32.6l99.4,0.1v0.2
	l296.6,0.2l1,0c0.6,0,55.3-4,87.7,25.9c16,14.8,24.1,35.9,24.1,62.8c0,41-15.7,74.5-49,93c-24.5,13.6-50.9,12.6-53.9,12.9H357.9v0
	H138.8l-0.8,0c-1.3,0.1-32.7-1-63.8,15.9c-29.4,16-63.7,51.6-63.7,115.7c0,34.5,10.9,62,32.5,81.9c39.2,36.1,99.5,33.1,106.6,32.6
	l99.4,0.1v0.2l296.6,0.2l1,0c0.6,0,55.3-4,87.7,25.9c16,14.8,24.1,35.9,24.1,62.8c0,41-14.2,75.8-47.5,94.2
	c-24.5,13.6-52.4,11.4-55.4,11.7H284.9h0c-23.6,0-42.7,19.1-42.6,42.7l0.1,39.3c0,3.9,5.4,9.8,12.5,9.2c9.7-0.8,12-4.1,12.2-8.3
	l0.3-36.6c0.1-11.3,9.3-20.4,20.6-20.4L555.9,1558.9z"/>
</svg>
