<svg id="Group_266" data-name="Group 266" xmlns="http://www.w3.org/2000/svg" xmlns:xlink="http://www.w3.org/1999/xlink" width="124.885" height="107.454" viewBox="0 0 124.885 107.454">
  <defs>
    <radialGradient id="radial-gradient" cx="0.275" cy="0.849" r="1.23" gradientTransform="matrix(0.496, -0.067, 0.032, 0.951, 0.112, 0.06)" gradientUnits="objectBoundingBox">
      <stop offset="0.004" stop-color="#05abd7"/>
      <stop offset="1" stop-color="#00fb96"/>
    </radialGradient>
    <radialGradient id="radial-gradient-2" cx="0.5" cy="0.5" r="2.614" gradientTransform="translate(0.432) scale(0.136 1)" gradientUnits="objectBoundingBox">
      <stop offset="0.004" stop-color="#0587d7"/>
      <stop offset="1" stop-color="#00c396"/>
    </radialGradient>
    <linearGradient id="linear-gradient" x1="0" y1="0.5" x2="1" y2="0.5" gradientTransform="matrix(1, 0, 0, 1, 0, 0)" xlink:href="#radial-gradient"/>
  </defs>
  <path id="Path_937" data-name="Path 937" d="M2038,1996.769c-.053.1.106.213-2.323,1.336s-10.68,2.064-22.523,3.212-25.075,1.109-61.435.762c-35.545-.339-38.378-5.443-38.488-5.671a62.439,62.439,0,0,0,124.877.01A2.053,2.053,0,0,1,2038,1996.769Z" transform="translate(-1913.225 -1951.075)" fill-rule="evenodd" fill="url(#radial-gradient)"/>
  <ellipse id="Ellipse_21" data-name="Ellipse 21" cx="62.443" cy="8.522" rx="62.443" ry="8.522" transform="translate(0 37.42)" fill="url(#radial-gradient-2)"/>
  <ellipse id="Ellipse_22" data-name="Ellipse 22" cx="49.763" cy="4.748" rx="49.763" ry="4.748" transform="translate(12.68 39.952)" fill="#273349"/>
  <path id="Path_938" data-name="Path 938" d="M1913.213,1998.888s15.046,27.581,39.873,40.37,63.986,3.5,68.731.745c0,0-14.446,21.9-50.222,20.265C1937.161,2058.694,1913.213,2027.849,1913.213,1998.888Z" transform="translate(-1913.213 -1952.946)" fill="#333" fill-rule="evenodd" opacity="0.08"/>
  <path id="Path_939" data-name="Path 939" d="M2210.112,1819.372l-8.458-6.531a5.042,5.042,0,0,0-6.63,7.572,209.8,209.8,0,0,0-16.99,15.732,164.827,164.827,0,0,0-11.928,15.1,12.374,12.374,0,0,0-13.7,9.988c2.239,0,21.66,0,32.058-.794,3.381-4.281,7.46-9.536,9.245-12.194,4.1-6.1,9.47-17.333,10.935-20.447a5.041,5.041,0,0,0,5.467-8.43Z" transform="translate(-2093.673 -1811.788)" fill-rule="evenodd" fill="url(#linear-gradient)"/>
  <path id="Path_940" data-name="Path 940" d="M2158.324,1887.714c1.556-5.263,6.779-9.275,7.609-9.886a28.345,28.345,0,0,0,7.85,8.886c.339.255.664.488.979.7,1.112-.036,2.208-.075,3.275-.12a32.027,32.027,0,0,1-4.717-5.113l-.025-.033a5.633,5.633,0,0,1-.353-6.092,61.654,61.654,0,0,1,11-14.026c10.39-10.037,16.207-11.141,16.207-11.141l-5.184-3.982s-12.105,10.251-17.925,16.753a155.694,155.694,0,0,0-10.5,13.376l-.543.7c-.535-.031-5.146-.226-8.544,2.115a11.806,11.806,0,0,0-5.042,7.877C2153.15,1887.735,2155.341,1887.735,2158.324,1887.714Z" transform="translate(-2093.673 -1838.286)" fill="#3d3d3d" fill-rule="evenodd" opacity="0.31"/>
</svg>
