<?xml version="1.0" encoding="UTF-8" standalone="no"?>
<!-- Generator: Adobe Illustrator 25.4.1, SVG Export Plug-In . SVG Version: 6.00 Build 0)  -->

<svg
   xmlns:dc="http://purl.org/dc/elements/1.1/"
   xmlns:cc="http://creativecommons.org/ns#"
   xmlns:rdf="http://www.w3.org/1999/02/22-rdf-syntax-ns#"
   xmlns:svg="http://www.w3.org/2000/svg"
   xmlns="http://www.w3.org/2000/svg"
   xmlns:sodipodi="http://sodipodi.sourceforge.net/DTD/sodipodi-0.dtd"
   xmlns:inkscape="http://www.inkscape.org/namespaces/inkscape"
   version="1.1"
   id="Layer_1"
   x="0px"
   y="0px"
   viewBox="0 0 732 725.4"
   style="enable-background:new 0 0 732 725.4;"
   xml:space="preserve"
   sodipodi:docname="professor_download.svg"
   inkscape:version="0.92.5 (2060ec1f9f, 2020-04-08)"><metadata
   id="metadata408"><rdf:RDF><cc:Work
       rdf:about=""><dc:format>image/svg+xml</dc:format><dc:type
         rdf:resource="http://purl.org/dc/dcmitype/StillImage" /></cc:Work></rdf:RDF></metadata><defs
   id="defs406" /><sodipodi:namedview
   pagecolor="#ffffff"
   bordercolor="#666666"
   borderopacity="1"
   objecttolerance="10"
   gridtolerance="10"
   guidetolerance="10"
   inkscape:pageopacity="0"
   inkscape:pageshadow="2"
   inkscape:window-width="1848"
   inkscape:window-height="1016"
   id="namedview404"
   showgrid="false"
   inkscape:zoom="1.3013509"
   inkscape:cx="249.69264"
   inkscape:cy="422.65674"
   inkscape:window-x="72"
   inkscape:window-y="27"
   inkscape:window-maximized="1"
   inkscape:current-layer="Layer_1" />
<style
   type="text/css"
   id="style2">
	.st0{fill-rule:evenodd;clip-rule:evenodd;fill:#BBB1D6;}
	.st1{opacity:0.4;fill-rule:evenodd;clip-rule:evenodd;fill:#7C338B;}
	.st2{fill-rule:evenodd;clip-rule:evenodd;fill:url(#SVGID_1_);}
	.st3{opacity:0.4;fill-rule:evenodd;clip-rule:evenodd;fill:#7C0477;}
	.st4{fill-rule:evenodd;clip-rule:evenodd;fill:url(#SVGID_00000007413034198362044660000015365151483512763567_);}
	.st5{opacity:0.5;fill:url(#SVGID_00000086660813361901735430000004007813029526306472_);}
	.st6{opacity:0.7;fill:url(#SVGID_00000181784424726138834650000012490139084595086254_);}
	.st7{opacity:0.7;fill:url(#SVGID_00000114071160063904791920000007245876855263434139_);}
	.st8{fill:url(#SVGID_00000124141495009369338870000005996012275006147223_);}
	.st9{fill:url(#SVGID_00000158743393065453793130000000097509411716416943_);}
	.st10{opacity:0.5;fill:url(#SVGID_00000125602907535423856380000006664900455891982013_);}
	.st11{fill:url(#SVGID_00000052104667221211612810000000237366677007244426_);}
	.st12{fill:url(#SVGID_00000137126320241246210310000005936627078576536984_);}
	.st13{opacity:0.5;fill:url(#SVGID_00000179646985951017368410000003756039216361816988_);}
	.st14{fill:url(#SVGID_00000119829607745902926140000002706588802570969761_);}
	.st15{fill:#A42D6F;}
	.st16{fill-rule:evenodd;clip-rule:evenodd;fill:#C4BBFF;}
	.st17{fill:#333D6F;}
	.st18{fill:#633D6F;}
	.st19{opacity:0.48;fill-rule:evenodd;clip-rule:evenodd;fill:#2C0477;}
	.st20{fill-rule:evenodd;clip-rule:evenodd;fill:#168CE8;}
	.st21{fill-rule:evenodd;clip-rule:evenodd;fill:#9F90C4;}
	.st22{fill:#FF9D79;}
	.st23{fill-rule:evenodd;clip-rule:evenodd;fill:url(#SVGID_00000063592323247586194300000017417558907366837165_);}
	.st24{opacity:0.4;fill-rule:evenodd;clip-rule:evenodd;fill:#7C57AE;}
	.st25{opacity:0.18;fill-rule:evenodd;clip-rule:evenodd;fill:#353535;}
	.st26{fill-rule:evenodd;clip-rule:evenodd;fill:#D34C4C;}
	.st27{fill:#C7604F;}
	.st28{opacity:0.16;fill-rule:evenodd;clip-rule:evenodd;fill:#4C4C4B;}
	.st29{fill:url(#SVGID_00000163047306972718058450000013090993552288863121_);}
	.st30{fill:url(#SVGID_00000120517157068211610540000009869068822349905538_);}
	.st31{fill:url(#SVGID_00000139289930292122862370000003967375486184326587_);}
	.st32{opacity:0.58;fill:url(#SVGID_00000127753320307226850210000017383341059045456798_);}
	.st33{fill-rule:evenodd;clip-rule:evenodd;fill:#D46057;}
	.st34{fill-rule:evenodd;clip-rule:evenodd;fill:#AE4038;}
	.st35{fill:#E4DBFF;}
	.st36{fill:#D7494F;}
	.st37{fill:#4F4F4F;}
	.st38{fill:#6B2442;}
	.st39{fill:#DC5157;}
	.st40{fill-rule:evenodd;clip-rule:evenodd;fill:#892F38;}
	.st41{fill:#FFFFFF;}
	.st42{opacity:0.17;fill-rule:evenodd;clip-rule:evenodd;fill:#3A3A3A;}
	.st43{opacity:0.4;fill-rule:evenodd;clip-rule:evenodd;fill:#680463;}
	.st44{fill:#554066;}
	.st45{opacity:0.58;fill-rule:evenodd;clip-rule:evenodd;fill:url(#SVGID_00000093877784279303483030000010536483788032232084_);}
	.st46{opacity:0.58;fill-rule:evenodd;clip-rule:evenodd;fill:url(#SVGID_00000152248084643511333950000006528976022118458530_);}
	.st47{fill:url(#SVGID_00000000187986618478719410000013806718130813740707_);}
	.st48{fill:url(#SVGID_00000149351591155538023980000017792181818067753360_);}
	.st49{opacity:0.14;fill:#3A3A3A;}
	.st50{fill-rule:evenodd;clip-rule:evenodd;fill:url(#SVGID_00000103248312941906895860000000234795091343774128_);}
	.st51{fill-rule:evenodd;clip-rule:evenodd;fill:url(#SVGID_00000178923213626577622050000017960051837144496289_);}
	.st52{opacity:0.3;fill-rule:evenodd;clip-rule:evenodd;fill:url(#SVGID_00000129178030712934164650000013800462046568794811_);}
	.st53{fill-rule:evenodd;clip-rule:evenodd;fill:url(#SVGID_00000106107982951622718380000006648110748200139438_);}
	.st54{fill-rule:evenodd;clip-rule:evenodd;fill:#FF9AFE;}
	.st55{fill:#D0E2FE;}
	.st56{opacity:0.5;fill-rule:evenodd;clip-rule:evenodd;fill:#7E3781;}
	.st57{fill-rule:evenodd;clip-rule:evenodd;fill:#FFFFFF;}
	.st58{fill:url(#SVGID_00000115494297884623068930000007354338173025051800_);}
	.st59{fill:#D34C4C;}
	.st60{fill:url(#SVGID_00000130642144212914838250000002315053979807994288_);}
	.st61{opacity:0.2;fill:url(#Path_192_00000171709323159259596030000006337759964549320359_);enable-background:new    ;}
	.st62{fill:#EA0CDA;}
	.st63{opacity:0.2;fill:url(#Path_192-2_00000129164184971057461500000005738730541417177763_);enable-background:new    ;}
	.st64{opacity:0.2;fill:url(#Path_192-3_00000149346856096381607460000018061662319029181077_);enable-background:new    ;}
</style>
<g
   id="g375">
	<path
   class="st0"
   d="M433.7,524.3c40.5,27.9,130.3,28.4,190.5,22.4l0.1,0c25.7-2.6,46.1-6.3,54.8-9.6c29-11,39.3-25.2,39.3-25.2   l-75.9-225.3l-16.9-50.1l-24.9-2l-132.2-10.5c0,0,15.7,58.4,4.9,149.7C462.8,463,434.8,521.9,433.7,524.3   C433.7,524.2,433.7,524.3,433.7,524.3z"
   id="path4" />
	<path
   class="st1"
   d="M433.8,524.2c1.4-2.2,27.4-40,83.7-84.2c0,0,89.6,63.6,106.8,106.6l0.1,0c25.7-2.6,46.1-6.3,54.8-9.6   c29-11,39.3-25.2,39.3-25.2l-75.9-225.3L623.1,251l-22.4-16.6l-132.2-10.5c0,0,15.7,58.4,4.9,149.7   C462.8,463,434.8,521.9,433.8,524.2z"
   id="path6" />
	
		<linearGradient
   id="SVGID_1_"
   gradientUnits="userSpaceOnUse"
   x1="2183.1602"
   y1="336.3769"
   x2="2183.1602"
   y2="-34.6173"
   gradientTransform="matrix(-0.9769 0.2136 0.2136 0.9769 2552.7659 -283.4406)">
		<stop
   offset="0"
   style="stop-color:#E8E9FF"
   id="stop8" />
		<stop
   offset="1"
   style="stop-color:#FFFFFF"
   id="stop10" />
	</linearGradient>
	<path
   class="st2"
   d="M466.4,141.7c0,0-24.8-3.4-41.7,7.6l20.6,50.6c0,0,25.1,72.1,27.4,141.1c2.3,69-39,183.2-39,183.2   s40.9-91.7,45-182.7c3.7-81.3-5.9-195.8-5.9-195.8L466.4,141.7z"
   id="path13" />
	<path
   class="st3"
   d="M495.9,355.3c0,0,39.9-2.5,49.2-4.4c9.3-1.9,34.1-10.6,34.1-10.6S547,354,540.6,355.8   c-6.4,1.9-37.5,3.2-37.5,3.2L495.9,355.3z"
   id="path15" />
	<path
   class="st3"
   d="M501,328.3c0,0,12.9,8.3,18.6,10.2c5.7,1.9,20.4,2.8,20.4,2.8s-16,5.2-23.6,4.1C509,344.4,501,328.3,501,328.3   z"
   id="path17" />
	<g
   id="g96">
		
			<linearGradient
   id="SVGID_00000124869319393708195330000002007848003143352490_"
   gradientUnits="userSpaceOnUse"
   x1="648.468"
   y1="607.2684"
   x2="502.5953"
   y2="449.5682">
			<stop
   offset="0"
   style="stop-color:#1300CE"
   id="stop19" />
			<stop
   offset="1"
   style="stop-color:#168CE8"
   id="stop21" />
		</linearGradient>
		<path
   style="fill-rule:evenodd;clip-rule:evenodd;fill:url(#SVGID_00000124869319393708195330000002007848003143352490_);"
   d="    M690.2,675.3l-2.3,4l-10.6-9.1c-7.2,1.4-33.1,15.1-33.1,15.1l-5.7,10.6c-1.4-7.2-2.3-27.4-2.3-27.4l5.3-6.5    c-4-48.7-40.9-137.4-40.9-137.4c-1.8-2.5-3.3-4.9-4.5-7.1c-3.8-6.9-5.1-11.8-5.1-11.8c-11.4-25.8-14.6-39.1-20.2-69.3    c-1.6-8.6-2.5-13.9-2.5-13.9c-14.7,58.1-10.2,101-10.2,101c7.2,28.7,4.4,55,4.4,55c-0.8,30.9-28.5,80.8-28.2,82.5    c0.3,1.7,4.9,5.7,4.6,8.2c-0.3,2.5-6.3,18.7-6.3,18.7c-21.2-14.6-47.7-14.3-47.7-14.3l-3,3.7c0,0-1-14.3-0.8-21.2    c0.1-2.2,0.3-3.8,0.6-4.2c1.4-1.7,8.3,0,8.3,0c11.1-48,10.6-140.2,10.6-140.2c-2.6-8-2.9-13.4-2.9-13.4s-8.9-22.8,0-85.4    c7.5-53.1,7.1-66.6,10.7-76.9l8.1-0.4l108.4-4c0,0,12.6,15.6,20.6,79.6c8,64,0.5,87.1,0.5,87.1c8,8,20.8,26.6,20.8,26.6    c11.1,43.4,11.4,120.8,11.4,120.8l5.7,4.3c0.2,0.6,0.4,1.2,0.6,2C686.9,659.5,690.2,675.3,690.2,675.3z"
   id="path24" />
		
			<linearGradient
   id="SVGID_00000169545669424027436520000012322394495069419930_"
   gradientUnits="userSpaceOnUse"
   x1="585.6716"
   y1="695.9068"
   x2="585.6716"
   y2="331.6309">
			<stop
   offset="1.117320e-02"
   style="stop-color:#63517C"
   id="stop26" />
			<stop
   offset="1"
   style="stop-color:#8E72B3"
   id="stop28" />
		</linearGradient>
		<path
   style="opacity:0.5;fill:url(#SVGID_00000169545669424027436520000012322394495069419930_);"
   d="M690.2,675.3l-2.3,4    l-10.6-9.1c-7.2,1.4-33.1,15.1-33.1,15.1l-5.7,10.6c-1.4-7.2-2.3-27.4-2.3-27.4l5.3-6.5c-4-48.7-24.7-137.4-24.7-137.4    c-1.8-2.5-3.3-4.9-4.5-7.1c0,0,20.6-3.8,22.5-20.9c1.8-17.1-20-139.7-20-139.7c-10-6.7-31-2.5-31-2.5v0    c-8.1,9.7-12.9,21.7-13.7,34.3l-0.7,12c-9.3-5.9-5.5-19.1-5.5-19.1c-9.8,18.2-15.3,20.6-20.3,44c-9.2,43.4-3.1,90-3.1,90    c2.6,10.9,9.7,39.8,9.7,39.8c-0.8,30.9-16.3,104.2-16,105.9c0.3,1.7,4.9,5.7,4.6,8.2c-0.3,2.5-6.3,18.7-6.3,18.7    c-21.2-14.6-47.7-14.3-47.7-14.3l-3,3.7c0,0-1-14.3-0.8-21.2l41.4,11.1c-5.8-7.6-32.4-15.3-32.4-15.3    c11.1-48,10.6-140.2,10.6-140.2c-2.6-8-2.9-13.4-2.9-13.4s17.7,10.8,26.9-3.9c4.3-6.9,6.2-44.1,10.9-72.1    c5.3-31.4,21.9-56.3,21.9-56.3l-5.1-13.8l5.9,13.2l-18.8-26l1-2.8l84.3-4.8c0,0,13,17,21,81c8,64,0.3,85.6,0.3,85.6    c8,8,20.8,26.6,20.8,26.6c11.1,43.4,11.4,120.8,11.4,120.8l-30.7,17.7c16.2-7.4,29.8-10.3,37.1-11.5    C686.9,659.5,690.2,675.3,690.2,675.3z"
   id="path31" />
		
			<linearGradient
   id="SVGID_00000088123356197951693710000000844084419157413302_"
   gradientUnits="userSpaceOnUse"
   x1="626.6021"
   y1="527.369"
   x2="626.6021"
   y2="508.8591">
			<stop
   offset="1.117320e-02"
   style="stop-color:#63517C"
   id="stop33" />
			<stop
   offset="1"
   style="stop-color:#8E72B3"
   id="stop35" />
		</linearGradient>
		<path
   style="opacity:0.7;fill:url(#SVGID_00000088123356197951693710000000844084419157413302_);"
   d="M612.4,517.5l5.1,9.9    c0,0,18.8-5.8,23.3-18.5C640.8,508.9,620.8,518.1,612.4,517.5z"
   id="path38" />
		
			<linearGradient
   id="SVGID_00000049920712646057614130000007688195942362826917_"
   gradientUnits="userSpaceOnUse"
   x1="511.1692"
   y1="514.8558"
   x2="511.1692"
   y2="498.293">
			<stop
   offset="1.117320e-02"
   style="stop-color:#63517C"
   id="stop40" />
			<stop
   offset="1"
   style="stop-color:#8E72B3"
   id="stop42" />
		</linearGradient>
		<polygon
   style="opacity:0.7;fill:url(#SVGID_00000049920712646057614130000007688195942362826917_);"
   points="497.7,498.3     500.6,511.7 511.7,514.9 524.6,511.4   "
   id="polygon45" />
		
			<linearGradient
   id="SVGID_00000052794651505027224940000010388311749000634770_"
   gradientUnits="userSpaceOnUse"
   x1="480.8083"
   y1="717.61"
   x2="480.8083"
   y2="673.1038">
			<stop
   offset="0"
   style="stop-color:#7C529D"
   id="stop47" />
			<stop
   offset="1"
   style="stop-color:#616DC0"
   id="stop49" />
		</linearGradient>
		<path
   style="fill:url(#SVGID_00000052794651505027224940000010388311749000634770_);"
   d="M535.1,713.7c0,1.6-0.1,2.6-0.1,2.6    l-108.5,1.3c0,0,1.9-12,4.6-13.7c2.7-1.7,17.3-3,31.4-10.7c2.9-1.6,5.6-3.3,8-5.1c0,0,0,0,0,0c0.1-0.1,0.7-0.5,1.5-1.1    c8.3-6.6,13-13.3,13-13.3c24.4-3.8,47.7,14.3,47.7,14.3C535.3,696.5,535.3,708.5,535.1,713.7z"
   id="path52" />
		
			<linearGradient
   id="SVGID_00000013893673712138689520000002950224870575379387_"
   gradientUnits="userSpaceOnUse"
   x1="426.4558"
   y1="712.1768"
   x2="535.1122"
   y2="712.1768">
			<stop
   offset="2.157410e-02"
   style="stop-color:#FF8359"
   id="stop54" />
			<stop
   offset="1"
   style="stop-color:#FF8B7C"
   id="stop56" />
		</linearGradient>
		<path
   style="fill:url(#SVGID_00000013893673712138689520000002950224870575379387_);"
   d="M427.6,712c0,0,38.6,1.7,49.3,1.7    c10.7,0.1,25.9-5.3,30.5-5.8c4.6-0.6,27.7-1.2,27.7-1.2l-0.1,9.5l-108.5,1.3L427.6,712z"
   id="path59" />
		
			<linearGradient
   id="SVGID_00000091715084567243542390000018077064327393991570_"
   gradientUnits="userSpaceOnUse"
   x1="443.8264"
   y1="693.4044"
   x2="535.1533"
   y2="693.4044">
			<stop
   offset="1.117320e-02"
   style="stop-color:#BE6888"
   id="stop61" />
			<stop
   offset="1"
   style="stop-color:#8EA6BA"
   id="stop63" />
		</linearGradient>
		<path
   style="opacity:0.5;fill:url(#SVGID_00000091715084567243542390000018077064327393991570_);"
   d="M535.1,713.7    c-1-0.2-17.5-4.1-23.6-4.2c-6.3-0.2-25.1,4.4-32.6,4.3c-6.6-0.1-30.1-0.9-35.1-1.1c4.9,0.2,27.7,0.8,35.4-0.5    c8.6-1.4,26-6.3,25.4-10.9c-0.5-4.6-12.8-20.1-18.3-20.8c-4.2-0.5-11.3,4.2-14.4,6.5c8.3-6.6,13-13.3,13-13.3    c24.4-3.8,47.7,14.3,47.7,14.3C535.3,696.5,535.3,708.5,535.1,713.7z"
   id="path66" />
		
			<linearGradient
   id="SVGID_00000060730961932475223970000015711982303908739209_"
   gradientUnits="userSpaceOnUse"
   x1="637.707"
   y1="655.0117"
   x2="637.707"
   y2="610.5055"
   gradientTransform="matrix(0.9974 -7.229155e-02 7.229155e-02 0.9974 -43.5084 101.0506)">
			<stop
   offset="0"
   style="stop-color:#7C529D"
   id="stop68" />
			<stop
   offset="1"
   style="stop-color:#616DC0"
   id="stop70" />
		</linearGradient>
		<path
   style="fill:url(#SVGID_00000060730961932475223970000015711982303908739209_);"
   d="M693.7,700.4c0.1,1.6,0.1,2.6,0.1,2.6    l-108.1,9.2c0,0,1-12.1,3.6-14c2.5-1.9,17.1-4.3,30.6-12.9c2.8-1.8,5.3-3.7,7.6-5.7c0,0,0,0,0,0c0.1-0.1,0.6-0.5,1.4-1.2    c7.8-7.2,12-14.2,12-14.2c24-5.6,48.6,10.8,48.6,10.8C692.7,683.2,693.5,695.2,693.7,700.4z"
   id="path73" />
		
			<linearGradient
   id="SVGID_00000048465663035808963540000000698437653430356353_"
   gradientUnits="userSpaceOnUse"
   x1="583.3546"
   y1="649.5785"
   x2="692.0109"
   y2="649.5785"
   gradientTransform="matrix(0.9974 -7.229155e-02 7.229155e-02 0.9974 -43.5084 101.0506)">
			<stop
   offset="2.157410e-02"
   style="stop-color:#FF8359"
   id="stop75" />
			<stop
   offset="1"
   style="stop-color:#FF8B7C"
   id="stop77" />
		</linearGradient>
		<path
   style="fill:url(#SVGID_00000048465663035808963540000000698437653430356353_);"
   d="M586.4,706.5c0,0,38.7-1.1,49.3-1.8    c10.6-0.7,25.4-7.1,30-8c4.5-0.9,27.6-3.2,27.6-3.2l0.5,9.5l-108.1,9.2L586.4,706.5z"
   id="path80" />
		
			<linearGradient
   id="SVGID_00000093889266979662188020000016912535346512417682_"
   gradientUnits="userSpaceOnUse"
   x1="600.7251"
   y1="630.806"
   x2="692.052"
   y2="630.806"
   gradientTransform="matrix(0.9974 -7.229155e-02 7.229155e-02 0.9974 -43.5084 101.0506)">
			<stop
   offset="1.117320e-02"
   style="stop-color:#BE6888"
   id="stop82" />
			<stop
   offset="1"
   style="stop-color:#8EA6BA"
   id="stop84" />
		</linearGradient>
		<path
   style="opacity:0.5;fill:url(#SVGID_00000093889266979662188020000016912535346512417682_);"
   d="M693.7,700.4    c-1-0.2-17.8-2.8-23.9-2.5c-6.3,0.2-24.7,6.2-32.2,6.6c-6.6,0.4-30.1,1.3-35.1,1.5c4.9-0.2,27.7-1.2,35.2-3    c8.5-2.1,25.5-8.1,24.6-12.7c-0.9-4.5-14.3-19.1-19.7-19.5c-4.2-0.2-11,5.1-13.9,7.5c7.8-7.2,12-14.2,12-14.2    c24-5.6,48.6,10.8,48.6,10.8C692.7,683.2,693.5,695.2,693.7,700.4z"
   id="path87" />
		
			<linearGradient
   id="SVGID_00000001644275313310580020000015589259099762098854_"
   gradientUnits="userSpaceOnUse"
   x1="565.0474"
   y1="455.4073"
   x2="565.0474"
   y2="381.4583">
			<stop
   offset="0"
   style="stop-color:#8E81F4"
   id="stop89" />
			<stop
   offset="0.9888"
   style="stop-color:#BE6888"
   id="stop91" />
		</linearGradient>
		<path
   style="fill:url(#SVGID_00000001644275313310580020000015589259099762098854_);"
   d="M561.6,455.4c0.1-0.6,6.5-25.9,1.3-39.1    c-7.4-18.8,1.1-34.8,1.1-34.8s-1.4,9.6,3.6,15.8c1.9,2.4,3,5.4,2.7,8.4l-1.9,16.9L561.6,455.4z"
   id="path94" />
	</g>
	<path
   class="st15"
   d="M501.6,392.9c-0.6-0.5-5.6-4.1-7.2-7c0,0,27.3-13.7,48.4-18.6c21.1-4.9,90.4-15.7,90.4-15.7   s-2.1-19.3-8.7-63.4C617.9,244,545.4,115,545.4,115s-58.5,33.8-72.5,30.8c0,0-1.6,25.5-1.3,44.5c0,2.7,0.1,5.3,0.3,7.7   c1.1,18.9,4.4,88,4.4,88l18.6,22.7l4.1,27.9l-3,18.7l7.2,3.7c0,0-9.6,17.2-11.4,27.9L501.6,392.9z"
   id="path98" />
	<path
   class="st16"
   d="M470.4,144.2l-16.9,34l13.1,12l-8.2,37.2l20.7,104.7c0,0,0.5-111-6.3-186.3L470.4,144.2z"
   id="path100" />
	<polygon
   class="st17"
   points="483.8,191.6 486.5,194.1 484.7,194.4 484.1,201 486.8,204.5 486.8,205.5 483.4,201.5  "
   id="polygon102" />
	<polygon
   class="st18"
   points="549.8,100.8 552.9,105.5 553.1,111 572.4,139.7 552.1,111.2  "
   id="polygon104" />
	<path
   class="st19"
   d="M474.6,161.1l-31.8-18.5c0,0,13.5-3,23.6-0.8l6.4,4L474.6,161.1z"
   id="path106" />
	<path
   class="st20"
   d="M541.6,119c0,0,7.2,59.6,18.4,119.2s43.7,118.1,43.7,118.1l-9.6,1.6c0,0-30.2-60.7-41.8-127.2   s-15.9-97.9-15.5-99.2c0.4-1.3,0.7-4.8,0.7-4.8L541.6,119z"
   id="path108" />
	<path
   class="st20"
   d="M483.6,167.2c0,0,10.1,72.6,17.4,114.4c7.3,41.8,24.3,90.9,24.3,90.9l-7.6,2.9c0,0-21.9-77.6-30.7-137.3   c-8.6-58.3-9-75.3-9-75.3L483.6,167.2z"
   id="path110" />
	<g
   id="g133">
		<path
   class="st21"
   d="M449.3,312.8c0,0,27.5-28.2,21.3-63.4l-2.1-4.7C468.5,244.7,443.3,273.7,449.3,312.8z"
   id="path112" />
		<path
   class="st22"
   d="M468.4,257.6c1.9-1.5,10-11,14.7-17.9c4.7-6.9,10.7-18.5,14.1-20.2c3.4-1.7,16,2.3,21.3,6    c5.2,3.7,7.4,7.7,7.4,7.7l-5.3,3.9l-11.6-5.3c0,0,7.2,10.3,8.3,14.3l-2.8,3.5l0.1,2l-6.2,5.8l-2.7,1l-5.8,6.2c0,0-5.2,1.9-8.8,0.6    c0,0-1.2,7-5.6,10.8c0,0-7,3-18.4-3.4l-62.2,35.6c0,0-13.6-18.4-2.9-35C401.9,273.2,466.4,259.2,468.4,257.6z"
   id="path114" />
		
			<linearGradient
   id="SVGID_00000138572434857118338550000011356241131026743186_"
   gradientUnits="userSpaceOnUse"
   x1="801.7128"
   y1="219.521"
   x2="801.7128"
   y2="54.2236"
   gradientTransform="matrix(0.9888 -0.1493 0.1493 0.9888 -407.1663 220.1802)">
			<stop
   offset="0"
   style="stop-color:#FBFBFF"
   id="stop116" />
			<stop
   offset="1"
   style="stop-color:#FFFFFF"
   id="stop118" />
		</linearGradient>
		<path
   style="fill-rule:evenodd;clip-rule:evenodd;fill:url(#SVGID_00000138572434857118338550000011356241131026743186_);"
   d="    M424.6,149.4l-9,22.3c0,0-17,31.8-30.5,51.4s-18.3,24.6-22.5,31.3c-4.2,6.7-9.6,45.3-8.9,49.5c0,0,12.8,5.7,22.7,6.9    c9.9,1.2,57-2.8,57-2.8l16,4.7c0,0,1.4-42.3,18.7-63l2.6-0.4l-2.1-4.7c0,0-5.5,2-14.3,4c-8.7,1.9-26.1,1.2-26.1,1.2    s28.1-11.7,24-27.2C442.7,187.2,424.6,149.4,424.6,149.4z"
   id="path121" />
		<path
   class="st1"
   d="M379,254.7l10.6-4.7c1.2-0.5,2.5-0.6,3.7-0.2l15.2,5c0.5,0.2,1.1,0.3,1.6,0.3l31.8-5.1l-13.6,0    c0.7,0.5,0.5-1.2,1.7-4c0,0,4-9.1,3.9-10.1l3.1-9.4c0,0-5,8.9-14.1,21c-0.7,0.9-1.7,1.6-2.8,1.9l-7,1.9c-1.9,0.5-3.9-0.1-5.2-1.5    l-4.1-2.9H401c0.1,3.2-2.8,1-6,0.6l-4.4-0.6c-1.5-0.2-3,0.3-4.1,1.3L379,254.7z"
   id="path123" />
		<path
   class="st24"
   d="M465.9,247.3l-20.8,21.5c0,0-39.1,19.6-66.1,28.9L465.9,247.3z"
   id="path125" />
		<polygon
   class="st24"
   points="402.5,307.8 438.6,297.6 449.6,310.3 433.6,305.6   "
   id="polygon127" />
		<path
   class="st25"
   d="M462.1,259.8c0,0-0.8,9,0.7,15.2l-7.7,4.4c0,0,1.6-12.5,5.8-19.1L462.1,259.8z"
   id="path129" />
		<polygon
   class="st26"
   points="491,265.2 492.9,260.6 496.5,262.6 487.8,257.2 491.5,259.8   "
   id="polygon131" />
	</g>
	<path
   class="st3"
   d="M501.6,392.9c-0.6-0.5-5.6-4.1-7.2-7c0,0,27.3-13.7,48.4-18.6c21.1-4.9,90.4-15.7,90.4-15.7   s-2.1-19.3-8.7-63.4C617.9,244,545.4,115,545.4,115s-58.5,33.8-72.5,30.8c0,0-1.6,25.5-1.3,44.5l5.1,7.6l1.4-35.1   c0,0,45.5,24.1,63.2,33c17.6,8.9,36.6,12,36.6,12l33,77.3l5.9,27.2c0,0-19.7,29.1-23.3,32.2c-3.6,3.1-42.9,12.1-42.9,12.1l46.5-7.6   l24.5,1.7l-96.9,17.3l3.7,0.4l-36.8,18.4L501.6,392.9z"
   id="path135" />
	<polygon
   class="st3"
   points="593.5,283.4 606.1,316.4 510.8,319.6 506.1,312.4  "
   id="polygon137" />
	<g
   id="g265">
		<path
   class="st27"
   d="M530.2,121.5c0,0-9.4,32.5-14.4,35.1c-4.9,2.6-14.6-10.8-14.6-10.8L530.2,121.5z"
   id="path139" />
		<path
   class="st22"
   d="M433.8,70.4c1,4.4,4.6,10.4,4.6,10.4s4.4,8.7,6,13.8c0.5,1.5,1,3.8,1.5,6.5c1.3,6.3,2.7,14.3,4.4,17.4    c2.4,4.3,22,14.8,28.5,20.8c6.5,5.9,9,8.2,10.4,8.7c1.1,0.4,7.4-0.1,14.5-3.1c0,0,0.2-0.1,0.3-0.2c1.7-0.7,3.4-1.5,5-2.5    c9-5.3,29.4-29.3,30.8-34.9c0.7-2.8-1.8-12.9-4.5-22.1c-2.6-8.9-5.4-17-5.4-17s-4.7-24.2-10.3-33.7c-4-6.9-22.1-14.4-37.6-16.1    c-4.8-0.5-9.2-0.5-13,0.3c-0.8,0.2-1.6,0.4-2.4,0.6c-15.3,4.9-29,18.4-32.2,30.1C434.6,49.4,432.8,65.9,433.8,70.4z"
   id="path141" />
		<path
   class="st28"
   d="M433.8,70.4c1,4.4,4.6,10.4,4.6,10.4s4.4,8.7,6,13.8c0.5,1.5,1,3.8,1.5,6.5c0,0,4.4,5.2,10.6,4.6    c6.2-0.7,9.4-3,10.4-8c0,0-7.4-13.3-15.9-21.2l-12.9-3.3c0,0-1.1-12.8,3.9-17.1l13-0.7c0,0,4.3-15.1,17.9-19.2    c13.5-4.1,20.6-2.1,23.2,0c2.6,2.1,3.6,17.9,3.6,17.9s-22.5,3.2-33,8.9c0,0,7.3,24.3,16.2,31.7c0,0,11.7-0.5,17.8-3.4    c6.1-2.9,11.8-11.8,11.8-11.8s2.5,8.5,2.5,10.9c0,2.4-2.2,6.3-2.9,9.1c-0.6,2.8-1.2,35.5-3.1,39.6c-1.5,3.3-4.2,5.1-5.2,5.6    c1.7-0.7,3.4-1.5,5-2.5c9-5.3,29.4-29.3,30.8-34.9c0.7-2.8-1.8-12.9-4.5-22.1l0,0c0,0-3.4-1.5-5.9-12.3    c-2.5-10.8-7.5-32.4-7.5-32.4l-17.2-14.1l-22.6-7.9l-4.3-1.5l-8.7,1.8c-0.8,0.2-1.6,0.4-2.4,0.6c-15.3,4.9-29,18.4-32.2,30.1    C434.6,49.4,432.8,65.9,433.8,70.4z"
   id="path143" />
		
			<linearGradient
   id="SVGID_00000102532141188702882400000010070660536878585009_"
   gradientUnits="userSpaceOnUse"
   x1="520.5273"
   y1="-124.356"
   x2="624.9142"
   y2="-124.356"
   gradientTransform="matrix(0.9802 -0.1981 0.1981 0.9802 -56.2121 276.2217)">
			<stop
   offset="0"
   style="stop-color:#FBFBFF"
   id="stop145" />
			<stop
   offset="1"
   style="stop-color:#FFFFFF"
   id="stop147" />
		</linearGradient>
		<path
   style="fill:url(#SVGID_00000102532141188702882400000010070660536878585009_);"
   d="M434.6,51.2    C434.6,51.2,434.2,51.8,434.6,51.2L434.6,51.2c0,0,9.8,3.5,20.6,4.1c0,0,0,0,0-0.1c0.3-1.8,5-27.8,11.2-32    c6.2-4.2,19.2-0.9,20.2-0.6c-0.1,0-0.3,0-0.5,0c0,0-0.1,0-0.1,0c-0.3,0-0.7,0-1.2-0.1c-0.5,0-1,0-1.6-0.1c-0.5,0-1.1,0-1.7,0    c-1.3,0-2.9,0.1-4.4,0.2c-0.5,0.1-1,0.1-1.5,0.2c0,0,0,0,0,0c-0.8,0.1-1.6,0.3-2.2,0.5c-3.3,1.1-8.4,6.5-10.4,8.8c0,0,0,0.1,0,0.1    c-0.5,0.6-0.8,0.9-0.8,0.9s0.2-0.1,0.4-0.2c0.6-0.2,1.7-0.6,3.3-1.1c0,0,0.6-0.2,1.6-0.5c0.7-0.2,1.4-0.4,2.1-0.7    c0.1,0,0.2,0,0.2-0.1c0.7-0.2,1.4-0.4,2.1-0.6c0.8-0.2,1.6-0.5,2.5-0.7c5.7-1.6,12.1-3,15.7-2.7c7.7,0.6,16,3.7,18,7.3    c2.1,3.6,4.8,13.9,4.8,13.9s11,9.5,15.5,21.9c0.4,1,0.7,2.1,1,3.2c0,0,0-1.1,0-2.8c0-3.2,0-8.3,0.2-9.7c0,0,0.5-21.2,0.6-29    c0,0-5.5-7.1-17.9-7.2c0,0,10.9-2.7,18.2,1.4c0,0-4.4-4.8-10.2-6.1c-5.8-1.3-11,1.9-15.7,0.7C499.9,19,498.6,0,468.9,1.4    c0,0,20.6,4.4,27.8,15.1c-0.5-0.2-4.6-2.6-10-5.3c-12.7-6.4-27.6-6.7-40.5-0.9l0,0c-2.7,1.2-5.3,2.6-7.6,4.4    c-4.8,3.7-11.4,10.5-11.7,21.2l4.5-5.1l-2.1,6.4c0,0,0,0,0,0l-1.3,3.9C427.9,41,426.2,47.7,434.6,51.2z"
   id="path150" />
		
			<linearGradient
   id="SVGID_00000116954231001902909270000012913664685053342107_"
   gradientUnits="userSpaceOnUse"
   x1="520.7573"
   y1="-99.9957"
   x2="536.8713"
   y2="-99.9957"
   gradientTransform="matrix(0.9802 -0.1981 0.1981 0.9802 -56.2121 276.2217)">
			<stop
   offset="0"
   style="stop-color:#FBFBFF"
   id="stop152" />
			<stop
   offset="1"
   style="stop-color:#FFFFFF"
   id="stop154" />
		</linearGradient>
		<path
   style="fill:url(#SVGID_00000116954231001902909270000012913664685053342107_);"
   d="M451.1,76.5c0,0-7-7.6-17.3-6.1    c0,0-1,2.6,3.2,7.9c0,0,0.9-1.2,4-2.2C444.2,75.2,451.1,76.5,451.1,76.5z"
   id="path157" />
		
			<linearGradient
   id="SVGID_00000107553835705230405250000001343976363562871218_"
   gradientUnits="userSpaceOnUse"
   x1="555.0446"
   y1="-105.897"
   x2="595.9814"
   y2="-105.897"
   gradientTransform="matrix(0.9802 -0.1981 0.1981 0.9802 -56.2121 276.2217)">
			<stop
   offset="0"
   style="stop-color:#FBFBFF"
   id="stop159" />
			<stop
   offset="1"
   style="stop-color:#FFFFFF"
   id="stop161" />
		</linearGradient>
		<path
   style="fill:url(#SVGID_00000107553835705230405250000001343976363562871218_);"
   d="M466.9,62.9c0,0,1.8,2.6,5.9,3.3    c0,0,11.1-7.4,19.8-9.6c6.2-1.5,14.9,0.9,14.9,0.9s-9.3-4.5-12.8-5C489.8,51.7,477.9,57.1,466.9,62.9z"
   id="path164" />
		
			<linearGradient
   id="SVGID_00000142137557271585644910000006297582024730547368_"
   gradientUnits="userSpaceOnUse"
   x1="2129.1621"
   y1="-62.6931"
   x2="2156.3572"
   y2="-62.6931"
   gradientTransform="matrix(-0.9802 0.1981 0.1981 0.9802 2590.6558 -258.6871)">
			<stop
   offset="0"
   style="stop-color:#FFEADB"
   id="stop166" />
			<stop
   offset="0.9944"
   style="stop-color:#C245BA"
   id="stop168" />
		</linearGradient>
		<path
   style="opacity:0.58;fill:url(#SVGID_00000142137557271585644910000006297582024730547368_);"
   d="M487.1,100.2    c0,0,4.6,3.5,4.7,4.2c0.1,0.7-3.5,4.9-3.5,4.9s-0.8-1-1.3-1c-0.5,0-2.5,3.2-2.6,4.2c0,0-3.8,2.5-6.9,2.9c-3.1,0.4-10.3-1.2-11.7-3    c-1.4-1.8,2.8-9.1,2.8-9.1s-0.7-4.1-2.4-7.6c0,0,3.1,4.8,3.3,7.9c0,0-3,3.6-2.7,6.7c0,0,7.6-1.2,13.2-3.1c5.6-2,8.6-4.2,8.6-4.2    L487.1,100.2z"
   id="path171" />
		<path
   class="st33"
   d="M487.1,100.2c0,0,3.8,3.5,4.1,4.3c0.4,0.8-2.2,4-2.2,4s3.1-2.5,3.4-4.4C492.6,102.8,487.1,100.2,487.1,100.2    z"
   id="path173" />
		<path
   class="st34"
   d="M487.7,108.6c0,0-2.3,0.9-3,2.9C484.8,111.6,486,104.8,487.7,108.6z"
   id="path175" />
		<path
   class="st35"
   d="M506.5,76.6c0,0-4.4,5.8-9.3,8.2c-4.9,2.5-12.8,1.5-12.8,1.5l-0.2-9.4C484.1,76.9,496.6,73.7,506.5,76.6z"
   id="path177" />
		<path
   class="st35"
   d="M462.9,92.6c0,0-3.5,5.9-7.1,6.6c-2.2,0.4-6.8-0.6-6.8-0.6l-3.7-4.7C445.3,93.9,451.5,88.4,462.9,92.6z"
   id="path179" />
		<path
   class="st36"
   d="M445.3,93.9l-1.5-7.5c0,0,10.2-3.5,19.1,6.2C462.9,92.6,450.9,89.3,445.3,93.9z"
   id="path181" />
		<path
   class="st36"
   d="M484.3,86.3c0,0-2.3-9.8-0.4-14.3c0,0,10.7-2.5,22.6,4.6c0,0-12.5-1.2-22.2,2.5L484.3,86.3z"
   id="path183" />
		<path
   class="st37"
   d="M498.3,84.2c0,0-13.9-7.6-12.9,2.2C485.3,86.4,493.8,87.7,498.3,84.2z"
   id="path185" />
		<path
   class="st37"
   d="M458.3,97.9c0,0-7.6-5.5-10.2-0.5l0.9,1.1C448.9,98.6,455.6,100.5,458.3,97.9z"
   id="path187" />
		<path
   class="st37"
   d="M462.9,92.6c0,0-9-2.3-17.2,1.8l-3.2-0.1C442.5,94.2,449.8,88.9,462.9,92.6z"
   id="path189" />
		<path
   class="st37"
   d="M506.5,76.6c0,0-13.6-0.9-21.3,2.8c0,0-1,1.3-0.8,6.9c0,0-2.4-5-2-7.7C482.3,78.6,491,74.8,506.5,76.6z"
   id="path191" />
		<polygon
   class="st38"
   points="446.2,94.1 447.5,96.7 445.4,94.3   "
   id="polygon193" />
		<path
   class="st39"
   d="M485.3,86.4c0,0,3.5,3.4,10.4,4.7c0,0-8.9-1.2-11.4-4.8L485.3,86.4z"
   id="path195" />
		<path
   class="st39"
   d="M462.9,92.6c0,0,1.9,5.8,0.9,10.3c0,0,0.2-4.9-1.4-10.4L462.9,92.6z"
   id="path197" />
		<path
   class="st40"
   d="M501.2,121c0,0-4.5,1.6-9.3,2.9c-3.9,1.1-8.1,1.6-12.1,1.1c-7.3-0.9-7.2,2.3-7.2,2.3s4.4,3.7,14.8,1.3    C498.2,125.3,501.2,121,501.2,121z"
   id="path199" />
		<path
   class="st36"
   d="M503.1,80.4c0,0-4.6,4.8-7.9,6.5c-2.4,1.2-8.6-0.4-8.6-0.4S494.5,88.8,503.1,80.4z"
   id="path201" />
		<path
   class="st36"
   d="M461.6,94.4c0,0-2.6,4.1-5.2,5.2c-1.9,0.8-6.4-0.8-6.4-0.8s4,1,6.4,0C458.9,97.8,461.6,94.4,461.6,94.4z"
   id="path203" />
		<path
   class="st41"
   d="M494.1,82.5c0.1,0.6,0.7,0.9,1.2,0.8c0.6-0.1,0.9-0.7,0.8-1.2c-0.1-0.6-0.7-0.9-1.2-0.8    C494.3,81.4,493.9,81.9,494.1,82.5z"
   id="path205" />
		<path
   class="st41"
   d="M454,95.9c0.1,0.6,0.7,0.9,1.2,0.8c0.6-0.1,0.9-0.7,0.8-1.2c-0.1-0.6-0.7-0.9-1.2-0.8    C454.3,94.8,453.9,95.4,454,95.9z"
   id="path207" />
		<path
   class="st42"
   d="M429.3,37.1c1.1-1,21.6-19.4,32.1-20.9c10-1.5,31.6,1,34.7,1.4c-3.9-0.6-26.7-17.6-40.3-2.9    c-6.2,6.7-24.5,16.1-24.5,16.1L429.3,37.1z"
   id="path209" />
		<path
   class="st43"
   d="M486,22.6c-0.3,0-0.7-0.1-1.2-0.1C485.3,22.6,485.7,22.6,486,22.6z"
   id="path211" />
		<path
   class="st43"
   d="M463,32.1c-0.5,0.6-0.8,0.9-0.8,0.9s0.2-0.1,0.4-0.2C462.7,32.7,462.9,32.4,463,32.1z"
   id="path213" />
		<path
   class="st42"
   d="M455.2,55.3c0.3-1.8,5-27.8,11.2-32c6.2-4.2,19.2-0.9,20.2-0.6c0.1,0,0.1,0,0.1,0l9.5-0.7    c0,0-33.3-6-37.8-1.2C454.1,25.5,455.1,53.6,455.2,55.3z"
   id="path215" />
		<path
   class="st42"
   d="M474.5,29.2c5.7-1.6,12.1-3,15.7-2.7c7.7,0.6,16,3.7,18,7.3c2.1,3.6,4.8,13.9,4.8,13.9s11,9.5,15.5,21.9    l1,0.4c0-3.2,0-8.3,0.2-9.7c0,0,0.5-21.2,0.6-29c-6.3,2.2-17.6,0-17.6,0l-7.9-5.1c2.4-2.9,6.9-2.2,7.5-2.1    c-0.6-0.3-5.3-2-13.2-1.1C493.9,23.6,482.5,26.9,474.5,29.2z"
   id="path217" />
		<path
   class="st26"
   d="M536.8,112.9c0,0-15,20-28.6,28.1c-6.9,4.1-18.7,5.1-19.6,5c-0.9-0.1-4.9-2.7-4.9-2.7s4.2,4.3,5.7,4.5    c1.5,0.1,9.4,0.7,20.6-6.1C521,135,536.8,112.9,536.8,112.9z"
   id="path219" />
		<path
   class="st44"
   d="M470.8,85.4c0,0-7.6-2.4-11.9,2.7l-3-2.2c0,0,0.9-7.9,14.3-2.9L470.8,85.4z"
   id="path221" />
		<polygon
   class="st44"
   points="529.1,63.4 510,67.2 507.4,63.8 529.8,60.3   "
   id="polygon223" />
		<path
   class="st22"
   d="M527.9,68c0,0,0.4-16.7,8.9-21.6c0,0,8-2.6,12.8,5.7c0,0,3.6,9.1,2.7,18.3s-8.5,14.1-10.4,14.7    c-1.9,0.6-6.4,0-6.4,0S528.7,77.9,527.9,68z"
   id="path225" />
		
			<linearGradient
   id="SVGID_00000019673503032962769600000014276555178904532352_"
   gradientUnits="userSpaceOnUse"
   x1="2072.3076"
   y1="-75.6366"
   x2="2072.3076"
   y2="-99.3504"
   gradientTransform="matrix(-0.9802 0.1981 0.1981 0.9802 2590.6558 -258.6871)">
			<stop
   offset="0"
   style="stop-color:#FFEADB"
   id="stop227" />
			<stop
   offset="0.9944"
   style="stop-color:#C245BA"
   id="stop229" />
		</linearGradient>
		
			<path
   style="opacity:0.58;fill-rule:evenodd;clip-rule:evenodd;fill:url(#SVGID_00000019673503032962769600000014276555178904532352_);"
   d="    M534.8,77.6c0,0,1.7-15.7,4.5-20.9c0-0.1,0.1-0.1,0.1-0.2c2.7-4.9,10.2-3.1,10.9,2.5c0.1,0.8,0.1,1.6,0,2.5c0,0-2.1-3.5-4.2-4.2    c-2.2-0.7-4.4-0.1-4.4,1.9c0.1,2,3.8,5.4,4.3,10.4c0.4,5-3.3,8.6-4.6,8.8C540,78.5,537,74,537,74L534.8,77.6z"
   id="path232" />
		
			<linearGradient
   id="SVGID_00000033350959296389050040000004352983104652512904_"
   gradientUnits="userSpaceOnUse"
   x1="2074.7559"
   y1="-77.1857"
   x2="2074.7559"
   y2="-89.3981"
   gradientTransform="matrix(-0.9802 0.1981 0.1981 0.9802 2590.6558 -258.6871)">
			<stop
   offset="0"
   style="stop-color:#FFEADB"
   id="stop234" />
			<stop
   offset="0.9944"
   style="stop-color:#C245BA"
   id="stop236" />
		</linearGradient>
		
			<path
   style="opacity:0.58;fill-rule:evenodd;clip-rule:evenodd;fill:url(#SVGID_00000033350959296389050040000004352983104652512904_);"
   d="    M536.2,68.1c0.8-4.4,7.1-4.8,8.3-0.5c0,0.1,0,0.1,0,0.2c1.6,6.3-1.3,8.5-2.6,8.8c-0.8,0.2-3.1-1.9-4.7-3.4c-1-1-1.5-2.4-1.3-3.8    C536,69,536.1,68.6,536.2,68.1z"
   id="path239" />
		<path
   class="st35"
   d="M510.9,88l-34.9,2.7c0,0,7.1,12.6,20.7,12C510.3,102,510.9,88,510.9,88z"
   id="path241" />
		<path
   class="st35"
   d="M460.7,102l-24.6,1.8c0,0,7.5,12.6,16.2,12.2C461.1,115.5,460.7,102,460.7,102z"
   id="path243" />
		<path
   class="st44"
   d="M471.2,87.1c4.4,13.1,17.4,20.7,28.9,17c11.6-3.7,17.4-17.3,13-30.4c-4.4-13.1-17.4-20.7-28.9-17    C472.6,60.4,466.8,74,471.2,87.1z M485.3,59.8c10-3.2,21.3,3.4,25.1,14.7c3.8,11.4-1.2,23.2-11.3,26.4c-10,3.2-21.3-3.4-25.1-14.7    C470.2,74.8,475.2,63,485.3,59.8z"
   id="path245" />
		<path
   class="st44"
   d="M434.7,102.7c5.9,11.7,16.1,17.9,22.8,13.8c6.7-4.1,7.3-16.8,1.4-28.5c-5.9-11.7-16.1-17.9-22.8-13.8    C429.4,78.3,428.8,91,434.7,102.7z M437.5,77c5.8-3.5,14.6,1.9,19.8,12c5.1,10.2,4.6,21.3-1.2,24.8c-5.8,3.5-14.6-1.9-19.8-12    C431.1,91.6,431.7,80.5,437.5,77z"
   id="path247" />
		
			<linearGradient
   id="SVGID_00000021822175676015954710000000064488648731697836_"
   gradientUnits="userSpaceOnUse"
   x1="529.2581"
   y1="-34.4354"
   x2="620.8612"
   y2="-34.4354"
   gradientTransform="matrix(0.9802 -0.1981 0.1981 0.9802 -56.2121 276.2217)">
			<stop
   offset="0"
   style="stop-color:#FBFBFF"
   id="stop249" />
			<stop
   offset="1"
   style="stop-color:#FFFFFF"
   id="stop251" />
		</linearGradient>
		<path
   style="fill:url(#SVGID_00000021822175676015954710000000064488648731697836_);"
   d="M460.2,126.3c0,0,11.4,4.4,14.8,4.8    c3.4,0.5,7.6,2.5,14.8-0.2c6.5-2.4,11.5-5.9,15.9-10.3c4.3-4.4,11.8-12.4,16.2-20.9c4.4-8.5,3.5-25.2,3.5-25.2l3.5-1.3    c0,0,2.4,7.3,3.9,8.8c1.5,1.5,3.8,3.9,3.8,3.9s6.9,18.5,7.2,25.6c0.3,7.1-13.1,24-14.6,36.2c-1.5,12.2-13.9,25.1-21.7,28.5    s-11.9-2.5-20.5-7.4c-8.6-4.9-14.3-10.2-21.4-21.9c-7.1-11.8-13.1-26.6-13.1-26.6S457.8,124.7,460.2,126.3z"
   id="path254" />
		
			<linearGradient
   id="SVGID_00000051355590407132870470000001342737004552503996_"
   gradientUnits="userSpaceOnUse"
   x1="690.5297"
   y1="-151.1967"
   x2="747.0706"
   y2="-151.1967"
   gradientTransform="matrix(1.031 -0.3922 0.3555 0.9347 -199.6524 541.1594)">
			<stop
   offset="0"
   style="stop-color:#FBFBFF"
   id="stop256" />
			<stop
   offset="1"
   style="stop-color:#FFFFFF"
   id="stop258" />
		</linearGradient>
		<path
   style="fill:url(#SVGID_00000051355590407132870470000001342737004552503996_);"
   d="M468.2,130.1c0,0,1.8-2.6,8.1-6.8    c3.7-2.5,5-0.1,7.2-1.8c2.2-1.7,3.4-1.3,5.7-1.4s7.4,1.6,15.3-0.3c7.9-2,10.4-3.7,11.5-6.3c1-2.6,0.7-6.9,0.7-6.9    s-2.3,6.9-8.6,7.8s-19.8,0.1-22.3,0.1s-3.9,2.1-5.6,2.1c-1.7,0-3.4-0.4-4.7,0.8s-3,3.6-5.3,5.2c-2.6,1.8-3,2.1-7.2,2.1    s-5.7-4-5.7-4S455.2,135.6,468.2,130.1z"
   id="path261" />
		<path
   class="st49"
   d="M528.8,73.3c-0.3-1.1,9.9,26.5,5.2,38.7c-4.7,12.2-10.8,23.6-13.2,27.3c-2.4,3.7-7.7-1.9-8.8-7.4    c-1.1-5.6-1.1-5.6-1.1-5.6s-1.7,14.5,0.4,18.1c2,3.6,7.5,5.9,2,12.4c-5.5,6.5-13.4,15.5-23.2,6.5s-15.5-20.1-15.5-20.1    s1.8,8.5,3.8,11.1c2,2.6-2.9,0.3-8.5-6.8s-9.7-12.9-9.7-12.9s3.4,13.8,14,24.7c10.6,10.9,15.1,10,19.8,14.5s9.6,6,18.7-0.6    c9.1-6.5,14-17,16.3-25.2c2.3-8.2,7.2-19.7,9.7-24c2.5-4.3,6.9-7.9,3.8-18.4c-3.1-10.6-6.1-19.4-6.1-19.4S531.1,81.8,528.8,73.3z"
   id="path263" />
	</g>
	<g
   id="g278">
		
			<linearGradient
   id="SVGID_00000079456319054737928460000011299231808106627755_"
   gradientUnits="userSpaceOnUse"
   x1="2006.7737"
   y1="386.1372"
   x2="2006.7737"
   y2="-55.4585"
   gradientTransform="matrix(-0.9769 0.2136 0.2136 0.9769 2552.7659 -283.4406)">
			<stop
   offset="0"
   style="stop-color:#E8E9FF"
   id="stop267" />
			<stop
   offset="1"
   style="stop-color:#FFFFFF"
   id="stop269" />
		</linearGradient>
		<path
   style="fill-rule:evenodd;clip-rule:evenodd;fill:url(#SVGID_00000079456319054737928460000011299231808106627755_);"
   d="    M545.4,116.2c0,0,12-21.7,40.5-26.1c0,0-1.5,45.9,15.1,69.3c16.7,23.4,21.2,28.8,21.2,28.8s37.1,98.7,55.3,151.7    c18.3,53,40.9,173.2,40.9,173.2s-46.3-24.2-97.7-24.5c0,0,12.9-126.9-0.3-183.2C607.2,248.9,545.4,116.2,545.4,116.2z"
   id="path272" />
		<path
   class="st16"
   d="M542.9,114.4l6.9-12.4l2.3,10.4l33.1,46.3l-8,18.4l30.7,35.1l15.2,73.4l0.6,37.7c0,0-4.6-20.5-6.6-27.7    C614.9,288.2,552.3,129.4,542.9,114.4z"
   id="path274" />
		<path
   class="st19"
   d="M577.2,91.8l-10.1,41.1l-8.9,15.3l-15.3-33.8l6.9-12.4l3.1,4.7C552.9,106.6,560.3,97.5,577.2,91.8z"
   id="path276" />
	</g>
	<g
   id="g301">
		<path
   class="st21"
   d="M658,238.7c0,0-38.6-7.8-53.4-40.3l-1-5.1C603.6,193.3,640.8,203,658,238.7z"
   id="path280" />
		<path
   class="st22"
   d="M611.1,203.9c-2.5-0.2-14.4-3.5-22.2-6.5c-7.8-3.1-19.3-9.3-23.1-8.7c-3.8,0.5-12,10.9-14.2,16.9    c-2.3,6-1.8,10.6-1.8,10.6l6.6,0.3l6.6-10.9c0,0-0.1,12.6,1.2,16.5l4.3,1.3l1.1,1.7l8.4,1.2l2.8-0.7l8.3,1.8c0,0,5.4-1.3,7.6-4.5    c0,0,5,5.1,10.8,5.8c0,0,7.5-1.5,13.3-13.2l71.4-5.6c0,0,0.9-22.9-17.3-30.5C674.8,179.3,613.5,204.1,611.1,203.9z"
   id="path282" />
		
			<linearGradient
   id="SVGID_00000158019233809677128090000001807193793090913215_"
   gradientUnits="userSpaceOnUse"
   x1="2058.5964"
   y1="-2.8367"
   x2="2058.5964"
   y2="-168.1342"
   gradientTransform="matrix(-0.9009 0.4339 0.4339 0.9009 2542.0544 -665.5627)">
			<stop
   offset="0"
   style="stop-color:#FBFBFF"
   id="stop284" />
			<stop
   offset="1"
   style="stop-color:#FFFFFF"
   id="stop286" />
		</linearGradient>
		<path
   style="fill-rule:evenodd;clip-rule:evenodd;fill:url(#SVGID_00000158019233809677128090000001807193793090913215_);"
   d="    M586.2,89.8l20,13.3c0,0,32,16.7,54.2,25.3c22.2,8.6,29,10,36.2,13.2c7.2,3.2,33.5,32.1,35.3,35.9c0,0-7.3,11.9-14.8,18.5    c-7.5,6.6-48.7,29.9-48.7,29.9l-10.6,12.9c0,0-25-34.2-51-41.5l-2.4,1.1l-1-5.1c0,0,5.7-1.4,14-4.8c8.3-3.3,22.2-13.7,22.2-13.7    s-24.7,3.2-35.1-8.9c-9.3-10.9-15.6-27.2-18.5-39.5C581.3,105.8,586.2,89.8,586.2,89.8z"
   id="path289" />
		<path
   class="st1"
   d="M683.2,151.1l-11.4,2.1c-1.3,0.2-2.4,0.9-3.2,1.9l-9.8,12.7c-0.3,0.4-0.7,0.8-1.2,1.1l-29.1,13.7l11.3-7.7    c-0.2,0.8-1.1-0.7-3.6-2.3c0,0-8.5-5.2-8.9-6.2l-7.9-6c0,0,9.2,4.5,23.5,9.4c1.1,0.4,2.3,0.3,3.4,0l6.8-2.4    c1.8-0.6,3.1-2.3,3.4-4.2l1.7-4.7l2.3-1.5c1.7,2.7,2.9-0.8,5.3-2.9l3.3-3c1.1-1,2.6-1.5,4.1-1.3L683.2,151.1z"
   id="path291" />
		<path
   class="st24"
   d="M607.2,193.9l29.3,6c0,0,43.4-5.8,70.9-13.4L607.2,193.9z"
   id="path293" />
		<polygon
   class="st24"
   points="693.7,208.2 658.2,220.2 656.2,236.8 666.8,223.9   "
   id="polygon295" />
		<path
   class="st25"
   d="M617.5,202.1c0,0,5.8,7,8,12.9l8.8-0.7c0,0-8.4-9.4-15.5-12.5L617.5,202.1z"
   id="path297" />
		<polygon
   class="st26"
   points="596.7,222.9 592.5,220.1 589.5,222.7 593.2,213.7 593.2,218.7   "
   id="polygon299" />
	</g>
	
		<radialGradient
   id="SVGID_00000097471287584460102510000002671575112536989362_"
   cx="-327.2322"
   cy="659.3247"
   r="100.4614"
   gradientTransform="matrix(-1 0 0 1 -228.7379 0)"
   gradientUnits="userSpaceOnUse">
		<stop
   offset="0.2865"
   style="stop-color:#7F68E5"
   id="stop303" />
		<stop
   offset="0.3807"
   style="stop-color:#846EE5"
   id="stop305" />
		<stop
   offset="0.5034"
   style="stop-color:#927EE4"
   id="stop307" />
		<stop
   offset="0.6416"
   style="stop-color:#A899E2"
   id="stop309" />
		<stop
   offset="0.7914"
   style="stop-color:#C8BEDF"
   id="stop311" />
		<stop
   offset="0.9487"
   style="stop-color:#F0EEDC"
   id="stop313" />
		<stop
   offset="1"
   style="stop-color:#FFFFDB"
   id="stop315" />
	</radialGradient>
	
		<polygon
   style="opacity:0.3;fill-rule:evenodd;clip-rule:evenodd;fill:url(#SVGID_00000097471287584460102510000002671575112536989362_);"
   points="   201,724 205.5,698.2 117.9,563.7 117.9,536.1 124.1,534.3 124.1,525 81.4,525 83.6,534.3 89.5,536.1 89.5,564 2.7,698.2    10.6,722.9  "
   id="polygon318" />
	
		<radialGradient
   id="SVGID_00000180345846968625651510000004868942852074953861_"
   cx="-343.243"
   cy="640.7834"
   r="108.7041"
   gradientTransform="matrix(-1 0 0 1 -228.7379 0)"
   gradientUnits="userSpaceOnUse">
		<stop
   offset="0"
   style="stop-color:#FF60FF"
   id="stop320" />
		<stop
   offset="0.7297"
   style="stop-color:#A700FE"
   id="stop322" />
		<stop
   offset="0.9811"
   style="stop-color:#6A43FE"
   id="stop324" />
	</radialGradient>
	<path
   style="fill-rule:evenodd;clip-rule:evenodd;fill:url(#SVGID_00000180345846968625651510000004868942852074953861_);"
   d="   M163.3,633.4c0,0-53.7,14.9-126.1,11.5L2.7,698.2l7.9,24.7L201,724l4.5-25.8l-17-26.2L163.3,633.4z"
   id="path327" />
	<path
   class="st54"
   d="M163.3,633.4c0,0-21.9-9.4-55.6-4.7c-33.7,4.8-33,15.4-70.4,16.2C37.2,644.9,109.8,655.6,163.3,633.4z"
   id="path329" />
	<path
   class="st55"
   d="M201,725.3c0.6,0,1.1-0.4,1.2-1l4.5-25.8c0.1-0.3,0-0.6-0.2-0.9l-16-24.6l-2.3-2.1c-0.4,0.1-0.8,0.4-0.9,0.7   c-0.2,0.4-0.1,0.8,0.1,1.2l16.8,25.7l-4.2,24.2l-188.4-1.1l-7.4-23.2l86.5-133.7c0.1-0.2,0.2-0.4,0.2-0.7v-27.9   c0-0.6-0.4-1-0.9-1.2l-5.2-1.6l-1.7-7h41.4l-1.4,7l-5.5,1.6c-0.5,0.2-0.9,0.6-0.9,1.2v27.6c0,0.2,0.1,0.5,0.2,0.7l63.6,97.6   c0.3,0.4,0.8,0.7,1.3,0.6l0.4-2.6l-63-96.6V537l5.3-1.6c0.4-0.1,0.8-0.5,0.9-1l1.9-9.3c0.1-0.4,0-0.8-0.3-1.1   c-0.2-0.3-0.6-0.5-1-0.5H81.4c-0.4,0-0.8,0.2-1,0.5c-0.2,0.3-0.3,0.7-0.2,1.1l2.2,9.3c0.1,0.4,0.4,0.8,0.9,0.9l5,1.6v26.6   L1.6,697.5c-0.2,0.3-0.3,0.7-0.1,1.1l7.9,24.6c0.2,0.5,0.6,0.9,1.2,0.9L201,725.3C201,725.3,201,725.3,201,725.3z"
   id="path331" />
	<polygon
   class="st56"
   points="117.9,536.1 89.5,536.1 89.5,555.3 117.9,542.7  "
   id="polygon333" />
	<path
   class="st57"
   d="M157.7,647.5c-3.6,5.5-30.5-45.9-24.1-45.7C141.3,602,161.2,642.2,157.7,647.5z"
   id="path335" />
	
		<linearGradient
   id="SVGID_00000032640977263136181210000002605059298926891425_"
   gradientUnits="userSpaceOnUse"
   x1="216.3471"
   y1="653.8023"
   x2="445.6994"
   y2="364.1965">
		<stop
   offset="0"
   style="stop-color:#AC05FE"
   id="stop337" />
		<stop
   offset="4.750634e-02"
   style="stop-color:#FF60FF"
   id="stop339" />
		<stop
   offset="0.7297"
   style="stop-color:#A700FE"
   id="stop341" />
		<stop
   offset="0.9811"
   style="stop-color:#6A43FE"
   id="stop343" />
	</linearGradient>
	<path
   style="fill:url(#SVGID_00000032640977263136181210000002605059298926891425_);"
   d="M490.4,256.8c-0.1,0.1-0.3,0.2-0.4,0.3   c0,0-2.2,2.5-6.6,7.5c-5.4,6.2-26.3,53.7-33.5,93.7c-5.7,32-17.4,38.5-60.9,60c-8.6,4.2-18.4,9.1-29.4,14.7   c-66.9,34.4-65.2,44.1-52.2,119.4l1.4,8.3c2.7,15.9-0.7,30.7-10.1,44c-31,43.8-116.6,56.5-117.4,56.7c-0.3,0-0.5,0.1-0.7,0.3   l6.5,10c0.4,0,0.7,0,0.7,0c3.7-0.6,85.1-15.7,118-62.1c10.6-15,15.6-32.1,12.5-50l-1.4-8.3c-12.7-73.5-14.8-77.6,47.1-109.4   c11-5.7,21.1-11,29.6-15.2c43.7-21.5,58.8-31.1,65.2-66.8c7.2-40.1,26.5-85.8,30.2-90.1c4.4-5,6.6-7.6,6.6-7.6   c0.4-0.4,0.6-0.9,0.8-1.5L490.4,256.8z"
   id="path346" />
	<g
   id="g354">
		<path
   class="st55"
   d="M299.1,605.5c9.5-13.4,12.9-28.3,10.2-44.4l-1.4-8.3c-13-75-14.6-84.7,51.9-118.9    c11-5.7,20.7-10.4,29.3-14.7l0.1-0.1c43.6-21.5,54.8-27.9,60.6-60.2c7.2-39.9,28.5-87.4,33.9-93.6c3.9-4.4,6-6.9,6.5-7.4l0.1-0.1    c0.2-0.3,0.6-0.5,0.9-0.7l-0.8-0.5c-0.2,0.2-0.5,0.3-0.7,0.6c0,0,0,0-0.1,0.1c-0.5,0.5-2.6,3-6.5,7.4c-5.4,6.2-26.9,54-34.1,94    c-5.7,31.8-16.8,38.1-60.1,59.5l-0.1,0.1c-8.6,4.2-18.3,9-29.3,14.7c-67.2,34.6-65.5,44.3-52.4,120l1.4,8.3    c2.7,15.7-0.7,30.4-10,43.6c-29.6,41.8-108.1,55.1-117.1,56.5c-0.3,0.1-0.6,0.2-0.9,0.4l0.5,0.8c0.2-0.1,0.4-0.2,0.7-0.3    C190.4,661,269.3,647.6,299.1,605.5z"
   id="path348" />
		<path
   class="st55"
   d="M497,260c0-0.1,0-0.3,0-0.4L497,260z"
   id="path350" />
		<path
   class="st55"
   d="M496,260.3c0,0.7-0.3,1.4-0.7,2c0,0-2.2,2.5-6.6,7.6c-3.7,4.3-23.1,50.2-30.3,90.3    c-6.4,35.5-21.5,44.9-65.1,66.4c-8.6,4.2-18.6,9.4-29.7,15.1c-62.2,32-60.4,35.9-47.6,109.8l1.4,8.3c3.1,17.8-1.3,35.4-11.9,50.3    c-33.3,47-117.1,61.6-117.9,61.7c-0.1,0-0.5,0-1,0l0.6,1c0.1,0,0.3,0,0.3,0c0.1,0,0.1,0,0.1,0c0.8-0.1,85-14.8,118.5-62.1    c10.7-15.1,15.1-32.9,12-51l-1.4-8.3c-12.6-73.2-14.5-77.1,47.1-108.8c11-5.7,21.1-10.8,29.6-15.1c43.9-21.6,59.1-31.1,65.6-67.1    c7.2-40,26.4-85.6,30.1-89.9c4.4-5,6.6-7.6,6.6-7.6c0.5-0.6,0.8-1.3,0.9-2L496,260.3z"
   id="path352" />
	</g>
	<path
   class="st59"
   d="M487.8,257.2c0,0,5.2-1.8,7.7-0.1c2.5,1.8,0.9,5.6,0.9,5.6v0c-1.9-2.6-4.7-4.5-7.8-5.4L487.8,257.2z"
   id="path356" />
	<path
   class="st26"
   d="M514.9,248.5c0,0-5.9-9.1-8.1-11c-2.2-1.9-2.2-1.9-2.2-1.9s9.2,12.8,8.9,14.2c-0.2,1.4-5.1,6.7-6,6.3   c-0.9-0.4-3.2-7.8-6.5-10.2s-4.8-3.2-4.8-3.2s5.4,6.1,6.4,8.6c1,2.5,1.5,7.2,1.5,7.2s-3.9,5.8-4.7,3.6c-0.7-2.2-4.1-5.3-4.1-5.3   s2.7,4.4,2.9,5.2s-0.8,3.5-0.4,3.4c0.5-0.1,2-0.6,2-0.6l5.8-6.2l2.7-1l6.2-5.8l0.4-2.6l2.4-2.9L514.9,248.5z"
   id="path358" />
	
		<linearGradient
   id="SVGID_00000090285554133399817670000015155290332169731519_"
   gradientUnits="userSpaceOnUse"
   x1="477.3323"
   y1="176.3182"
   x2="532.4032"
   y2="176.3182">
		<stop
   offset="0"
   style="stop-color:#FF60FF"
   id="stop360" />
		<stop
   offset="0.7297"
   style="stop-color:#A700FE"
   id="stop362" />
		<stop
   offset="0.9811"
   style="stop-color:#6A43FE"
   id="stop364" />
	</linearGradient>
	<path
   style="fill:url(#SVGID_00000090285554133399817670000015155290332169731519_);"
   d="M530.8,187.6c-4.2-14-13.9-16.4-22.4-18.6   c-5.6-1.4-11.5-2.9-16.5-7.5c-12-10.8-4.7-32-4.6-32.2c0.5-1.5,0-3.1-1.1-4.1c-2.2,0.3-4,0.2-5.1,0.1c-0.4,0.4-0.8,0.9-1,1.5   c-0.4,1.1-9,26.2,6.7,40.4c6.5,5.8,13.5,7.6,19.8,9.2c8.5,2.2,14.1,3.6,17,13.4c5.2,17.6-7.6,31.8-8.2,32.4   c-0.3,0.3-0.6,0.7-0.8,1.1c1.8,0.8,4.5,2.6,6.5,4.2C524.1,224.3,536.8,207.8,530.8,187.6z"
   id="path367" />
	<g
   id="g373">
		<path
   class="st41"
   d="M524,189.6c-3-10.1-8.7-11.5-17.4-13.7c-6.2-1.6-13.2-3.4-19.5-9.1c-15.5-14-7-38.8-6.6-39.9    c0.2-0.7,0.7-1.2,1.2-1.6c-0.5,0-0.9-0.1-1.2-0.2c-0.4,0.4-0.7,0.9-0.9,1.4c-0.4,1.1-9.1,26.5,6.9,40.9c6.6,5.9,13.7,7.7,20,9.3    c8.3,2.1,13.8,3.5,16.6,13.1c5.2,17.4-7.9,31.2-8.5,31.7c-0.4,0.4-0.8,0.7-1,1.2c0.3,0.1,0.7,0.3,1,0.4c0.2-0.3,0.4-0.6,0.7-0.9    C515.8,221.7,529.3,207.6,524,189.6z"
   id="path369" />
		<path
   class="st41"
   d="M531.3,187.5c-4.2-14.2-14.1-16.7-22.8-18.9c-5.6-1.4-11.3-2.9-16.3-7.4c-11.7-10.6-4.6-31.5-4.5-31.7    c0.6-1.6,0.1-3.2-1-4.4c-0.5,0.1-0.9,0.1-1.3,0.2c1.3,0.8,1.9,2.4,1.4,3.9c-0.1,0.2-7.4,21.7,4.8,32.7c5.2,4.7,11,6.2,16.7,7.6    c8.4,2.2,18,4.6,22.1,18.3c6,20-7.1,36.1-10.1,39.1c0.3,0.2,0.5,0.4,0.7,0.6C524.2,224.2,537.3,207.9,531.3,187.5z"
   id="path371" />
	</g>
</g>
<g
   id="g401">
	
		<radialGradient
   id="Path_192_00000118361877545532891370000006044205317202076584_"
   cx="225.368"
   cy="417.3404"
   r="0.4638"
   gradientTransform="matrix(34.472 0 0 -34.472 -7640.0415 14815.0801)"
   gradientUnits="userSpaceOnUse">
		<stop
   offset="2.077838e-07"
   style="stop-color:#000000;stop-opacity:0.6"
   id="stop377" />
		<stop
   offset="1"
   style="stop-color:#FF2AFA;stop-opacity:0.6"
   id="stop379" />
	</radialGradient>
	
		
	
	
	
		<radialGradient
   id="Path_192-2_00000111177261033426277290000017319081560749510021_"
   cx="227.4368"
   cy="414.119"
   r="0.4638"
   gradientTransform="matrix(50.526 0 0 -50.526 -11440.5059 21291.0664)"
   gradientUnits="userSpaceOnUse">
		<stop
   offset="2.077838e-07"
   style="stop-color:#000000;stop-opacity:0.6"
   id="stop385" />
		<stop
   offset="1"
   style="stop-color:#FF2AFA;stop-opacity:0.6"
   id="stop387" />
	</radialGradient>
	
		
	
	
	
		<radialGradient
   id="Path_192-3_00000011714483700461883080000000558604329934082460_"
   cx="227.9876"
   cy="412.9155"
   r="0.4638"
   gradientTransform="matrix(60.538 0 0 -60.538 -13657.0664 25279.959)"
   gradientUnits="userSpaceOnUse">
		<stop
   offset="2.077838e-07"
   style="stop-color:#000000;stop-opacity:0.6"
   id="stop393" />
		<stop
   offset="1"
   style="stop-color:#FF2AFA;stop-opacity:0.6"
   id="stop395" />
	</radialGradient>
	
		
	
	
</g>
</svg>