<svg xmlns="http://www.w3.org/2000/svg" xmlns:xlink="http://www.w3.org/1999/xlink" width="270.439" height="623.315" viewBox="0 0 270.439 623.315">
  <defs>
    <linearGradient id="linear-gradient" x1="-39.069" y1="0.901" x2="-39.069" y2="-0.316" gradientUnits="objectBoundingBox">
      <stop offset="0" stop-color="#bdb3e7"/>
      <stop offset="0.646" stop-color="#b2adea"/>
      <stop offset="1" stop-color="#aae"/>
    </linearGradient>
    <linearGradient id="linear-gradient-2" x1="-48.104" y1="0.806" x2="-48.104" y2="-0.453" gradientUnits="objectBoundingBox">
      <stop offset="0.011" stop-color="#be6888"/>
      <stop offset="1" stop-color="#8e81f4"/>
    </linearGradient>
    <linearGradient id="linear-gradient-3" x1="0.8" y1="0.757" x2="0.103" y2="0.324" gradientUnits="objectBoundingBox">
      <stop offset="0" stop-color="#1300ce"/>
      <stop offset="1" stop-color="#168ce8"/>
    </linearGradient>
    <linearGradient id="linear-gradient-4" x1="0.5" y1="1" x2="0.5" gradientUnits="objectBoundingBox">
      <stop offset="0.011" stop-color="#63517c"/>
      <stop offset="1" stop-color="#8e72b3"/>
    </linearGradient>
    <linearGradient id="linear-gradient-5" x1="0.5" y1="1" x2="0.5" y2="0" xlink:href="#linear-gradient-4"/>
    <linearGradient id="linear-gradient-7" x1="0.5" y1="1" x2="0.5" gradientUnits="objectBoundingBox">
      <stop offset="0" stop-color="#7c529d"/>
      <stop offset="1" stop-color="#616dc0"/>
    </linearGradient>
    <linearGradient id="linear-gradient-9" y1="0.5" x2="1" y2="0.5" gradientUnits="objectBoundingBox">
      <stop offset="0.022" stop-color="#ff8359"/>
      <stop offset="1" stop-color="#ff8b7c"/>
    </linearGradient>
    <linearGradient id="linear-gradient-10" x1="0" y1="0.5" x2="1" y2="0.5" xlink:href="#linear-gradient-9"/>
    <linearGradient id="linear-gradient-11" y1="0.5" x2="1" y2="0.5" gradientUnits="objectBoundingBox">
      <stop offset="0.011" stop-color="#be6888"/>
      <stop offset="1" stop-color="#8ea6ba"/>
    </linearGradient>
    <linearGradient id="linear-gradient-13" x1="0.5" y1="1" x2="0.5" gradientUnits="objectBoundingBox">
      <stop offset="0" stop-color="#8e81f4"/>
      <stop offset="0.989" stop-color="#be6888"/>
    </linearGradient>
    <linearGradient id="linear-gradient-14" x1="-70.309" y1="0.801" x2="-70.309" y2="-0.316" gradientUnits="objectBoundingBox">
      <stop offset="0" stop-color="#e8e9ff"/>
      <stop offset="1" stop-color="#fff"/>
    </linearGradient>
    <linearGradient id="linear-gradient-15" x1="-101.304" y1="0.606" x2="-101.304" y2="-0.364" gradientUnits="objectBoundingBox">
      <stop offset="0" stop-color="#65026b"/>
      <stop offset="0.994" stop-color="#a40e57"/>
    </linearGradient>
    <linearGradient id="linear-gradient-16" x1="-950.849" y1="-1.697" x2="-950.849" y2="-2.933" xlink:href="#linear-gradient"/>
    <linearGradient id="linear-gradient-17" x1="-102.124" y1="0.938" x2="-102.124" y2="-0.294" xlink:href="#linear-gradient-14"/>
    <linearGradient id="linear-gradient-18" x1="-266.295" y1="-1.574" x2="-265.324" y2="-1.574" xlink:href="#linear-gradient-7"/>
    <linearGradient id="linear-gradient-19" x1="-262.66" y1="-0.455" x2="-261.802" y2="-0.455" xlink:href="#linear-gradient-2"/>
    <linearGradient id="linear-gradient-20" x1="-266.932" y1="0.263" x2="-266.932" y2="-0.932" xlink:href="#linear-gradient-14"/>
    <linearGradient id="linear-gradient-21" x1="-361.358" y1="-2.317" x2="-361.358" y2="-3.276" xlink:href="#linear-gradient-2"/>
    <linearGradient id="linear-gradient-22" x1="-440.578" y1="0.554" x2="-440.578" y2="-0.426" xlink:href="#linear-gradient"/>
    <linearGradient id="linear-gradient-23" x1="-374.936" y1="0.401" x2="-374.936" y2="-0.566" xlink:href="#linear-gradient-2"/>
    <linearGradient id="linear-gradient-24" x1="-334.131" y1="-0.268" x2="-334.131" y2="-1.192" xlink:href="#linear-gradient-2"/>
    <linearGradient id="linear-gradient-25" x1="-208.776" y1="-0.428" x2="-208.776" y2="-1.298" gradientUnits="objectBoundingBox">
      <stop offset="0" stop-color="#ffd197"/>
      <stop offset="1" stop-color="#f9e0cc"/>
    </linearGradient>
    <linearGradient id="linear-gradient-26" x1="-887.332" y1="-1.862" x2="-887.332" y2="-2.793" gradientUnits="objectBoundingBox">
      <stop offset="0" stop-color="#ffbf86"/>
      <stop offset="1" stop-color="#f99d86"/>
    </linearGradient>
    <linearGradient id="linear-gradient-27" x1="-413.594" y1="-0.927" x2="-413.594" y2="-1.849" gradientUnits="objectBoundingBox">
      <stop offset="0" stop-color="#ffefdb"/>
      <stop offset="1" stop-color="#f9e0cc"/>
    </linearGradient>
    <linearGradient id="linear-gradient-28" x1="-493.033" y1="-1.234" x2="-493.033" y2="-2.141" xlink:href="#linear-gradient-27"/>
    <linearGradient id="linear-gradient-29" x1="-1274.869" y1="-2.421" x2="-1274.869" y2="-3.368" gradientUnits="objectBoundingBox">
      <stop offset="0" stop-color="#f99d86"/>
      <stop offset="1" stop-color="#ffbf86"/>
    </linearGradient>
    <linearGradient id="linear-gradient-30" x1="-0.131" y1="2.324" x2="0.905" y2="2.324" gradientUnits="objectBoundingBox">
      <stop offset="0" stop-color="#fbfbff"/>
      <stop offset="1" stop-color="#fff"/>
    </linearGradient>
    <linearGradient id="linear-gradient-31" x1="-0.43" y1="14.628" x2="0.722" y2="14.628" xlink:href="#linear-gradient-30"/>
    <linearGradient id="linear-gradient-32" x1="-0.15" y1="13.642" x2="0.9" y2="13.642" xlink:href="#linear-gradient-30"/>
    <linearGradient id="linear-gradient-33" x1="82.384" y1="8.251" x2="83.394" y2="8.251" gradientUnits="objectBoundingBox">
      <stop offset="0" stop-color="#ffeadb"/>
      <stop offset="0.994" stop-color="#c245ba"/>
    </linearGradient>
    <linearGradient id="linear-gradient-34" x1="93.138" y1="8.48" x2="93.138" y2="7.38" xlink:href="#linear-gradient-33"/>
    <linearGradient id="linear-gradient-35" x1="222.926" y1="14.412" x2="222.926" y2="13.394" xlink:href="#linear-gradient-33"/>
    <linearGradient id="linear-gradient-36" x1="0.078" y1="2.54" x2="1.082" y2="2.54" xlink:href="#linear-gradient-30"/>
    <linearGradient id="linear-gradient-37" x1="1.06" y1="3.449" x2="1.971" y2="3.449" xlink:href="#linear-gradient-30"/>
    <linearGradient id="linear-gradient-38" x1="0.5" y1="1" x2="0.5" y2="0" xlink:href="#linear-gradient-4"/>
    <linearGradient id="linear-gradient-39" x1="0.5" y1="1" x2="0.5" y2="0" xlink:href="#linear-gradient-2"/>
    <linearGradient id="linear-gradient-40" x1="0.5" y1="1.001" x2="0.5" y2="-0.001" xlink:href="#linear-gradient-2"/>
    <linearGradient id="linear-gradient-41" x1="17.883" y1="1.672" x2="17.883" y2="0.662" xlink:href="#linear-gradient-30"/>
    <linearGradient id="linear-gradient-42" x1="20.267" y1="3.941" x2="20.267" y2="2.706" xlink:href="#linear-gradient-14"/>
    <linearGradient id="linear-gradient-43" x1="52.409" y1="16.638" x2="53.501" y2="16.638" gradientUnits="objectBoundingBox">
      <stop offset="0.006" stop-color="#c245ba"/>
      <stop offset="1" stop-color="#ffeadb"/>
    </linearGradient>
    <linearGradient id="linear-gradient-44" x1="43.504" y1="6.325" x2="44.935" y2="6.325" xlink:href="#linear-gradient-43"/>
  </defs>
  <g id="Group_192" data-name="Group 192" transform="translate(-994.745 -305.473)">
    <path id="Path_655" data-name="Path 655" d="M1254.368,654.507c4.716,11.569-5.881,23.3-17.942,20.057l-.547-.144a41.352,41.352,0,0,0-6.254-.981c-24.932-2.28-87.088,4.826-98.116,3.915-12.143-1.012-73.866-5.915-95.258-3.7a177.054,177.054,0,0,0-40.165,9.426l-.446-3.029a135.664,135.664,0,0,1-.431-22.187.514.514,0,0,1,.018-.19c2.289-44.765,19.653-114.557,35.966-153.481.067-.141.116-.275.184-.416,21.276-50.521,77.585-141.879,85.312-148.288.14-.113.281-.226.443-.345.425-.324.85-.627,1.278-.932a.5.5,0,0,1,.1-.07,30.507,30.507,0,0,1,3.289-1.919c7.9-4.013,17.752-5.609,17.752-5.609l11.452-.009.743,0,6.2,0,9.139-.021,1.8.015,1.571-.006,6.761-.006-.1,18.091L1176.844,409s.416,4.056,1.192,11.006c4.215,37.078,19.332,156.25,41.492,175.748C1233.214,607.8,1245.617,633.048,1254.368,654.507Z" transform="translate(0.45 84.559)" fill-rule="evenodd" fill="url(#linear-gradient)"/>
    <path id="Path_656" data-name="Path 656" d="M997.721,584.431s13.36-47.718,29.9-83.757c4.328-9.429,18.366-6.825,18.914,3.536,1.073,20.3,3.136,47.44,7.1,75.226,1.58,11.1,17.523,11.4,19.549.373l15.961-86.8a9.9,9.9,0,0,1,17.129-4.8l86.049,96.46c6.544,7.333,18.617,1.69,17.189-8.032l-27.722-188.545a9.909,9.909,0,0,0-6-7.709l-60.3-25a9.87,9.87,0,0,0-11.822,3.35C1085.091,384.641,1016.106,485.878,997.721,584.431Z" transform="translate(6.12 101.064)" fill-rule="evenodd" opacity="0.5" fill="url(#linear-gradient-2)" style="mix-blend-mode: multiply;isolation: isolate"/>
    <g id="Group_184" data-name="Group 184" transform="translate(1013.756 618.845)">
      <path id="Path_657" data-name="Path 657" d="M1183.256,684l-1.834,3.209-8.494-7.339c-5.743,1.14-26.6,12.146-26.6,12.146l-4.588,8.494c-1.155-5.743-1.834-22.016-1.834-22.016l4.239-5.227c-3.212-39.092-32.842-110.345-32.842-110.345a61.965,61.965,0,0,1-3.613-5.688,44.868,44.868,0,0,1-4.093-9.448c-9.172-20.711-11.7-31.384-16.233-55.619-1.284-6.914-2.035-11.153-2.035-11.153-11.832,46.642-8.189,81.143-8.189,81.143a141.893,141.893,0,0,1,3.561,44.151c-.679,24.84-22.89,64.849-22.67,66.225.238,1.375,3.909,4.585,3.67,6.565-.22,1.981-5.028,14.989-5.028,14.989-16.988-11.685-38.3-11.465-38.3-11.465l-2.393,2.992s-.8-11.523-.633-17.046a8.723,8.723,0,0,1,.5-3.374c1.155-1.375,6.657,0,6.657,0,8.934-38.524,8.494-112.6,8.494-112.6a47.29,47.29,0,0,1-2.311-10.768s-7.119-18.327,0-68.557c6.018-42.613,5.719-53.482,8.561-61.774l6.5-.287L1130.776,408s10.141,12.535,16.545,63.9.382,69.932.382,69.932c6.422,6.419,16.731,21.334,16.731,21.334,8.953,34.856,9.173,96.988,9.173,96.988l4.585,3.432c.165.458.33.99.513,1.577C1180.576,671.255,1183.256,684,1183.256,684Z" transform="translate(-971.439 -408)" fill-rule="evenodd" fill="url(#linear-gradient-3)"/>
      <path id="Path_658" data-name="Path 658" d="M1183.256,684l-1.834,3.209-8.494-7.339c-5.743,1.14-26.6,12.146-26.6,12.146l-4.588,8.494c-1.155-5.743-1.834-22.016-1.834-22.016l4.239-5.227c-3.212-39.092-19.8-110.345-19.8-110.345a61.962,61.962,0,0,1-3.613-5.688s16.566-3.026,18.052-16.786c1.467-13.757-16.071-112.216-16.071-112.216-8-5.41-24.873-2-24.873-2h0a47.149,47.149,0,0,0-10.982,27.505l-.584,9.64c-7.454-4.768-4.432-15.371-4.432-15.371-7.883,14.619-12.287,16.548-16.267,35.339-7.381,34.832-2.482,72.237-2.482,72.237,2.054,8.714,7.779,31.94,7.779,31.94-.679,24.837-13.064,83.634-12.843,85.01.238,1.375,3.909,4.585,3.67,6.565-.22,1.981-5.028,14.989-5.028,14.989-16.988-11.685-38.3-11.465-38.3-11.465l-2.393,2.992s-.8-11.523-.633-17.046l33.2,8.916c-4.677-6.07-26.05-12.29-26.05-12.29,8.934-38.524,8.494-112.6,8.494-112.6a47.29,47.29,0,0,1-2.311-10.768s14.228,8.656,21.563-3.105c3.463-5.554,4.976-35.376,8.778-57.914,4.261-25.246,17.593-45.236,17.593-45.236l-4.071-11.116,4.738,10.6-15.118-20.912.789-2.256L1130.611,408s10.45,13.687,16.851,65.054.241,68.777.241,68.777c6.422,6.419,16.731,21.334,16.731,21.334,8.953,34.856,9.173,96.988,9.173,96.988l-24.675,14.219a118.526,118.526,0,0,1,29.773-9.209C1180.576,671.255,1183.256,684,1183.256,684Z" transform="translate(-971.439 -408)" opacity="0.5" fill="url(#linear-gradient-4)" style="mix-blend-mode: multiply;isolation: isolate"/>
      <path id="Path_659" data-name="Path 659" d="M1049.811,461.485l4.132,7.938s15.105-4.667,18.706-14.861C1072.649,454.562,1056.553,461.989,1049.811,461.485Z" transform="translate(-900.514 -312.246)" opacity="0.7" fill="url(#linear-gradient-5)" style="mix-blend-mode: multiply;isolation: isolate"/>
      <path id="Path_660" data-name="Path 660" d="M1019.693,451.786,1022,462.554l8.934,2.531,10.319-2.752Z" transform="translate(-962.451 -317.956)" opacity="0.7" fill="url(#linear-gradient-4)" style="mix-blend-mode: multiply;isolation: isolate"/>
      <path id="Path_661" data-name="Path 661" d="M1088.2,530.294c-.036,1.32-.092,2.091-.092,2.091l-87.137,1.067s1.522-9.634,3.668-11.009,13.907-2.439,25.225-8.567a51.945,51.945,0,0,0,6.4-4.126l.018-.018c.11-.073.532-.4,1.174-.88a57.508,57.508,0,0,0,10.438-10.713c19.573-3.066,38.3,11.465,38.3,11.465C1088.343,516.482,1088.324,526.113,1088.2,530.294Z" transform="translate(-1000.961 -223.509)" fill="url(#linear-gradient-7)"/>
      <path id="Path_662" data-name="Path 662" d="M1122.812,534.95h-67.179a96.671,96.671,0,0,1,6.458-24.379c10.878-8.824,30.452-14.035,30.452-14.035l3.338,3.6a33.449,33.449,0,0,0,2.7,4.658c7.925,11.575,21.833,17.666,21.833,17.666C1123.856,527.853,1122.812,534.95,1122.812,534.95Z" transform="translate(-888.541 -225.927)" fill="url(#linear-gradient-7)"/>
      <path id="Path_663" data-name="Path 663" d="M1001.882,510.768s31.032,1.351,39.594,1.4,20.793-4.23,24.461-4.689,22.279-.929,22.279-.929l-.113,7.653-87.137,1.073Z" transform="translate(-1000.965 -205.334)" fill="url(#linear-gradient-9)"/>
      <path id="Path_664" data-name="Path 664" d="M1057.577,505.637s10.591,4.625,12.424,7.152h5.2s37.943-6.776,47.33-3.576a27.712,27.712,0,0,1,.29,7.021h-67.187S1056.932,508.094,1057.577,505.637Z" transform="translate(-888.541 -207.211)" fill="url(#linear-gradient-10)"/>
      <path id="Path_665" data-name="Path 665" d="M1078.814,530.294c-.825-.183-14.087-3.264-18.987-3.411-5.025-.165-20.179,3.5-26.142,3.429-5.318-.073-24.2-.7-28.156-.844,3.906.129,22.251.642,28.4-.385,6.9-1.155,20.876-5.043,20.4-8.714-.44-3.668-10.31-16.163-14.677-16.731-3.338-.44-9.1,3.414-11.575,5.211a57.513,57.513,0,0,0,10.438-10.713c19.574-3.066,38.3,11.465,38.3,11.465C1078.961,516.482,1078.943,526.113,1078.814,530.294Z" transform="translate(-991.579 -223.509)" opacity="0.5" fill="url(#linear-gradient-11)" style="mix-blend-mode: multiply;isolation: isolate"/>
      <path id="Path_666" data-name="Path 666" d="M1070,531.5h5.208l8.971-1.449-.807,4.9h-27.738a96.671,96.671,0,0,1,6.458-24.379c10.878-8.824,30.452-14.035,30.452-14.035l3.338,3.6a33.449,33.449,0,0,0,2.7,4.658l-.052.348a66.317,66.317,0,0,0-20.732,11.612C1068.015,525.007,1070,531.5,1070,531.5Z" transform="translate(-888.541 -225.927)" opacity="0.5" fill="url(#linear-gradient-11)" style="mix-blend-mode: multiply;isolation: isolate"/>
      <path id="Path_667" data-name="Path 667" d="M1037.4,480.472c.082-.52,5.245-20.763,1.051-31.4a35.766,35.766,0,0,1,.862-27.985s-1.125,7.684,2.885,12.718a9.211,9.211,0,0,1,2.136,6.755L1042.8,454.1Z" transform="translate(-928.907 -381.079)" fill="url(#linear-gradient-13)" style="mix-blend-mode: multiply;isolation: isolate"/>
    </g>
    <path id="Path_668" data-name="Path 668" d="M1134.763,349.546l-6.128.9s-60.723,73.356-96.448,162.635-35.651,169.971-35.651,169.971l-1.791-12.168s4.383-122.959,67.316-229.585c0,0,8.271-27.774,11.349-33.585s28.988-31.98,28.988-31.98l-7.7,1.131s16.731-20.011,33.621-28.551l11.688-1.718-.761,2.286Z" transform="translate(0 84.577)" fill-rule="evenodd" fill="url(#linear-gradient-14)"/>
    <path id="Path_669" data-name="Path 669" d="M1122.108,350.289a8.278,8.278,0,0,1,1.507,4.793l-.049,14.65-.153,66.851a52.569,52.569,0,0,0-3.261,9.768c-1.7,6.327-3.6,14.861-5.5,24.165a151.6,151.6,0,0,0-1.589,51.523c-.034,1.758,4.193,18.531,4.193,18.531-1.382,1.553-39.566,25.8-92.031,1.317-1.4-.654-2.121-3.151-1.9-6.095.107-1.461-.877.923-.62-.52.785-4.386,2.723-16.951,1.663-28.972a172.966,172.966,0,0,0,.917-29.892c-.9-16.957-1.3-33.035-.425-43.674a64.1,64.1,0,0,1,.8-6.489c2.479-13.29,14.362-32.472,25.366-48.078,2.5-3.552,4.976-6.941,7.29-9.989,7.314-9.808,12.981-16.584,12.981-16.584l6.131-.9.471-.043,1.018-.122,2.968-.385.37-.027,9.595-1.171,9.209-1.088,8.13-1.012,2.739-.321,1.2-.125,1.067-.11a2.537,2.537,0,0,1,.642-.031,9.342,9.342,0,0,1,7.271,4.032Z" transform="translate(57.411 83.865)" fill-rule="evenodd" fill="url(#linear-gradient-15)"/>
    <g id="Group_185" data-name="Group 185" transform="translate(1164.856 428.838)">
      <path id="Path_670" data-name="Path 670" d="M1069.428,421.9l10.825,3.121-6.776,13.109Z" transform="translate(-1011.271 -189.398)" fill-rule="evenodd" fill="url(#linear-gradient-16)"/>
      <path id="Path_671" data-name="Path 671" d="M1148.532,666.8c10.181,19.054-17.7,34.865-29.1,16.511q-2.471-3.984-4.86-8.32c-17.773-32.273-36.947-73.472-47.971-116.522-9.179-35.865-12.547-74.34-13.177-108.426-.458-23.73.431-45.328,1.6-62.441l.046-.6c1.644-23.5,3.814-38.374,3.814-38.374s-1.376-.189-3.435-.3c-.5-.018-1.039-.052-1.623-.04-.516-.018-1.079-.009-1.66,0l-.135-.15-1.024-1.006-.605-.6s1.321-.2,3.267-.388q.5-.046,1.064-.1a56.542,56.542,0,0,1,6.486-.19l.022,0c2.732.1,5.214.483,6.437,1.476,2.381,1.981,2.8,6.5,5.266,8s10.313-1.2,14.139-.532c3.851.682,3.139,7.308,3.139,7.308a419.853,419.853,0,0,0-10.67,49.167c-.223,1.541-.425,3.063-.629,4.582l.006.037a174.7,174.7,0,0,0-1.455,18.684c-.425,30.054,22.3,147.964,66.035,223.527.141.242.284.477.434.712C1144.534,659.764,1146.283,662.585,1148.532,666.8Z" transform="translate(-1050.401 -345.835)" fill-rule="evenodd" fill="url(#linear-gradient-17)"/>
      <path id="Path_672" data-name="Path 672" d="M1061.089,434.321s23.9.562,36.314-11.395L1099.766,439s-18,6.957-36.791,5.407Z" transform="translate(-1028.421 -187.298)" fill="url(#linear-gradient-18)"/>
      <path id="Path_673" data-name="Path 673" d="M1061.706,429.955l18.7,42.091,20.521-1.153-.148-6.5-1.475,4.759-13.312-.489Z" transform="translate(-1027.152 -172.842)" opacity="0.5" fill="url(#linear-gradient-19)" style="mix-blend-mode: multiply;isolation: isolate"/>
      <path id="Path_674" data-name="Path 674" d="M1098.5,428.186l1.73,41.611-.926,3-13.311-.489-24.284-38.71S1080.323,433.767,1098.5,428.186Z" transform="translate(-1027.152 -176.481)" fill-rule="evenodd" fill="url(#linear-gradient-20)"/>
      <path id="Path_675" data-name="Path 675" d="M1086.58,421.9l-4.251,6.892-21.239,7.626s16.37.562,28.462-5.96Z" transform="translate(-1028.421 -189.399)" fill-rule="evenodd" opacity="0.5" fill="url(#linear-gradient-21)" style="mix-blend-mode: multiply;isolation: isolate"/>
      <path id="Path_676" data-name="Path 676" d="M1058.178,518.108s-5.156-31.622-3.438-59.391,11.477-64.483,11.477-64.483-3.2-18.152-12.6-25.378l20.613-16.322-5.905-2.473,8.589,3.069s-16.575,12.492-17.923,19.241c0,0,6.749,14.075,8.4,23.376S1051.687,450.475,1058.178,518.108Z" transform="translate(-1043.797 -337.139)" fill-rule="evenodd" fill="url(#linear-gradient-22)"/>
    </g>
    <path id="Path_677" data-name="Path 677" d="M1049.863,356.693l.728,4.948s-25.085,71.066-24.363,83.607c.7,12.116,1.495,56.313,1.541,59.066a.634.634,0,0,0,0,.138l-.022-.471-3.616-49.035c-.9-16.96-1.29-33.053-.425-43.668a64.88,64.88,0,0,1,.8-6.5C1026.995,391.5,1038.86,372.3,1049.863,356.693Z" transform="translate(58.558 105.333)" fill-rule="evenodd" opacity="0.5" fill="url(#linear-gradient-23)" style="mix-blend-mode: multiply;isolation: isolate"/>
    <path id="Path_678" data-name="Path 678" d="M1061.807,386.512,1044.469,438.3l-13.4,15.805,21.093-16.937Z" transform="translate(74.702 166.655)" fill-rule="evenodd" opacity="0.5" fill="url(#linear-gradient-24)" style="mix-blend-mode: multiply;isolation: isolate"/>
    <path id="Path_679" data-name="Path 679" d="M1090.325,336.432s-14.255,24.886-19.255,38.961c0,0-18.877,16.664-32.213,18.516,0,0-.749-9.445,1.657-14.259a157.727,157.727,0,0,0,12.572-27.777Z" transform="translate(90.489 63.667)" fill="#d34c4c"/>
    <g id="Group_186" data-name="Group 186" transform="translate(1119.862 418.796)">
      <path id="Path_680" data-name="Path 680" d="M1084.823,348.011c.033.241.073.507.089.773.058.532.113,1.064.131,1.644a.434.434,0,0,1,0,.156,43.476,43.476,0,0,1-.012,6.651,211.276,211.276,0,0,1-19.375,20.659l-.024,0c-2.76,2.607-5.758,5.272-8.943,7.919a143.112,143.112,0,0,1-19.873,14.063,52.9,52.9,0,0,1-.309-15.227,47.44,47.44,0,0,1,1.189-6.284,38.122,38.122,0,0,1,3.249-8.3l1.2-5.162.645-2.79.96-4.16,7.143-5.049.019-.024,4.679-3.316-.679,2.73a.892.892,0,0,0-.028.116c-.226,1.223-2.485,12.739-5.4,19.03-.446.941-.727,1.455-.727,1.455l-.5,7.892a81.274,81.274,0,0,0,14.894-24.268l.11-.33c.593-1.614,1.137-3.267,1.58-4.973l.122-.4,2.879-.892,13.142-4.09.217-.66.776-2.363,1.825-.266c0,.021.03.04.034.061A43.739,43.739,0,0,1,1084.823,348.011Z" transform="translate(-1034.795 -342.549)" fill-rule="evenodd" fill="url(#linear-gradient-25)"/>
      <path id="Path_681" data-name="Path 681" d="M1035.68,376.133l8.509-8.13,2.072-18.962.981-1.559S1038.012,355.857,1035.68,376.133Z" transform="translate(-1035.68 -332.404)" fill-rule="evenodd" fill="url(#linear-gradient-26)"/>
      <path id="Path_682" data-name="Path 682" d="M1069.742,356c-4.408,10.193-22.743,26.793-22.743,26.793.18-1.666.345-3.307.446-4.9l.024,0a130.054,130.054,0,0,0-.523-25.843l-1.993,4.472.11-.33,1.58-4.973.122-.4c.566-.284,1.305-.6,2.133-.92,4.178-1.669,10.97-3.769,14.105-4.722,1.058-.315,1.7-.5,1.7-.5l.9-2.13c0,.021.03.04.033.061a28.485,28.485,0,0,1,2.06,5.312c.079.235.159.471.22.73.177.605.361,1.229.513,1.813.009.067.043.15.055.217C1069.25,353.58,1069.742,356,1069.742,356Z" transform="translate(-1016.608 -342.549)" fill-rule="evenodd" fill="url(#linear-gradient-27)"/>
      <path id="Path_683" data-name="Path 683" d="M1035.68,381.55s.095-17.786,9.762-29.791l11.037-6.911-9.236,8.051S1037.333,367.83,1035.68,381.55Z" transform="translate(-1035.68 -337.821)" fill-rule="evenodd" fill="url(#linear-gradient-28)"/>
      <path id="Path_684" data-name="Path 684" d="M1039.852,351.863l1.21,16.319a65.118,65.118,0,0,0,6.837-23.333Z" transform="translate(-1027.1 -337.821)" fill-rule="evenodd" fill="url(#linear-gradient-29)"/>
    </g>
    <g id="Group_187" data-name="Group 187" transform="translate(1112.908 305.473)">
      <path id="Path_685" data-name="Path 685" d="M1073.65,341.4s-18.223,20.182-22.688,20.323-6.758-12.9-6.758-12.9Z" transform="translate(-1011.197 -231.579)" fill="#c7604f"/>
      <path id="Path_686" data-name="Path 686" d="M1040.212,335.566c-.841,3.564-.315,9.154-.315,9.154a101.033,101.033,0,0,1-.5,12.046c-.187,1.256-.63,3.13-1.177,5.248-1.281,4.967-3.047,11.291-2.895,14.1.223,3.973,10.713,18.443,13.342,25.02,2.647,6.584,3.662,9.069,4.456,9.915.645.672,5.382,2.537,11.566,2.885a2.679,2.679,0,0,0,.275-.009,30.578,30.578,0,0,0,4.511-.043c8.381-.7,31.5-10.912,34.5-14.445,1.531-1.785,3.212-9.961,4.493-17.578,1.234-7.357,2.1-14.185,2.1-14.185s5.046-19.13,4.37-27.915c-.516-6.388-10.967-18.137-21.545-24.779a35.293,35.293,0,0,0-9.494-4.359,16.861,16.861,0,0,0-1.941-.4c-12.813-1.825-27.4,3.16-33.83,10.484C1048.134,320.7,1041.033,332,1040.212,335.566Z" transform="translate(-1029.464 -296.491)" fill="#ff9d79"/>
      <path id="Path_687" data-name="Path 687" d="M1038.258,335.566c-.841,3.564-.315,9.154-.315,9.154a101.033,101.033,0,0,1-.5,12.046c-.186,1.256-.63,3.13-1.177,5.248,0,0,1.339,5.312,6.061,7.015s7.858,1.171,10.346-2.124c0,0-.7-12.177-4.053-20.854l-8.158-6.892s3.67-9.631,8.833-10.988l9.646,4.062s8.412-9.362,19.623-7.583,15.652,5.691,16.783,8.106-3.652,14.173-3.652,14.173-17.37-5.606-26.918-5.144c0,0-3.249,20.081.569,28.545,0,0,8.628,3.784,14.078,3.805,5.428.015,12.654-4.355,12.654-4.355s-1.192,7.021-2.017,8.778c-.826,1.773-3.787,3.75-5.251,5.575-1.442,1.828-13.32,25.237-16.1,27.542a10.023,10.023,0,0,1-5.7,2.25,30.578,30.578,0,0,0,4.511-.043c8.381-.7,31.5-10.912,34.5-14.445,1.531-1.785,3.212-9.961,4.493-17.578l-.009-.043s-1.926-2.268.052-10.933c1.978-8.644,5.979-26.06,5.979-26.06l-7.507-16.215-13.589-13.629-2.571-2.574-6.923-1.785a16.856,16.856,0,0,0-1.941-.4c-12.813-1.825-27.4,3.16-33.829,10.484C1046.18,320.7,1039.08,332,1038.258,335.566Z" transform="translate(-1027.51 -296.491)" fill="#4c4c4b" fill-rule="evenodd" opacity="0.16" style="mix-blend-mode: multiply;isolation: isolate"/>
      <path id="Path_688" data-name="Path 688" d="M1041.007,331.013s-.51.241-.024.015l.024-.015a68.7,68.7,0,0,0,13.421,10.2.226.226,0,0,1,.037-.067c.85-1.183,13.32-18.345,19.326-19.21,5.969-.859,14.157,6.064,14.839,6.669-.07-.037-.2-.113-.373-.214a.142.142,0,0,0-.071-.037c-.217-.134-.492-.284-.816-.465s-.718-.379-1.128-.6c-.379-.2-.813-.4-1.244-.611-.972-.465-2.091-.969-3.28-1.412l-1.158-.416-.037-.009a9.174,9.174,0,0,0-1.745-.41c-2.806-.373-8.35,1.782-10.551,2.7-.024.012-.027.03-.046.024-.568.244-.9.391-.9.391s.134.015.382.04c.489.067,1.452.18,2.732.355,0,0,.471.064,1.312.2.565.067,1.164.165,1.782.266a1.137,1.137,0,0,0,.2.034c.562.086,1.161.18,1.76.278.654.11,1.342.229,2.069.358,4.7.88,9.827,2.085,12.33,3.549,5.386,3.142,10.239,8.268,10.5,11.569s-1.446,11.725-1.446,11.725,4.625,10.7,3.534,21.285c-.095.889-.226,1.773-.4,2.662,0,0,.391-.835.951-2.014a72.294,72.294,0,0,1,3.582-6.947s7.788-15.172,10.6-20.72c0,0-1.519-7.033-10.429-11.453,0,0,8.818,1.9,12.657,7.412a18.191,18.191,0,0,0-5.224-7.99c-3.747-2.992-8.592-2.488-11.62-5.019-3.048-2.54,2.635-16.746-19.3-26.112,0,0,13.345,10.435,14.775,20.68-.285-.364-2.4-3.521-5.364-7.378a38.043,38.043,0,0,0-28.988-14.83h0a30.845,30.845,0,0,0-7.036.526c-4.787.96-11.933,3.607-15.863,11.19l5.062-2.106-3.775,3.839a.046.046,0,0,1-.04.009l-2.3,2.329S1036.165,325.49,1041.007,331.013Z" transform="translate(-1022.992 -305.473)" fill="url(#linear-gradient-30)"/>
      <path id="Path_689" data-name="Path 689" d="M1047.873,328.741s-2.348-7.959-10.371-10.484c0,0-1.608,1.534-.443,6.828,0,0,1.079-.575,3.674-.153S1047.873,328.741,1047.873,328.741Z" transform="translate(-1026.761 -279.182)" fill="url(#linear-gradient-31)"/>
      <path id="Path_690" data-name="Path 690" d="M1045.6,320.383a7.457,7.457,0,0,0,3.105,4.429s10.621-1.476,17.694.034c5.052,1.076,10.49,5.853,10.49,5.853s-5.159-6.55-7.507-8.149C1066.024,320.264,1055.516,320.031,1045.6,320.383Z" transform="translate(-1008.323 -275.082)" fill="url(#linear-gradient-32)"/>
      <path id="Path_691" data-name="Path 691" d="M1059.326,338.559s2.078,4.1,1.932,4.68-4.221,2.3-4.221,2.3-.211-.978-.578-1.165-2.947,1.409-3.353,2.088a16.73,16.73,0,0,1-6-.345c-2.378-.8-7.051-4.5-7.43-6.254s5.22-5.575,5.22-5.575a25.849,25.849,0,0,0,.892-6.321s.523,4.533-.391,6.883c0,0-3.435,1.574-4.261,3.882a70.63,70.63,0,0,0,10.643,2.375,29.33,29.33,0,0,0,7.687.015Z" transform="translate(-1020.548 -259.224)" opacity="0.58" fill="url(#linear-gradient-33)" style="mix-blend-mode: multiply;isolation: isolate"/>
      <path id="Path_692" data-name="Path 692" d="M1047.141,331.429a30.787,30.787,0,0,1,1.476,4.533c-.027.7-3.035,2.124-3.035,2.124s3.075-.7,3.967-1.978C1050.173,335.207,1047.141,331.429,1047.141,331.429Z" transform="translate(-1008.362 -252.094)" fill="#d46057" fill-rule="evenodd"/>
      <path id="Path_693" data-name="Path 693" d="M1047.4,334.317a4.424,4.424,0,0,0-3.17,1.091S1047.522,330.979,1047.4,334.317Z" transform="translate(-1011.143 -248.717)" fill="#ae4038" fill-rule="evenodd"/>
      <path id="Path_694" data-name="Path 694" d="M1066.45,333.2s-5.2,2.629-9.64,2.684-9.784-3.448-9.784-3.448l3.13-6.889S1060.316,327.657,1066.45,333.2Z" transform="translate(-1005.393 -264.182)" fill="#e4dbff"/>
      <path id="Path_695" data-name="Path 695" d="M1050.1,330.49s-4.594,3.029-7.467,2.244c-1.758-.483-4.71-2.806-4.71-2.806l-.987-4.676S1043.343,323.521,1050.1,330.49Z" transform="translate(-1026.153 -265.191)" fill="#e4dbff"/>
      <path id="Path_696" data-name="Path 696" d="M1036.931,329.1l1.522-5.914s8.589,1.048,11.642,11.153C1050.1,334.341,1042.573,327.727,1036.931,329.1Z" transform="translate(-1026.153 -269.042)" fill="#d7494f"/>
      <path id="Path_697" data-name="Path 697" d="M1047.026,334.867s1.773-7.846,4.734-10.5c0,0,8.6,1.941,14.69,11.26,0,0-8.607-5.263-16.911-5.975Z" transform="translate(-1005.393 -266.609)" fill="#d7494f"/>
      <path id="Path_698" data-name="Path 698" d="M1057.36,332.686s-7.372-10.316-10.1-2.962C1047.255,329.724,1052.876,333.658,1057.36,332.686Z" transform="translate(-1004.922 -261.039)" fill="#4f4f4f"/>
      <path id="Path_699" data-name="Path 699" d="M1044.407,330.655s-3.521-6.642-7.231-3.937l.238,1.134S1041.565,331.62,1044.407,330.655Z" transform="translate(-1025.649 -263.115)" fill="#4f4f4f"/>
      <path id="Path_700" data-name="Path 700" d="M1051.527,330.894s-5.722-4.841-13.054-4.719l-2.238-1.22S1043.369,323.653,1051.527,330.894Z" transform="translate(-1027.584 -265.595)" fill="#4f4f4f"/>
      <path id="Path_701" data-name="Path 701" d="M1066.45,332.789s-9.552-5.416-16.389-5.471c0,0-1.165.593-3.035,4.707,0,0,0-4.429,1.262-6.272C1048.288,325.753,1055.872,326.049,1066.45,332.789Z" transform="translate(-1005.393 -263.767)" fill="#4f4f4f"/>
      <path id="Path_702" data-name="Path 702" d="M1037.562,325.43l.016,2.281-.674-2.485Z" transform="translate(-1026.209 -264.85)" fill="#6b2442"/>
      <path id="Path_703" data-name="Path 703" d="M1047.726,328.233a17.376,17.376,0,0,0,5.865,7.033s-5.985-3.989-6.565-7.461Z" transform="translate(-1005.393 -259.547)" fill="#dc5157"/>
      <path id="Path_704" data-name="Path 704" d="M1043.227,327.024s-.645,4.829-2.956,7.742a28.7,28.7,0,0,0,2.6-8.02Z" transform="translate(-1019.284 -261.725)" fill="#dc5157"/>
      <path id="Path_705" data-name="Path 705" d="M1062.422,342.164s-3.83-.44-7.706-1.137a25,25,0,0,1-9.145-3.451c-4.933-3.173-6.024-.874-6.024-.874s1.9,4.242,10.233,6.159C1058.763,344.212,1062.422,342.164,1062.422,342.164Z" transform="translate(-1020.773 -242.904)" fill="#892f38" fill-rule="evenodd"/>
      <path id="Path_706" data-name="Path 706" d="M1061.592,329.482s-5.022,1.849-7.935,1.91c-2.145.043-6.113-3.286-6.113-3.286S1052.453,332.594,1061.592,329.482Z" transform="translate(-1004.328 -258.926)" fill="#d7494f"/>
      <path id="Path_707" data-name="Path 707" d="M1047.43,327.725s-3.335,2.081-5.594,1.947c-1.623-.095-4.361-2.836-4.361-2.836s2.54,2.133,4.664,2.247S1047.43,327.725,1047.43,327.725Z" transform="translate(-1025.034 -261.54)" fill="#d7494f"/>
      <path id="Path_708" data-name="Path 708" d="M1049.783,328.452a.83.83,0,1,0,1.009-.6A.826.826,0,0,0,1049.783,328.452Z" transform="translate(-999.778 -259.497)" fill="#fff"/>
      <path id="Path_709" data-name="Path 709" d="M1038.778,327.036a.83.83,0,1,0,1.011-.6A.833.833,0,0,0,1038.778,327.036Z" transform="translate(-1022.41 -262.407)" fill="#fff"/>
      <path id="Path_710" data-name="Path 710" d="M1039.648,315.219c1.1-.321,22.4-6.419,30.543-3.851,7.727,2.439,22.493,11.8,24.617,13.161-2.619-1.785-13.167-22.059-28.086-16.181-6.831,2.693-23.3,3.032-23.3,3.032Z" transform="translate(-1020.566 -301.752)" fill="#3a3a3a" fill-rule="evenodd" opacity="0.17"/>
      <path id="Path_711" data-name="Path 711" d="M1055.284,313.272c-.2-.128-.474-.278-.816-.465C1054.792,312.987,1055.067,313.137,1055.284,313.272Z" transform="translate(-990.089 -290.39)" fill="#680463" fill-rule="evenodd" opacity="0.4" style="mix-blend-mode: multiply;isolation: isolate"/>
      <path id="Path_712" data-name="Path 712" d="M1048.8,312.565c-.568.244-.9.391-.9.391s.134.015.382.04C1048.451,312.846,1048.623,312.715,1048.8,312.565Z" transform="translate(-1003.606 -290.888)" fill="#680463" fill-rule="evenodd" opacity="0.4" style="mix-blend-mode: multiply;isolation: isolate"/>
      <path id="Path_713" data-name="Path 713" d="M1043.7,333.231c.85-1.183,13.32-18.345,19.326-19.21,5.969-.859,14.158,6.064,14.839,6.669a.115.115,0,0,0,.049.031l7.1,2.842s-21.979-15.988-26.909-14.084C1053.342,311.328,1044.246,331.95,1043.7,333.231Z" transform="translate(-1012.229 -297.558)" fill="#3a3a3a" fill-rule="evenodd" opacity="0.17"/>
      <path id="Path_714" data-name="Path 714" d="M1051.246,313.194c4.7.88,9.827,2.085,12.33,3.549,5.386,3.142,10.239,8.268,10.5,11.569s-1.446,11.725-1.446,11.725,4.625,10.7,3.533,21.285l.553.648a72.273,72.273,0,0,1,3.582-6.947s7.788-15.172,10.6-20.72c-5.294-.624-12.734-6.144-12.734-6.144l-3.927-6.449c2.724-1.265,5.74.779,6.18,1.106-.358-.422-3.118-3.316-9.154-5.437C1067.244,315.972,1057.857,314.294,1051.246,313.194Z" transform="translate(-996.715 -289.594)" fill="#3a3a3a" fill-rule="evenodd" opacity="0.17"/>
      <path id="Path_715" data-name="Path 715" d="M1089.428,340.133s-17.853,9.191-30.562,10.291c-6.4.55-15.319-2.846-15.952-3.258a23.887,23.887,0,0,1-2.6-3.643s1.528,4.624,2.558,5.227,6.572,3.808,16.994,2.788S1089.428,340.133,1089.428,340.133Z" transform="translate(-1019.204 -234.195)" fill="#d34c4c" fill-rule="evenodd"/>
      <path id="Path_716" data-name="Path 716" d="M1051.274,330.508s-4.67-4.368-9.552-2.268l-1.373-2.653s3.451-5.385,11.374,2.934Z" transform="translate(-1019.122 -267.633)" fill="#554066"/>
      <path id="Path_717" data-name="Path 717" d="M1070.906,332.438l-15.135-3.9-.712-3.392,17.393,5.3Z" transform="translate(-988.871 -265.018)" fill="#554066"/>
      <path id="Path_718" data-name="Path 718" d="M1060.42,336.874s6.107-11.93,14-12.477c0,0,6.688.893,7.216,8.595,0,0-.578,7.876-4.5,14.154s-11.083,7.2-12.684,6.972-4.582-2.237-4.582-2.237A24.948,24.948,0,0,1,1060.42,336.874Z" transform="translate(-980.859 -266.556)" fill="#ff9d79"/>
      <path id="Path_719" data-name="Path 719" d="M1059.957,341.288s6.742-10.765,10.572-13.562l.113-.082c3.683-2.6,8.488,1.348,6.99,5.6a9.934,9.934,0,0,1-.844,1.813s-.241-3.28-1.577-4.545-3.161-1.657-3.821-.168.871,5.208-.566,8.989-5.355,5.034-6.388,4.744-1.666-4.637-1.666-4.637Z" transform="translate(-978.801 -261.593)" fill-rule="evenodd" opacity="0.58" fill="url(#linear-gradient-34)" style="mix-blend-mode: multiply;isolation: isolate"/>
      <path id="Path_720" data-name="Path 720" d="M1062.227,330.412c2.106-2.922,6.856-1,6.162,2.534l-.034.153c-1.061,5.077-3.918,5.694-4.946,5.489-.651-.128-1.614-2.433-2.231-4.108a3.411,3.411,0,0,1,.4-3.166C1061.778,331.039,1061.995,330.733,1062.227,330.412Z" transform="translate(-976.737 -257.121)" fill-rule="evenodd" opacity="0.58" fill="url(#linear-gradient-35)" style="mix-blend-mode: multiply;isolation: isolate"/>
      <path id="Path_721" data-name="Path 721" d="M1070.713,338.154,1044.571,327.9s.712,11.572,10.725,15.882S1070.713,338.154,1070.713,338.154Z" transform="translate(-1010.441 -259.352)" fill="#e4dbff" style="mix-blend-mode: soft-light;isolation: isolate"/>
      <path id="Path_722" data-name="Path 722" d="M1052.032,333.723l-18.394-7.305s.969,11.752,7.461,14.485S1052.032,333.723,1052.032,333.723Z" transform="translate(-1032.925 -262.399)" fill="#e4dbff" style="mix-blend-mode: soft-light;isolation: isolate"/>
      <path id="Path_723" data-name="Path 723" d="M1043.973,338.328c-1.4,11,5.3,21.035,14.958,22.413s18.623-6.425,20.023-17.428-5.3-21.038-14.958-22.413S1045.373,327.325,1043.973,338.328Zm19.69-14.809c8.39,1.2,14.2,9.912,12.99,19.467s-9,16.331-17.388,15.136-14.207-9.912-12.99-19.467S1055.273,322.324,1063.663,323.52Z" transform="translate(-1012.051 -274.071)" fill="#554066"/>
      <path id="Path_724" data-name="Path 724" d="M1033.409,339.578c.159,10.523,5.346,18.571,11.587,17.975s11.168-9.61,11.009-20.136-5.343-18.571-11.584-17.975S1033.25,329.051,1033.409,339.578Zm11.052-17.63c5.419-.52,9.921,6.471,10.059,15.612s-4.144,16.97-9.564,17.486-9.925-6.471-10.062-15.613S1039.039,322.465,1044.461,321.948Z" transform="translate(-1033.405 -276.81)" fill="#554066"/>
      <path id="Path_725" data-name="Path 725" d="M1039.424,344.235s6.7,7.161,9,8.69,4.579,4.459,10.753,5.055a34.082,34.082,0,0,0,15.062-1.858c4.676-1.647,12.886-4.832,19.033-9.4s11.358-16.973,11.358-16.973l2.959.293s-.819,6.095-.244,7.745,1.342,4.16,1.342,4.16-1.525,15.817-3.787,21.053-17.9,12.758-23.266,21.047-18.84,13.229-25.668,12.966-7.724-6-12.238-12.538-6.773-12.348-7.794-23.358a177.34,177.34,0,0,1-.181-23.795S1038.278,342.312,1039.424,344.235Z" transform="translate(-1029.258 -255.541)" fill="url(#linear-gradient-36)"/>
      <path id="Path_726" data-name="Path 726" d="M1042.573,343.448s2.225-1.244,8.243-2.066c3.539-.483,3.625,1.693,5.853,1.238s2.937.272,4.6.975,4.762,3.741,11.187,5.113,8.833,1,10.481-.523a16.092,16.092,0,0,0,2.943-4.734s-4.084,4.187-8.913,2.613-14.3-6.868-16.169-7.721-3.527.18-4.771-.422-2.3-1.485-3.683-1.088-3.429,1.507-5.621,1.886c-2.482.425-2.9.465-5.908-.978a5.147,5.147,0,0,1-2.733-4.875S1031.286,342.818,1042.573,343.448Z" transform="translate(-1027.954 -249.139)" fill="url(#linear-gradient-37)"/>
      <path id="Path_727" data-name="Path 727" d="M1107.313,329.867c.172-.929-2.136,22.6-9.811,29.755a146.043,146.043,0,0,1-19.1,15.087c-3.008,1.822-4.878-4.032-3.748-8.454l1.131-4.423s-6.306,9.918-6.079,13.219,3.378,6.865-2.879,9.634-15.087,6.529-19.063-3.414a62.76,62.76,0,0,1-4.1-19.971s-1.69,6.776-1.17,9.377-2.192-.782-3.763-7.935-2.46-12.746-2.46-12.746a48.774,48.774,0,0,0,1.485,22.746c3.83,11.59,7.384,12.492,9.243,17.434s4.875,7.7,13.735,6.153,16.086-7.326,20.631-12.458a108.588,108.588,0,0,1,15.46-13.925c3.332-2.262,7.73-3.27,9.215-11.985s2.378-16.19,2.378-16.19A21.013,21.013,0,0,1,1107.313,329.867Z" transform="translate(-1028.987 -255.362)" fill="#3a3a3a" opacity="0.14"/>
    </g>
    <path id="Path_728" data-name="Path 728" d="M1051.285,545.162s-14.421-60.124-5.875-106.98,28.019-88.513,28.019-88.513l-1.259,16.212s-13.5,40.648-18.507,66.922-7.042,51.85-1.659,79.352c5.333,27.245,6.5,31.084,6.5,31.084Z" transform="translate(98.625 90.889)" fill="#168ce8"/>
    <path id="Path_729" data-name="Path 729" d="M1024.887,546.518s-2.864-65.7,4.352-113.041c7.177-47.085,23.128-70.382,23.128-70.382l9.619-12.736s-21.16,48.522-26.3,81.908c-4.068,26.439-4.413,50.316-4.682,78.72-.26,27.322.049,38.927.049,38.927Z" transform="translate(60.834 92.308)" fill="#168ce8"/>
    <path id="Path_730" data-name="Path 730" d="M1024.066,403.684s7.641,13.2,34.764,16.245c35.3,3.958,55.5-9.331,55.5-9.331l.26,2.378s-10.242,13.381-51.731,11.049c-32.53-1.831-40.049-14.971-40.049-14.971Z" transform="translate(57.721 201.969)" fill="#144879"/>
    <path id="Path_731" data-name="Path 731" d="M1024.092,405.441s10.585,10.881,37.708,13.922c35.3,3.961,54.072-10,54.072-10l4.258,10.728s-16.4,15.288-57.89,12.953c-32.53-1.828-40.049-14.968-40.049-14.968Z" transform="translate(56.442 205.583)" fill="#168ce8"/>
    <path id="Path_732" data-name="Path 732" d="M1022.191,411.018a76.57,76.57,0,0,0,42.507,13.934,81.83,81.83,0,0,0,43.081-11.581l8.093-6.244s3.24,6.929,3.931,9.772-27.958,17.8-63.174,12.318C1028.261,424.794,1022.191,411.018,1022.191,411.018Z" transform="translate(56.442 209.05)" fill-rule="evenodd" opacity="0.5" fill="url(#linear-gradient-38)" style="mix-blend-mode: multiply;isolation: isolate"/>
    <g id="Group_188" data-name="Group 188" transform="translate(1109.311 521.102)">
      <path id="Path_733" data-name="Path 733" d="M1051.192,479.318a79.989,79.989,0,0,0,14.735-3.866,2.859,2.859,0,0,1-.657-1.32c.015-1.171,5.86-36.507,11.676-64.831,1.9-9.3,3.8-17.838,5.5-24.165L1055,379.881l-14-3.86s18.767,39.548,20.454,51.031C1062.547,434.476,1057.5,465.289,1051.192,479.318Z" transform="translate(-1014.19 -376.021)" fill-rule="evenodd" opacity="0.5" fill="url(#linear-gradient-39)" style="mix-blend-mode: multiply;isolation: isolate"/>
      <path id="Path_734" data-name="Path 734" d="M1041.6,415.105c-3.411-.189-6.489-.529-9.371-.941a73.145,73.145,0,0,0,11.062,1.158c.883-.012,1.824-.046,2.75-.073C1044.57,415.209,1043.137,415.194,1041.6,415.105Z" transform="translate(-1032.228 -297.581)" fill-rule="evenodd" opacity="0.5" fill="url(#linear-gradient-40)" style="mix-blend-mode: multiply;isolation: isolate"/>
    </g>
    <g id="Group_189" data-name="Group 189" transform="translate(1115.577 439.913)">
      <path id="Path_735" data-name="Path 735" d="M1069.368,429.56s-22.059-22.67-17.129-50.912l1.657-3.8S1074.118,398.109,1069.368,429.56Z" transform="translate(-998.818 -297.236)" fill="#9f90c4" fill-rule="evenodd"/>
      <path id="Path_736" data-name="Path 736" d="M1083.625,392.829c-1.8-.874-9.744-6.892-14.653-11.489s-11.639-12.663-14.6-13.381-12.171,4.609-15.637,8.405a20.2,20.2,0,0,0-4.454,7.357l4.823,2.173,8.161-6.177s-3.854,9.359-3.995,12.678l2.828,2.234.3,1.583,5.9,3.42,2.3.348,5.627,3.83s4.4.605,7-1.079c0,0,2.206,5.3,6.308,7.489,0,0,6.015,1.085,13.846-5.921l54.955,17.034s7.482-16.82-3.851-27.93C1138.477,393.4,1085.419,393.7,1083.625,392.829Z" transform="translate(-1034.278 -311.548)" fill="#ff9d79"/>
      <path id="Path_737" data-name="Path 737" d="M1087.4,349.458l8.577,18.99s13.672,25.558,24.488,41.287,14.726,19.754,18.07,25.14,7.694,36.406,7.186,39.762c0,0-10.273,4.588-18.189,5.563s-45.807-2.222-45.807-2.222l-12.865,3.805s-1.094-33.961-15.047-50.6l-2.081-.315,1.657-3.8a96.988,96.988,0,0,0,11.45,3.173c7,1.54,20.934.993,20.934.993s-9.667-21.658-9.937-34.511C1075.32,372.375,1087.4,349.458,1087.4,349.458Z" transform="translate(-998.394 -349.458)" fill-rule="evenodd" fill="url(#linear-gradient-41)"/>
      <path id="Path_738" data-name="Path 738" d="M1109.842,392.744l-8.521-3.805a4.164,4.164,0,0,0-2.986-.159l-12.229,3.992a4.2,4.2,0,0,1-1.305.2l-25.522-4.083,10.958-.006c-.523.416-.4-.932-1.348-3.176,0,0-3.246-7.317-3.111-8.1l-2.482-7.556a178.869,178.869,0,0,0,11.306,16.9,4.162,4.162,0,0,0,2.265,1.51l5.633,1.5a4.16,4.16,0,0,0,4.157-1.235l3.264-2.32h2.207c-.107,2.586,2.243.8,4.811.452l3.527-.474a4.159,4.159,0,0,1,3.307,1Z" transform="translate(-982.863 -307.105)" fill="#7c338b" fill-rule="evenodd" opacity="0.4" style="mix-blend-mode: multiply;isolation: isolate"/>
      <path id="Path_739" data-name="Path 739" d="M1052.985,375.528l16.741,17.242s31.411,15.774,53.06,23.2Z" transform="translate(-995.807 -295.845)" fill="#7c57ae" fill-rule="evenodd" opacity="0.4" style="mix-blend-mode: multiply;isolation: isolate"/>
      <path id="Path_740" data-name="Path 740" d="M1095.089,396.933l-29-8.176-8.829,10.2,12.863-3.8Z" transform="translate(-987.005 -268.641)" fill="#7c57ae" fill-rule="evenodd" opacity="0.4" style="mix-blend-mode: multiply;isolation: isolate"/>
      <path id="Path_741" data-name="Path 741" d="M1052.155,376.244s2.237,6.911,2.13,12.021l6.776,2.1s-3.46-9.524-7.87-13.965Z" transform="translate(-997.514 -294.373)" fill="#353535" fill-rule="evenodd" opacity="0.18"/>
      <path id="Path_742" data-name="Path 742" d="M1048.62,384.608l-2.3-3.33-3,1.038,5.424-5.612-1.452,3.742Z" transform="translate(-1015.681 -293.425)" fill="#d34c4c" fill-rule="evenodd"/>
    </g>
    <g id="Group_191" data-name="Group 191" transform="translate(1008.915 451.796)">
      <path id="Path_743" data-name="Path 743" d="M1028.225,377.3l5.446,4.135s-2.552,15.252-9.221,22.826-19.748,9.564-19.748,9.564a100.376,100.376,0,0,1,8.53-27.377C1019.786,373.318,1028.225,377.3,1028.225,377.3Z" transform="translate(-988.438 -305.251)" fill="#7b669a" fill-rule="evenodd"/>
      <path id="Path_744" data-name="Path 744" d="M999.381,422.7s2.589,23.351,11.529,34.807a17.876,17.876,0,0,0,4.735,4.4s13.641-30.048,16.847-33.5,6.66-3.02,6.66-3.02l15.368-3.53,6.089,1.3,5.309,2.228,7.271,3.108,22.621-75.027a.628.628,0,0,1,.034-.119l-30.6,25.769-6.856,2.873c-.015.024-.015.024-.043.009-10.56,4.487-30.207,13.033-36.739,17.183-6.321,4.025-14.622,13.855-19.085,19.436C1000.594,421.068,999.381,422.7,999.381,422.7Z" transform="translate(-999.381 -353.346)" fill-rule="evenodd" fill="url(#linear-gradient-42)"/>
      <path id="Path_745" data-name="Path 745" d="M1026.048,385.495l-3.539-8.213s-9.93-4.23-14.741-4.1a28.864,28.864,0,0,1,15.472,1.03l-2.7-4.273,7.2,6.373,13.054-2.681.245,7.265Z" transform="translate(-982.135 -319.227)" fill="#7c0477" fill-rule="evenodd" opacity="0.4" style="mix-blend-mode: multiply;isolation: isolate"/>
      <path id="Path_746" data-name="Path 746" d="M1025.544,379.115l-6.856,2.873c6,.092,10.148.174,10.148.174a34.331,34.331,0,0,1,4.514,17.832c5.117-6.477,21.769-44.31,22.756-46.529a.657.657,0,0,1,.034-.119Z" transform="translate(-959.677 -353.346)" fill="#7c57ae" fill-rule="evenodd" opacity="0.4" style="mix-blend-mode: multiply;isolation: isolate"/>
      <path id="Path_747" data-name="Path 747" d="M999.381,378.781s2.589,23.351,11.529,34.807c-8.158-15.411-8.372-38.848-8.372-38.848l-.012-.04C1000.594,377.152,999.381,378.781,999.381,378.781Z" transform="translate(-999.381 -309.43)" fill="#7c57ae" fill-rule="evenodd" opacity="0.4" style="mix-blend-mode: multiply;isolation: isolate"/>
      <g id="Group_190" data-name="Group 190" transform="translate(54.5 18.721)">
        <path id="Path_748" data-name="Path 748" d="M1074.99,499.751l8-3.246s14.711-61.79,9.729-93.259l-68.211-43.775-3.7,6.461Z" transform="translate(-1009.819 -359.471)" fill="#d1abd9"/>
        <path id="Path_749" data-name="Path 749" d="M1083.822,503.611s18.9-68.517,13.959-100.17L1022.928,360.6s-2.892,77.956-5.716,101.594Z" transform="translate(-1017.212 -357.153)" fill="#8ed4ff"/>
        <path id="Path_750" data-name="Path 750" d="M1019.082,361.8l2.875-1.786,72.981,42.878-1,1.751Z" transform="translate(-1013.367 -358.356)" fill="#5d4267"/>
        <path id="Path_751" data-name="Path 751" d="M1039.037,475.908l3.185-3.527s16.518-62.331,11.774-98.394l-1,1.751A482.76,482.76,0,0,1,1039.037,475.908Z" transform="translate(-972.329 -329.619)" fill="#5d4267"/>
        <path id="Path_752" data-name="Path 752" d="M1057.6,377.512l-5.568,5.667-27.487-16.007,8.047-5.234Z" transform="translate(-1002.137 -354.398)" fill="#45639d"/>
        <path id="Path_753" data-name="Path 753" d="M1051.916,383.916l.113-4.259-27.487-16.007.632,3.931Z" transform="translate(-1002.137 -350.877)" fill="#333d6f"/>
      </g>
      <path id="Path_754" data-name="Path 754" d="M1007.932,399.792l5.685.471a47.181,47.181,0,0,0,5.043,10.251,18.119,18.119,0,0,0,2.133,2.311c.073.061.128.116.2.177,4.612,4.359,14.515,12,21.872,14.564,6.458,2.237,11.9,3.921,11.9,3.921l1.727-2.445a15.826,15.826,0,0,0-6.523-4.97c-3.775-1.531-9.4-5.407-10.389-6.076l-.138-.1.406-.9s.22.1.608.263l.141.058c2.063.877,7.806,3.338,10.551,4.386,3.374,1.323,13.944,2.83,13.944,2.83,1.391-.116,3.784-1.944,3.784-1.944l2.136.6a4.6,4.6,0,0,0,.031-4.918c-1.611-2.574-9.824-6.752-9.824-6.752l-10.343-4.79c4.958,2.121,18.654,4.09,18.654,4.09s.544-3.078-.428-4.264c-.981-1.171-14.289-7.766-16.973-9.194s-12.681-13.843-12.681-13.843l1.232-9.7s-9.588-1.055-11.285.125c-1.708,1.2-10.312,13.876-10.312,13.876l-3-1.715C1011.658,389.9,1007.932,399.792,1007.932,399.792Z" transform="translate(-981.796 -312.15)" fill="#ff9d79"/>
      <path id="Path_755" data-name="Path 755" d="M1019.092,379.252a34.2,34.2,0,0,0-9.285,12.137l-1.874-.15s3.356-9.35,8.167-13.7Z" transform="translate(-981.794 -303.591)" fill="#3d3d3d" fill-rule="evenodd" opacity="0.23"/>
      <path id="Path_756" data-name="Path 756" d="M1012.237,386.288c4.615,4.356,14.518,12,21.875,14.561,6.455,2.24,11.9,3.921,11.9,3.921l1.727-2.445a15.824,15.824,0,0,0-6.522-4.97c-3.775-1.531-9.4-5.4-10.386-6.076l6.113,5a8.547,8.547,0,0,1-2.919,3.09S1021.678,394.929,1012.237,386.288Z" transform="translate(-972.943 -285.601)" fill-rule="evenodd" opacity="0.58" fill="url(#linear-gradient-43)" style="mix-blend-mode: multiply;isolation: isolate"/>
      <path id="Path_757" data-name="Path 757" d="M1036.71,421.7c3.374,1.323,13.944,2.83,13.944,2.83,1.391-.116,3.784-1.944,3.784-1.944l2.136.6a4.6,4.6,0,0,0,.031-4.918c-1.611-2.574-9.824-6.752-9.824-6.752l-10.343-4.79c4.958,2.121,18.654,4.09,18.654,4.09s.544-3.078-.428-4.264c-.981-1.171-14.289-7.766-16.973-9.194s-12.682-13.843-12.682-13.843l1.232-9.7s-9.588-1.055-11.285.125l21.808,25.045s-.7,4.444-1.72,6.229l-4.894-1.889a76.31,76.31,0,0,0,10.019,6.605,5.92,5.92,0,0,1-2.6,4.551l1.62.926a11.383,11.383,0,0,1-3.017,5.272l-10.01-3.359C1028.222,418.195,1033.965,420.655,1036.71,421.7Z" transform="translate(-967.349 -312.15)" fill-rule="evenodd" opacity="0.58" fill="url(#linear-gradient-44)" style="mix-blend-mode: multiply;isolation: isolate"/>
    </g>
  </g>
</svg>
