<?xml version="1.0" encoding="utf-8"?>
<!-- Generator: Adobe Illustrator 25.4.1, SVG Export Plug-In . SVG Version: 6.00 Build 0)  -->
<svg version="1.1" id="Layer_1" xmlns="http://www.w3.org/2000/svg" xmlns:xlink="http://www.w3.org/1999/xlink" x="0px" y="0px"
	 viewBox="0 0 398.7 513" style="enable-background:new 0 0 398.7 513;" xml:space="preserve">
<style type="text/css">
	.st0{fill:url(#Path_512-2_00000084494225403640192790000012557838879454498462_);}
	.st1{fill:url(#Path_512-3_00000129928432279284757140000001324823805685693079_);}
	.st2{opacity:0.1;}
	.st3{fill:#232323;}
	.st4{fill:#1B3171;}
	.st5{opacity:0.11;}
</style>
<g>
	
		<linearGradient id="Path_512-2_00000006680541151964436250000011481141884466815422_" gradientUnits="userSpaceOnUse" x1="-311.1685" y1="641.2513" x2="-310.2575" y2="641.2513" gradientTransform="matrix(395.9229 0 0 -510.6252 123215.9297 327695.375)">
		<stop  offset="0" style="stop-color:#9841D0"/>
		<stop  offset="1" style="stop-color:#4A79D4"/>
	</linearGradient>
	<path id="Path_512-2" style="fill:url(#Path_512-2_00000006680541151964436250000011481141884466815422_);" d="M2.4,336.2L24,110.1
		C30.2,55.4,67.5,13,111.4,3.2c6.6-1.5,13.3-2.2,20-2.1L162.8,1c-4.1,4.3-8.6,11.5-10.2,17.3c-2,7.2-2.1,20.1,3,32.6
		s22.2,27.9,44.6,28.2s35.3-14.3,40.8-22.8s10.3-26.5,3.7-41.3c-2-4.7-4.7-9.1-8.2-12.8l39.8,0.3c52.8,0.5,96.5,49.8,101.3,114.1
		l19.2,256.7c6.1,81.1-51.3,148.2-117.2,137L89.8,478.1C33.6,468.5-5.5,405.1,2.4,336.2z"/>
	<g transform="matrix(1, 0, 0, 1, 0, 0)">
		
			<linearGradient id="Path_512-3_00000130627911415692202180000011934585784842851499_" gradientUnits="userSpaceOnUse" x1="1.3841" y1="256.3177" x2="397.3071" y2="256.3177">
			<stop  offset="0" style="stop-color:#9841D0"/>
			<stop  offset="1" style="stop-color:#4A79D4"/>
		</linearGradient>
		<path id="Path_512-3" style="fill:url(#Path_512-3_00000130627911415692202180000011934585784842851499_);" d="M2.4,336.2
			L24,110.1C30.2,55.4,67.5,13,111.4,3.2c6.6-1.5,13.3-2.2,20-2.1L162.8,1c-4.1,4.3-8.6,11.5-10.2,17.3c-2,7.2-2.1,20.1,3,32.6
			s22.2,27.9,44.6,28.2s35.3-14.3,40.8-22.8s10.3-26.5,3.7-41.3c-2-4.7-4.7-9.1-8.2-12.8l39.8,0.3c52.8,0.5,96.5,49.8,101.3,114.1
			l19.2,256.7c6.1,81.1-51.3,148.2-117.2,137L89.8,478.1C33.6,468.5-5.5,405.1,2.4,336.2z"/>
	</g>
</g>
<g class="st2">
	<path class="st3" d="M163.3,61.4c7.5,10.7,22.4,21.4,40.9,21.6c22.3,0.3,35.3-14.3,40.8-22.8s10.3-26.5,3.7-41.3
		c-2-4.7-4.7-9.1-8.2-12.8l39.8,0.3c27.1,0.3,51.8,13.4,70.1,34.8c-18.6-24.3-44.9-39.4-74-39.7l-39.8-0.3c3.5,3.8,6.2,8.1,8.2,12.8
		c6.6,14.9,1.8,32.8-3.7,41.3s-18.5,23.1-40.8,22.8C184.5,77.9,171.5,70.3,163.3,61.4z"/>
	<path class="st3" d="M6.3,340L27.9,114C34.1,59.2,71.4,16.9,115.3,7c6.6-1.5,13.3-2.2,20-2.1l23.7-0.1c1.3-1.8,2.6-3.5,3.9-4.9
		l-31.5,0.1c-6.7-0.1-13.4,0.6-20,2.1C67.5,12,30.2,54.4,24,109.1L2.4,335.2c-4.7,41.7,7.7,81.4,30.7,108.3
		C12.6,416.8,1.8,379.3,6.3,340z"/>
</g>
<g transform="matrix(1, 0, 0, 1, 0, 0)">
	<path id="Path_513-2" class="st4" d="M19,332.6l21-213.1c6.7-59.5,45-100.8,91.1-100.8l9.5-0.2c-0.4,1.1-0.8,2.1-1.1,3.2
		c-2.4,8.8-3.7,20.2,1.9,37.2s33.2,39.6,59.3,38.5s41.5-13.6,48.2-24c5.2-6.9,18.1-31.4,9.4-51.7h14.4c45.7,0.4,84.5,44.5,88.5,103
		l18.3,241.9c5.6,76.7-48.2,136.8-109.3,126.3l-167.1-30C46.6,452.8,11.8,397.7,19,332.6z"/>
</g>
<g class="st5">
	<path class="st3" d="M385.4,371.8l-20-238.2c-2.2-31.1-11-58.4-28.6-76.9c13.7,17.9,22.7,41.6,24.6,68.2l18.3,241.9
		c5.6,76.7-48.2,136.8-109.3,126.3l-167.1-30c-21.5-3.8-39.8-14.1-53.9-29c14.8,19.4,38.1,30.6,63.5,35l156.6,29.4
		C330.5,509,391,448.4,385.4,371.8z"/>
</g>
</svg>
