<?xml version="1.0" encoding="utf-8"?>
<!-- Generator: Adobe Illustrator 25.4.1, SVG Export Plug-In . SVG Version: 6.00 Build 0)  -->
<svg version="1.1" id="Group_153" xmlns="http://www.w3.org/2000/svg" xmlns:xlink="http://www.w3.org/1999/xlink" x="0px" y="0px"
	 viewBox="0 0 79.5 125.1" style="enable-background:new 0 0 79.5 125.1;" xml:space="preserve">
<style type="text/css">
	.st0{opacity:0.19;fill:#FFFFFF;enable-background:new    ;}
	.st1{fill:url(#Path_455_00000176751079825074533070000016793518289197524921_);}
	.st2{fill:url(#Path_456_00000150079564229282494030000015019561505556424095_);}
	.st3{opacity:0.23;fill:#F9F9F9;enable-background:new    ;}
	.st4{opacity:0.19;fill:#2D2D2D;enable-background:new    ;}
	.st5{opacity:0.44;fill:#CCCCCC;enable-background:new    ;}
	.st6{opacity:0.2;fill:url(#Path_473_00000040569604462364900220000011321136254449087386_);enable-background:new    ;}
	.st7{fill:#FFFFFF;}
	.st8{opacity:0.2;fill:url(#Path_476_00000076586178857747698260000008638637859405127054_);enable-background:new    ;}
	.st9{opacity:0.2;fill:url(#Path_479_00000047761758205360859370000018325958336869134515_);enable-background:new    ;}
	.st10{opacity:0.2;fill:url(#Path_482_00000165957065824961874550000007330991201131073164_);enable-background:new    ;}
	.st11{opacity:0.69;fill:url(#Path_486_00000052784063365693166730000016596031008089432744_);enable-background:new    ;}
	.st12{opacity:0.69;fill:url(#Path_489_00000170970034513053068180000016368576728594438813_);enable-background:new    ;}
	.st13{opacity:0.69;fill:url(#Path_492_00000114764513683632393370000008224807864460057773_);enable-background:new    ;}
	.st14{opacity:0.69;fill:url(#Path_495_00000131363523530666914960000007192782496807076507_);enable-background:new    ;}
	.st15{opacity:0.69;fill:url(#Path_498_00000015318186307751493740000006820332891423496103_);enable-background:new    ;}
	.st16{opacity:0.54;fill:#FFFFFF;enable-background:new    ;}
	.st17{opacity:0.44;fill:#383838;enable-background:new    ;}
</style>
<g>
	<g id="Group_113_00000008860170098033855600000016110951338127703945_" transform="translate(0)">
		<path id="Path_453_00000023972763199809944000000004692354990042270370_" class="st0" d="M29.7,11.2c0,0-0.4,21.7-0.7,24.5
			c-0.7,5.5-3.5,10.5-7.8,14.1c-5.7,4.5-12.2,6.7-18,19.8s-2.7,28.1,2.1,35.6s15.2,19,33.9,19.8c18.7,0.8,33.9-13.9,38-26.2
			s2-19.4,0.3-25.8s-7.3-14.5-11.3-17.5s-12-8.1-13.4-16.2s-0.3-27.9-0.3-27.9s-4.3,2.5-12.2,2.4C33.1,13.7,29.7,11.2,29.7,11.2z"/>
		<path id="Path_454_00000044156843352965280700000002771001609859056795_" class="st0" d="M26.3,3.5c0,0,0.6,3.7,14.5,4
			c12.7,0.2,15.5-3.6,15.5-3.7c0-0.1-0.2,4.1-0.2,4.1s-0.4,2.3-3.6,3.6c-4.3,1.8-9,2.6-13.7,2.2c-6.5-0.4-9.1-2.4-9.1-2.4
			c-1.1-0.6-2-1.3-2.8-2.3c-0.5-0.8-0.8-1.8-0.8-2.7C26.1,5.3,26.1,4.4,26.3,3.5z"/>
		
			<linearGradient id="Path_455_00000023267093563151542530000000729528775939715992_" gradientUnits="userSpaceOnUse" x1="-930.0748" y1="32.1614" x2="-930.8638" y2="32.0434" gradientTransform="matrix(74.846 0 0 17.7998 69680.9844 -484.9563)">
			<stop  offset="0" style="stop-color:#8441D0"/>
			<stop  offset="1" style="stop-color:#C64AD4"/>
		</linearGradient>
		
			<path id="Path_455_00000078737768042661023460000006702142926131758738_" style="fill:url(#Path_455_00000023267093563151542530000000729528775939715992_);" d="
			M2,85c0,0,5.5,9.3,28,9.9s38.7-8.9,41.4-11c1.9-1.5,3.8-2.9,5.4-4.8c0,0-17.4,6.5-31,3.6s-24.9-7.2-33.3-5.2S2.7,83.7,2,85z"/>
		
			<linearGradient id="Path_456_00000142151175472652271610000004225353647580436367_" gradientUnits="userSpaceOnUse" x1="-930.8333" y1="13.3913" x2="-930.1968" y2="13.1235" gradientTransform="matrix(75.544 0 0 43.8899 70338.4609 -482.9097)">
			<stop  offset="0" style="stop-color:#8441D0"/>
			<stop  offset="1" style="stop-color:#C64AD4"/>
		</linearGradient>
		
			<path id="Path_456_00000069387149812456072980000002163514272603580841_" style="fill:url(#Path_456_00000142151175472652271610000004225353647580436367_);" d="
			M2.3,90.2c0,0,1.4,11.8,9.3,20s18.8,15.2,35.9,11.9s25.1-17,27.7-24.3c2.6-7.3,2.4-12.1,2.2-14.7c-0.1-1.4-0.3-2.7-0.6-4
			c0,0-7.7,9.1-25.1,13s-28,2.7-35.1,0.8c-6.5-1.7-9.2-3-11.5-5C4,86.9,3,86.1,2,85C1.9,86.7,2,88.5,2.3,90.2z"/>
		<path id="Path_457_00000143607470422621473070000005492917444239048099_" class="st3" d="M20.1,54.8c0,0-8.5,6.5-5.9,12.5
			s12.6,2.4,18.1-3.8s1.8-13.7-2.6-12.7S21.7,53.4,20.1,54.8z"/>
		<path id="Path_458_00000170960054343775954900000007869443877279398570_" class="st4" d="M62.9,72.2c0,0,2.2,16.3-3.9,25.8
			s-9.6,12.5-6.1,14.8s14.9-0.7,18.9-10.8s5-20.8,3.2-27.4s-6.5-8.3-9.2-7.1C63.8,68.2,62.6,70.2,62.9,72.2z"/>
		<path id="Path_459_00000012471923727786591960000013837652729377505449_" class="st4" d="M45.7,33.9c0,0-0.5,10.6,3,16.1
			s7.8,7.2,9.1,6.9c1.3-0.3,2.3-1.7-0.3-3.7c-3.5-2.8-6-6.6-7.3-10.8c-1.4-4.9,0-10.9-1.1-12.2C48,28.8,45.9,29,45.7,31
			C45.6,32,45.5,32.9,45.7,33.9z"/>
		<path id="Path_460_00000116211401641403183850000013210164569877811884_" class="st3" d="M32.2,18.9c0,0-0.5,13.9-0.6,16.6
			s-1.1,6.2,1.2,6s3.2-1.8,2.8-6s-0.9-15.8-0.8-17.2s-0.1-2.1-1.3-2C32.2,16.5,32.2,18.9,32.2,18.9z"/>
		<path id="Path_461_00000114062672461287865800000001944823671106942631_" class="st3" d="M34.9,8.5c0,0,0.2,3.1-1.1,3.1
			S32,9.1,32.3,7.8s1.3-0.7,1.9-0.5S34.9,8.5,34.9,8.5z"/>
		<path id="Path_462_00000075854157716782330470000008800683023187377538_" class="st4" d="M47.3,7.7c-0.9,0.1-1.5,0.8-1.4,1.7v0.1
			c0.2,1.7-0.1,2.6,1.8,2.4s2.8-0.1,2.8-2.1s-1-2.3-1.8-2.3C47.8,7.6,47.3,7.7,47.3,7.7z"/>
		<path id="Path_463_00000169544144886359152390000009159329568216398254_" class="st5" d="M55.5,2.6c-1.3-0.8-3.9-2.5-12-2.6
			S32.4,0.5,30.6,1c-1.2,0.3-2.3,0.8-3.4,1.4c-1.2,0.7-1.1,1.2-0.7,1.9s3.2,3.1,13.6,3.3s13.2-1.9,14.5-2.3
			C55.9,4.7,56.8,3.4,55.5,2.6z M48.2,4.5c-0.7,0.3-2.2,1.4-7.8,1.3s-7-1.4-7.3-1.8c-0.2-0.4-0.3-0.6,0.4-1c0.6-0.3,1.2-0.6,1.8-0.7
			c1-0.2,2.6-0.5,6.9-0.5s5.7,0.9,6.4,1.4C49.4,3.6,48.9,4.2,48.2,4.5L48.2,4.5z"/>
	</g>
	<g>
		
			<radialGradient id="Path_473_00000061430553619950523660000002151894654016968832_" cx="-838.0723" cy="70.6499" r="0.4996" gradientTransform="matrix(7.9901 0 0 7.99 6730.8579 -495.9313)" gradientUnits="userSpaceOnUse">
			<stop  offset="0" style="stop-color:#000000"/>
			<stop  offset="1" style="stop-color:#A445D2"/>
		</radialGradient>
		
			<path id="Path_473_00000087379222841716283890000005949260709743868339_" style="opacity:0.2;fill:url(#Path_473_00000061430553619950523660000002151894654016968832_);enable-background:new    ;" d="
			M38.6,68.6c0,2.2-1.8,4-4,4s-4-1.8-4-4s1.8-4,4-4l0,0C36.8,64.6,38.6,66.4,38.6,68.6L38.6,68.6z"/>
		<path id="Path_474_00000052803956340764541440000003076346075164799369_" class="st7" d="M37.5,66.5c0.4,0.7,0.3,1.5-0.1,1.7
			c-0.4,0.2-1-0.2-1.4-0.9s-0.3-1.5,0.1-1.7C36.5,65.4,37.2,65.8,37.5,66.5z"/>
		<path id="Path_475_00000084506175903458688430000007284243123712867969_" class="st7" d="M32.4,70.3c0.2,0.3,0.1,0.6,0,0.7
			c-0.2,0.1-0.4-0.1-0.6-0.4c-0.2-0.3-0.1-0.6,0-0.7C32,69.8,32.2,70,32.4,70.3z"/>
		
			<radialGradient id="Path_476_00000110441802549545391610000016643840830034962353_" cx="-829.3721" cy="76.5521" r="0.4996" gradientTransform="matrix(7.37 0 0 7.37 6161.8125 -503.7531)" gradientUnits="userSpaceOnUse">
			<stop  offset="0" style="stop-color:#000000"/>
			<stop  offset="1" style="stop-color:#A445D2"/>
		</radialGradient>
		
			<path id="Path_476_00000003808780413602011680000010884605671744659378_" style="opacity:0.2;fill:url(#Path_476_00000110441802549545391610000016643840830034962353_);enable-background:new    ;" d="
			M53,60.4c0,2-1.6,3.7-3.7,3.7s-3.7-1.6-3.7-3.7s1.6-3.7,3.7-3.7l0,0C51.4,56.8,53,58.4,53,60.4L53,60.4z"/>
		<path id="Path_477_00000077322474494354494850000009245651341516097671_" class="st7" d="M52.1,58.6c0.3,0.7,0.3,1.4-0.1,1.6
			c-0.4,0.2-1-0.2-1.3-0.8c-0.3-0.7-0.3-1.4,0.1-1.6C51.1,57.5,51.7,57.9,52.1,58.6z"/>
		<path id="Path_478_00000051368802409343973200000015365018886727232384_" class="st7" d="M47.3,62c0.1,0.3,0.1,0.6,0,0.6
			c-0.2,0.1-0.4-0.1-0.5-0.3c-0.1-0.3-0.1-0.6,0-0.6C46.9,61.6,47.2,61.8,47.3,62z"/>
		
			<radialGradient id="Path_479_00000060032319322206426630000002429231157514427819_" cx="-818.3062" cy="84.0597" r="0.4994" gradientTransform="matrix(6.7081 0 0 6.708 5525.9795 -521.1155)" gradientUnits="userSpaceOnUse">
			<stop  offset="0" style="stop-color:#000000"/>
			<stop  offset="1" style="stop-color:#A445D2"/>
		</radialGradient>
		
			<path id="Path_479_00000181075961162443185300000013061107030565904534_" style="opacity:0.2;fill:url(#Path_479_00000060032319322206426630000002429231157514427819_);enable-background:new    ;" d="
			M40.1,42.8c0,1.9-1.5,3.4-3.4,3.4s-3.4-1.5-3.4-3.4s1.5-3.4,3.4-3.4C38.6,39.4,40.1,40.9,40.1,42.8z"/>
		<path id="Path_480_00000065058696564713807010000010733063209297531787_" class="st7" d="M39.2,41c0.3,0.6,0.3,1.2-0.1,1.4
			c-0.4,0.2-0.9-0.1-1.2-0.7c-0.3-0.6-0.3-1.2,0.1-1.4C38.3,40.1,38.9,40.4,39.2,41z"/>
		<path id="Path_481_00000085966205902094137850000017103288787344148667_" class="st7" d="M34.9,44.2c0.1,0.2,0.1,0.5,0,0.6
			s-0.4-0.1-0.5-0.3s-0.1-0.5,0-0.6C34.5,43.8,34.7,44,34.9,44.2z"/>
		
			<radialGradient id="Path_482_00000148642301700259656140000017126786019968788896_" cx="-804.4993" cy="93.4264" r="0.4996" gradientTransform="matrix(6.032 0 0 6.032 4896.2061 -535.7098)" gradientUnits="userSpaceOnUse">
			<stop  offset="0" style="stop-color:#000000"/>
			<stop  offset="1" style="stop-color:#A445D2"/>
		</radialGradient>
		
			<path id="Path_482_00000139263465524731941720000015882482926285758858_" style="opacity:0.2;fill:url(#Path_482_00000148642301700259656140000017126786019968788896_);enable-background:new    ;" d="
			M46.5,27.8c0,1.7-1.3,3-3,3s-3-1.3-3-3s1.3-3,3-3l0,0C45.1,24.8,46.5,26.2,46.5,27.8z"/>
		<path id="Path_483_00000105395915403459635280000003324238062864774315_" class="st7" d="M45.7,26.3c0.3,0.5,0.2,1.1-0.1,1.3
			c-0.3,0.2-0.8-0.1-1.1-0.7s-0.2-1.1,0.1-1.3C44.9,25.5,45.4,25.8,45.7,26.3z"/>
		<path id="Path_484_00000159432668930192431220000014242756388580315280_" class="st7" d="M41.8,29.2c0.1,0.2,0.1,0.5,0,0.5
			c-0.1,0.1-0.3-0.1-0.4-0.3c-0.1-0.2-0.1-0.5,0-0.5C41.5,28.8,41.7,28.9,41.8,29.2z"/>
	</g>
	<g>
		
			<radialGradient id="Path_486_00000152228869042822355860000009530718764477101468_" cx="-763.847" cy="121.2976" r="0.6469" gradientTransform="matrix(4.646 0 0 4.6539 3587.0813 -479.0471)" gradientUnits="userSpaceOnUse">
			<stop  offset="5.327789e-09" style="stop-color:#100C0B;stop-opacity:0.4"/>
			<stop  offset="1" style="stop-color:#FFFFFF;stop-opacity:0.1"/>
		</radialGradient>
		
			<path id="Path_486_00000160171982867471403430000014022903025801852585_" style="opacity:0.69;fill:url(#Path_486_00000152228869042822355860000009530718764477101468_);enable-background:new    ;" d="
			M37.6,87.6c1.4,0.2,2.7,0.2,4.1-0.2c0.4-1.9-0.7-3.8-2.7-4.3c-1.9-0.4-3.8,0.7-4.3,2.7c-0.1,0.3-0.1,0.5-0.1,0.8
			c0,0.1,0,0.1,0,0.1C35.7,87.2,36.6,87.5,37.6,87.6z"/>
		
			<radialGradient id="Path_489_00000151525722647678008490000015138219795943338160_" cx="-793.3309" cy="155.1324" r="0.6465" gradientTransform="matrix(5.5706 0 0 3.6356 4444.3447 -475.2825)" gradientUnits="userSpaceOnUse">
			<stop  offset="5.327789e-09" style="stop-color:#100C0B;stop-opacity:0.4"/>
			<stop  offset="1" style="stop-color:#FFFFFF;stop-opacity:0.1"/>
		</radialGradient>
		
			<path id="Path_489_00000060717381274092446100000005437674604798493089_" style="opacity:0.69;fill:url(#Path_489_00000151525722647678008490000015138219795943338160_);enable-background:new    ;" d="
			M24.5,90.4c1.1,0.2,2.2,0.1,3.2-0.1c0.3-1.5-0.6-3-2.1-3.3s-3,0.6-3.3,2.1c0,0.2-0.1,0.4-0.1,0.6v0.1C23,90.1,23.8,90.3,24.5,90.4
			z"/>
		
			<radialGradient id="Path_492_00000163050066724654331810000018154568739484604816_" cx="-730.2252" cy="116.1906" r="0.6265" gradientTransform="matrix(4.1256 0.3986 -0.399 4.131 3073.4441 -105.1453)" gradientUnits="userSpaceOnUse">
			<stop  offset="5.327789e-09" style="stop-color:#100C0B;stop-opacity:0.4"/>
			<stop  offset="1" style="stop-color:#FFFFFF;stop-opacity:0.1"/>
		</radialGradient>
		
			<path id="Path_492_00000087382236072164635620000014934825054330010028_" style="opacity:0.69;fill:url(#Path_492_00000163050066724654331810000018154568739484604816_);enable-background:new    ;" d="
			M13.8,85.6c1.2,0.3,2.4,0.4,3.5,0.2c0.5-1.6-0.3-3.4-1.9-3.9s-3.4,0.3-3.9,1.9c-0.1,0.2-0.1,0.5-0.1,0.7v0.1
			C12.1,85.1,13,85.4,13.8,85.6z"/>
		
			<radialGradient id="Path_495_00000004512277313139902640000009625586611022968992_" cx="-889.4896" cy="162.2405" r="0.6465" gradientTransform="matrix(3.9597 -0.6804 0.6811 3.9639 3464.5054 -1160.3308)" gradientUnits="userSpaceOnUse">
			<stop  offset="5.327789e-09" style="stop-color:#100C0B;stop-opacity:0.4"/>
			<stop  offset="1" style="stop-color:#FFFFFF;stop-opacity:0.1"/>
		</radialGradient>
		
			<path id="Path_495_00000072273295346606979450000017314234498060860339_" style="opacity:0.69;fill:url(#Path_495_00000004512277313139902640000009625586611022968992_);enable-background:new    ;" d="
			M48.5,90L48.5,90c0-0.3-0.1-0.6,0-0.8c0.1-1.7,1.5-3,3.2-2.9s3,1.5,2.9,3.2c-1.1,0.5-2.3,0.7-3.5,0.7C50.2,90.2,49.3,90.1,48.5,90
			z"/>
		
			<radialGradient id="Path_498_00000000935406849645496950000003323191877980867464_" cx="-1115.9089" cy="159.7122" r="0.6135" gradientTransform="matrix(-4.1847 0.6008 0.6004 4.1885 -4707.4902 86.8092)" gradientUnits="userSpaceOnUse">
			<stop  offset="5.327789e-09" style="stop-color:#100C0B;stop-opacity:0.4"/>
			<stop  offset="1" style="stop-color:#FFFFFF;stop-opacity:0.1"/>
		</radialGradient>
		
			<path id="Path_498_00000015355609460140273310000016369757450715409592_" style="opacity:0.69;fill:url(#Path_498_00000000935406849645496950000003323191877980867464_);enable-background:new    ;" d="
			M62.6,86.9c-1.1,0.4-2.3,0.5-3.5,0.4c-0.6-1.6,0.2-3.4,1.8-4s3.4,0.2,4,1.8c0.1,0.2,0.1,0.4,0.2,0.7v0.1
			C64.2,86.3,63.4,86.7,62.6,86.9z"/>
		<path id="Path_485_00000080168074373920722050000010952569816867832507_" class="st16" d="M40.8,84.8c0.3,0.6,0.3,1.3-0.1,1.5
			c-0.4,0.2-1-0.1-1.3-0.8c-0.3-0.6-0.3-1.3,0.1-1.5S40.5,84.2,40.8,84.8z"/>
		<path id="Path_487_00000080186624931740856160000001308804260525823405_" class="st17" d="M39,88.4c2.5,0,3.3-1.2,3.3-1.2
			c-1.5,0.6-3.1,0.8-4.6,0.5c-1.2-0.1-2.4-0.5-3.4-1.1C34.3,86.6,35.1,88.4,39,88.4z"/>
		<path id="Path_488_00000166638515577925995830000015189968861012700089_" class="st16" d="M27.1,88.2c0.3,0.5,0.2,1-0.1,1.2
			c-0.3,0.2-0.8-0.1-1-0.6c-0.3-0.5-0.2-1,0.1-1.2C26.3,87.5,26.8,87.8,27.1,88.2z"/>
		<path id="Path_490_00000183210078205343637690000017757704081986772885_" class="st17" d="M25.6,91c2,0,2.6-1,2.6-1
			c-1.1,0.5-2.4,0.6-3.6,0.4c-0.9-0.1-1.9-0.4-2.7-0.9C21.9,89.6,22.6,91,25.6,91z"/>
		<path id="Path_491_00000035516779273595986440000006968797632483886002_" class="st16" d="M16.8,83.5c0.2,0.6,0.1,1.1-0.2,1.3
			c-0.3,0.1-0.8-0.2-1-0.8c-0.2-0.6-0.1-1.1,0.2-1.3C16.1,82.5,16.6,82.9,16.8,83.5z"/>
		<path id="Path_493_00000168798921692267253660000005029575273453871239_" class="st17" d="M14.9,86.4c2.2,0.2,2.9-0.8,2.9-0.8
			c-1.3,0.4-2.7,0.4-4,0c-1-0.2-2-0.6-2.9-1.2C11,84.4,11.6,86,14.9,86.4z"/>
		<path id="Path_494_00000085215578587989925130000005088468559617755319_" class="st16" d="M49.2,87.6c-0.3,0.5-0.2,1.1,0.1,1.3
			c0.3,0.2,0.8-0.1,1.1-0.7c0.3-0.5,0.2-1.1-0.1-1.3C50,86.8,49.5,87.1,49.2,87.6z"/>
		<path id="Path_497_00000142141350707335300190000002408608535008260525_" class="st16" d="M59.5,84.9c-0.2,0.6-0.1,1.2,0.3,1.3
			s0.8-0.2,1-0.8c0.2-0.6,0.1-1.2-0.3-1.3S59.7,84.4,59.5,84.9z"/>
		<path id="Path_499_00000048499175634522411160000017901998497101242556_" class="st17" d="M61.5,87.8c-2.2,0.3-3-0.6-3-0.6
			c1.3,0.3,2.7,0.3,4-0.1c1-0.3,2-0.7,2.8-1.4C65.3,85.6,64.8,87.3,61.5,87.8z"/>
		<path id="Path_496_00000005985096583852538330000001285899943762778533_" class="st17" d="M50.7,90.7c-2.2,0-2.9-1.1-2.9-1.1
			c1.3,0.5,2.7,0.7,4,0.4c1-0.1,2-0.4,3-1C54.9,89.1,54.1,90.7,50.7,90.7z"/>
	</g>
</g>
</svg>
