<?xml version="1.0" encoding="utf-8"?>
<!-- Generator: Adobe Illustrator 25.4.1, SVG Export Plug-In . SVG Version: 6.00 Build 0)  -->
<svg version="1.1" id="Layer_1" xmlns="http://www.w3.org/2000/svg" xmlns:xlink="http://www.w3.org/1999/xlink" x="0px" y="0px"
	 viewBox="0 0 1483.2 703.4" style="enable-background:new 0 0 1483.2 703.4;" xml:space="preserve">
<style type="text/css">
	.st0{opacity:0.12;fill:#FFFFFF;enable-background:new    ;}
	.st1{fill:url(#Path_543_00000057144569338286262680000013075299818454522506_);}
	.st2{fill:none;stroke:#05ABD7;stroke-miterlimit:10;}
	.st3{opacity:0.19;fill:#FFFFFF;enable-background:new    ;}
	.st4{fill:url(#Path_455_00000118360261187321097050000000047573292981912227_);}
	.st5{fill:url(#Path_456_00000142857378756709823300000009230825545088853398_);}
	.st6{opacity:0.23;fill:#F9F9F9;enable-background:new    ;}
	.st7{opacity:0.19;fill:#2D2D2D;enable-background:new    ;}
	.st8{opacity:0.44;fill:#CCCCCC;enable-background:new    ;}
	.st9{opacity:0.2;fill:url(#Path_473_00000050626302184490263500000001771707281799048370_);enable-background:new    ;}
	.st10{fill:#58FFFE;}
	.st11{opacity:0.2;fill:url(#Path_476_00000009575498916904619420000005846721535579671974_);enable-background:new    ;}
	.st12{opacity:0.2;fill:url(#Path_479_00000095323155671859289170000015564648668649267364_);enable-background:new    ;}
	.st13{opacity:0.2;fill:url(#Path_482_00000088105859120830842730000013779457983183383198_);enable-background:new    ;}
	.st14{opacity:0.67;fill:#58FFFE;enable-background:new    ;}
	.st15{opacity:0.69;fill:url(#Path_486_00000064318374262074772420000012991860712235945391_);enable-background:new    ;}
	.st16{opacity:0.44;fill:#383838;enable-background:new    ;}
	.st17{opacity:0.69;fill:url(#Path_489_00000109739710887046537780000011959451043486687641_);enable-background:new    ;}
	.st18{opacity:0.69;fill:url(#Path_492_00000158749834438365382020000000703574616298972820_);enable-background:new    ;}
	.st19{opacity:0.69;fill:url(#Path_495_00000156582859553071081250000007915082581743961750_);enable-background:new    ;}
	.st20{opacity:0.69;fill:url(#Path_498_00000108270965315609736730000003895096723447294353_);enable-background:new    ;}
	.st21{opacity:0.26;fill:#FFFFFF;enable-background:new    ;}
	.st22{opacity:0.17;fill:#FFFFFF;enable-background:new    ;}
	.st23{opacity:0.86;}
	.st24{fill:#FFFFFF;}
</style>
<g id="Group_306" transform="translate(-233.788 -2375.63)">
	<g id="Group_171" transform="translate(259.614 2336.547)">
		<path id="Path_542" class="st0" d="M1392,176.5l0-0.8c-0.1-1.3,2.5-34.8-14.4-65.8c-16-29.4-53.2-61.7-117.3-61.7
			c-34.5,0-62,10.9-81.9,32.5c-36.1,39.2-33.1,99.6-32.6,106.6l-0.1,99.4h-0.2l-0.3,296.6l0,1c0,0.5,4,55.3-25.9,87.7
			c-14.8,16-35.9,24.1-62.8,24.1c-41,0-74.2-16.2-92.7-49.5c-13.6-24.5-13-50.3-13.2-53.4V342h0V167.8l0-0.8
			c-0.1-1.3,1.3-33.3-15.6-64.3c-16-29.4-51.9-63.2-116.1-63.2c-34.5,0-62,10.9-81.9,32.5c-36.1,39.2-33.1,99.6-32.6,106.6
			l-0.1,99.4h-0.2l-0.3,296.6l0,1c0,0.5,4,55.3-25.9,87.7c-14.8,16-35.9,24.1-62.8,24.1c-41,0-75-15.2-93.4-48.5
			c-13.6-24.5-12.2-51.4-12.4-54.4V333.4h0V167.8l0-0.8c-0.1-1.3,2.2-32.9-14.7-63.9c-16-29.4-52.8-63.6-117-63.6
			c-34.5,0-62,10.9-81.9,32.5c-36.1,39.2-33.1,99.5-32.6,106.6l-0.1,99.4h-0.2l-0.2,296.6l0,1c0,0.5,4,55.3-25.9,87.7
			c-14.8,16-35.9,24.1-62.8,24.1c-41,0-73.3-17.5-91.8-50.8c-13.6-24.5-13.9-49.1-14.1-52.1V277.3h-0.5c-1.6-1.5-6.5-2.6-12.4-2.6
			s-10.8,1.1-12.4,2.6h-0.5V585l0,0.8c0.7,21.9,6.5,43.2,16.8,62.5c16,29.4,50.7,65,114.9,65c34.5,0,62-10.9,81.9-32.5
			c36.1-39.2,33.1-99.6,32.6-106.6l0.1-99.4h0.2l0.3-296.6l0-1c0-0.5-4-55.3,25.9-87.7c14.8-16,35.9-24.1,62.8-24.1
			c41,0,75.4,16.1,93.9,49.4c13.6,24.5,11.7,50.5,12,53.5v251.1h0V585l0,0.8c0.1,1.3-1.7,33.8,15.2,64.8
			c16,29.4,52.4,62.7,116.5,62.7c34.5,0,62-10.9,81.9-32.5c36.1-39.2,33.1-99.5,32.6-106.6l0.1-99.4h0.2l0.2-296.6l0-1
			c0-0.6-4-55.3,25.9-87.7c14.8-16,35.9-24.1,62.8-24.1c41,0,74.6,15.7,93,49c13.6,24.5,12.6,50.9,12.9,53.9v206.1h0v219.2l0,0.8
			c0.1,1.3-1,32.7,15.9,63.8c16,29.4,51.6,63.7,115.7,63.7c34.5,0,62-10.9,81.9-32.5c36.1-39.2,33.1-99.5,32.6-106.6l0.1-99.4h0.2
			l0.2-296.6l0-1c0-0.6-4-55.3,25.9-87.7c14.8-16,35.9-24.1,62.8-24.1c41,0,75.8,14.2,94.2,47.5c13.6,24.5,11.4,52.4,11.7,55.4
			v295.9c0,0,0,0.1,0,0.1c0,2,5.8,3.6,12.9,3.6s12.9-1.6,12.9-3.6h0L1392,176.5z"/>
		
			<linearGradient id="Path_543_00000042732171157696637930000000230221512509243048_" gradientUnits="userSpaceOnUse" x1="580.4061" y1="436.0385" x2="581.4061" y2="436.0385" gradientTransform="matrix(790.4758 0 0 -673.6444 -458754.5938 294111.3125)">
			<stop  offset="0" style="stop-color:#B442ED"/>
			<stop  offset="1" style="stop-color:#11EAAA"/>
		</linearGradient>
		<path id="Path_543" style="fill:url(#Path_543_00000042732171157696637930000000230221512509243048_);" d="M818.9,39.6
			c-34.5,0-62,10.9-81.9,32.5c-36.1,39.2-33.1,99.6-32.6,106.6l-0.1,99.4h-0.2L704,574.6l0,1c0,0.5,4,55.3-25.9,87.7
			c-14.8,16-35.9,24.1-62.8,24.1c-41,0-75-15.2-93.4-48.5c-13.6-24.5-12.2-51.4-12.4-54.4V333.4h0V167.8l0-0.8
			c-0.1-1.3,2.2-32.9-14.7-63.9c-16-29.4-52.8-63.6-117-63.6c-34.5,0-62,10.9-81.9,32.5c-36.1,39.2-33.1,99.5-32.6,106.6l-0.1,99.4
			H263l-0.2,296.6l0,1c0,0.5,4,55.3-25.9,87.7c-14.8,16-35.9,24.1-62.8,24.1c-41,0-73.3-17.5-91.8-50.8
			c-13.6-24.5-13.9-49.1-14.1-52.1V277.3h-0.5c-1.6-1.5-6.5-2.6-12.4-2.6s-10.8,1.1-12.4,2.6h-0.6V585l0,0.8
			c0.7,21.9,6.5,43.2,16.8,62.5c16,29.4,50.7,65,114.9,65c34.5,0,62-10.9,81.9-32.5c36.1-39.2,33.1-99.6,32.6-106.6l0.1-99.4h0.2
			l0.3-296.6l0-1c0-0.5-4-55.3,25.9-87.7c14.8-16,35.9-24.1,62.8-24.1c41,0,75.5,16.1,93.9,49.4c13.6,24.5,11.7,50.5,12,53.5v251.1
			h0V585l0,0.8c0.1,1.3-1.7,33.8,15.2,64.8c16,29.4,52.4,62.7,116.5,62.7c34.5,0,62-10.9,81.9-32.5c36.1-39.2,33.1-99.5,32.6-106.6
			l0.1-99.4h0.2l0.2-296.6l0-1c0-0.6-4-55.3,25.9-87.7c14.8-16,35.9-22.9,62.8-24.1C840,64.6,834.8,39.6,818.9,39.6z"/>
		<path id="Path_544" class="st2" d="M1392,176.5l0-0.8c-0.1-1.3,2.5-34.8-14.4-65.8c-16-29.4-53.2-61.7-117.3-61.7
			c-34.5,0-62,10.9-81.9,32.5c-36.1,39.2-33.1,99.6-32.6,106.6l-0.1,99.4h-0.2l-0.3,296.6l0,1c0,0.5,4,55.3-25.9,87.7
			c-14.8,16-35.9,24.1-62.8,24.1c-41,0-74.2-16.2-92.7-49.5c-13.6-24.5-13-50.3-13.2-53.4V342h0l0-131.4l0-42.8l0-0.8
			c-0.1-1.3,1.3-33.3-15.6-64.3c-16-29.4-51.9-63.2-116.1-63.2c-34.5,0-62,10.9-81.9,32.5c-36.1,39.2-33.1,99.6-32.6,106.6
			l-0.1,99.4h-0.2l-0.3,296.6l0,1c0,0.5,4,55.3-25.9,87.7c-14.8,16-35.9,24.1-62.8,24.1c-41,0-75-15.2-93.4-48.5
			c-13.6-24.5-12.2-51.4-12.4-54.4V333.4h0V167.8l0-0.8c-0.1-1.3,2.2-32.9-14.7-63.9c-16-29.4-52.8-63.6-117-63.6
			c-34.5,0-62,10.9-81.9,32.5c-36.1,39.2-33.1,99.5-32.6,106.6l-0.1,99.4h-0.2l-0.2,296.6l0,1c0,0.5,4,55.3-25.9,87.7
			c-14.8,16-35.9,24.1-62.8,24.1c-41,0-73.3-17.5-91.8-50.8c-13.6-24.5-13.9-49.1-14.1-52.1V277.3h-0.5c-1.6-1.5-6.5-2.6-12.4-2.6
			s-10.8,1.1-12.4,2.6h-0.5V585l0,0.8c0.7,21.9,6.5,43.2,16.8,62.5c16,29.4,50.7,65,114.9,65c34.5,0,62-10.9,81.9-32.5
			c36.1-39.2,33.1-99.6,32.6-106.6l0.1-99.4h0.2l0.3-296.6l0-1c0-0.5-4-55.3,25.9-87.7c14.8-16,35.9-24.1,62.8-24.1
			c41,0,75.4,16.1,93.9,49.4c13.6,24.5,11.7,50.5,12,53.5v251.1h0V585l0,0.8c0.1,1.3-1.7,33.8,15.2,64.8
			c16,29.4,52.4,62.7,116.5,62.7c34.5,0,62-10.9,81.9-32.5c36.1-39.2,33.1-99.5,32.6-106.6l0.1-99.4h0.2l0.2-296.6l0-1
			c0-0.6-4-55.3,25.9-87.7c14.8-16,35.9-24.1,62.8-24.1c41,0,74.6,15.7,93,49c13.6,24.5,12.6,50.9,12.9,53.9v206.1h0v219.2l0,0.8
			c0.1,1.3-1,32.7,15.9,63.8c16,29.4,51.6,63.7,115.7,63.7c34.5,0,62-10.9,81.9-32.5c36.1-39.2,33.1-99.5,32.6-106.6l0.1-99.4h0.2
			l0.2-296.6l0-1c0-0.6-4-55.3,25.9-87.7c14.8-16,35.9-24.1,62.8-24.1c41,0,75.8,14.2,94.2,47.5c13.6,24.5,11.4,52.4,11.7,55.4
			v295.9c0,0,0,0.1,0,0.1c0,2,5.8,3.6,12.9,3.6s12.9-1.6,12.9-3.6h0L1392,176.5z"/>
	</g>
	<g id="Group_163" transform="translate(1557.487 2827.944)">
		<g id="Group_113" transform="translate(0)">
			<path id="Path_453" class="st3" d="M59.6,22.5c0,0-0.8,43.5-1.5,49.2S54,91,42.5,100S18,113.4,6.3,139.8s-5.4,56.3,4.2,71.4
				s30.5,38.2,68,39.7s68-27.8,76.2-52.6s4.1-38.9,0.6-51.7s-14.7-29.1-22.6-35.1s-24-16.2-26.8-32.5S105.2,23,105.2,23
				s-8.6,4.6-24.5,4.4S59.6,22.5,59.6,22.5z"/>
			<path id="Path_454" class="st3" d="M52.7,7c0,0,1.2,7.5,29.1,8c25.6,0.5,31.1-7.2,31.1-7.5s-0.5,8.2-0.5,8.2s-0.8,4.5-7.1,7.2
				c-6.3,2.7-14.5,5-27.5,4.3s-18.2-4.8-18.2-4.8s-3.9-2-5.5-4.5s-1.3-3.7-1.5-5.5C52.4,10.7,52.5,8.8,52.7,7z"/>
			
				<linearGradient id="Path_455_00000030480165900146255600000015465928648600900775_" gradientUnits="userSpaceOnUse" x1="-719.8547" y1="-47.2979" x2="-720.6437" y2="-47.1799" gradientTransform="matrix(150.037 0 0 -35.6831 108142.4766 -1512.3446)">
				<stop  offset="4.000000e-03" style="stop-color:#05ABD7"/>
				<stop  offset="1" style="stop-color:#00FB96"/>
			</linearGradient>
			<path id="Path_455" style="fill:url(#Path_455_00000030480165900146255600000015465928648600900775_);" d="M4.1,170.5
				c0,0,11.1,18.3,56.1,19.6s77.6-17.4,83.1-21.6c3.8-3,7.4-6.3,10.8-9.9c0,0-35,13.2-62.3,7.4s-50-14.5-66.7-10.4
				S5.5,167.9,4.1,170.5z"/>
			
				<linearGradient id="Path_456_00000152982530091148207080000008255466079774707628_" gradientUnits="userSpaceOnUse" x1="-720.4745" y1="-52.4128" x2="-719.8375" y2="-52.1448" gradientTransform="matrix(151.4326 0 0 -87.9828 109142.6406 -4401.1533)">
				<stop  offset="4.000000e-03" style="stop-color:#05ABD7"/>
				<stop  offset="1" style="stop-color:#00FB96"/>
			</linearGradient>
			<path id="Path_456" style="fill:url(#Path_456_00000152982530091148207080000008255466079774707628_);" d="M4.7,181
				c0,0,2.8,23.7,18.7,40.1s37.8,30.5,72,23.8s50.4-34.1,55.5-48.8s4.8-24.3,4.4-29.4c-0.2-2.7-0.6-5.4-1.1-8.1
				c0,0-15.4,18.3-50.4,26s-56.1,5.5-70.4,1.7c-13-3.5-18.5-5.7-23-9.6c-2.2-1.9-4.3-3.9-6.3-6.1C3.9,174,4.1,177.5,4.7,181z"/>
			<path id="Path_457" class="st6" d="M40.4,109.9c0,0-17.1,13-11.9,25.1s25.2,4.8,36.3-7.5s3.6-27.5-5.2-25.5
				S43.6,107.1,40.4,109.9z"/>
			<path id="Path_458" class="st7" d="M126.3,144.8c0,0,4.4,32.7-7.9,51.9s-19.3,25.1-12.3,29.7s30-1.4,37.9-21.6s10-41.7,6.5-54.9
				s-13-16.7-18.5-14.3S126,142.1,126.3,144.8z"/>
			<path id="Path_459" class="st7" d="M91.7,67.9c0,0-0.9,21.2,6.1,32.4s15.7,14.5,18.3,13.9s4.5-3.3-0.7-7.4
				c-6.9-5.6-12-13.2-14.6-21.7c-2.8-9.7,0.1-21.8-2.2-24.6s-6.4-2.4-6.8,1.7C91.4,64.1,91.4,66.1,91.7,67.9z"/>
			<path id="Path_460" class="st6" d="M64.6,37.9c0,0-1.1,27.9-1.3,33.4S61,83.8,65.7,83.4s6.4-3.7,5.5-12.1s-1.7-31.8-1.7-34.6
				s-0.2-4.2-2.5-3.9S64.6,37.9,64.6,37.9z"/>
			<path id="Path_461" class="st6" d="M70.1,17.1c0,0,0.4,6.2-2.2,6.1s-3.6-5.1-2.9-7.6s2.7-1.4,3.9-0.9S70.1,17.1,70.1,17.1z"/>
			<path id="Path_462" class="st7" d="M95,15.4c-1.7,0.2-3,1.7-2.8,3.4c0,0.1,0,0.1,0,0.2c0.3,3.3-0.2,5.2,3.6,4.7s5.6-0.2,5.6-4.2
				s-2-4.7-3.6-4.5S95,15.4,95,15.4z"/>
			<path id="Path_463" class="st8" d="M111.4,5.1c-2.6-1.7-7.9-5.1-24.1-5.1S65,0.9,61.4,1.9c-2.4,0.6-4.6,1.6-6.8,2.7
				c-2.3,1.5-2.2,2.5-1.3,3.8s6.3,6.2,27.2,6.6s26.4-3.8,29-4.7S114,6.8,111.4,5.1z M96.8,9c-1.4,0.5-4.4,2.7-15.6,2.5
				S67.1,8.7,66.6,8s-0.5-1.2,0.7-2c1.2-0.6,2.4-1.1,3.6-1.5c1.9-0.5,5.2-1,13.9-1s11.5,1.8,12.9,2.8S98.2,8.5,96.8,9L96.8,9z"/>
		</g>
		<g id="Group_114" transform="translate(60.554 132.451)">
			
				<radialGradient id="Path_473_00000046329230726549452210000010558140887653197496_" cx="-814.6527" cy="-169.0969" r="0.5" gradientTransform="matrix(16.016 0 0 -16.016 13055.4775 -2700.2461)" gradientUnits="userSpaceOnUse">
				<stop  offset="0" style="stop-color:#000000"/>
				<stop  offset="1" style="stop-color:#00A9FF"/>
			</radialGradient>
			
				<path id="Path_473" style="opacity:0.2;fill:url(#Path_473_00000046329230726549452210000010558140887653197496_);enable-background:new    ;" d="
				M16,8c0,4.4-3.6,8-8,8s-8-3.6-8-8c0-4.4,3.6-8,8-8c0,0,0,0,0,0C12.4,0,16,3.6,16,8C16,8,16,8,16,8z"/>
			<path id="Path_474" class="st10" d="M13.9,3.9c0.7,1.4,0.6,2.9-0.2,3.4S11.5,7,10.8,5.6S10.1,2.6,11,2.2S13.2,2.5,13.9,3.9z"/>
			<path id="Path_475" class="st10" d="M3.6,11.5c0.3,0.6,0.3,1.2-0.1,1.4s-0.9-0.1-1.2-0.7s-0.3-1.2,0.1-1.4S3.3,10.9,3.6,11.5z"/>
		</g>
		<g id="Group_115" transform="translate(90.759 116.761)">
			
				<radialGradient id="Path_476_00000134935710373304437230000008480613845238503083_" cx="-848.0436" cy="-151.7955" r="0.5" gradientTransform="matrix(14.774 0 0 -14.774 12536.4229 -2235.2476)" gradientUnits="userSpaceOnUse">
				<stop  offset="0" style="stop-color:#000000"/>
				<stop  offset="1" style="stop-color:#00A9FF"/>
			</radialGradient>
			
				<path id="Path_476" style="opacity:0.2;fill:url(#Path_476_00000134935710373304437230000008480613845238503083_);enable-background:new    ;" d="
				M14.8,7.4c0,4.1-3.3,7.4-7.4,7.4S0,11.5,0,7.4S3.3,0,7.4,0l0,0C11.5,0,14.8,3.3,14.8,7.4C14.8,7.4,14.8,7.4,14.8,7.4z"/>
			<path id="Path_477" class="st10" d="M12.8,3.6c0.7,1.3,0.6,2.7-0.2,3.1s-2-0.3-2.7-1.6S9.3,2.4,10.1,2S12.1,2.3,12.8,3.6z"/>
			<path id="Path_478" class="st10" d="M3.3,10.6c0.3,0.5,0.2,1.1-0.1,1.3s-0.8-0.1-1.1-0.7s-0.2-1.1,0.1-1.3S3,10,3.3,10.6z"/>
		</g>
		<g id="Group_116" transform="translate(66.078 81.95)">
			
				<radialGradient id="Path_479_00000098902230646021814650000007744179794269538689_" cx="-827.4137" cy="-114.9356" r="0.5" gradientTransform="matrix(13.4481 0 0 -13.4481 11133.832 -1538.9371)" gradientUnits="userSpaceOnUse">
				<stop  offset="0" style="stop-color:#000000"/>
				<stop  offset="1" style="stop-color:#00A9FF"/>
			</radialGradient>
			
				<path id="Path_479" style="opacity:0.2;fill:url(#Path_479_00000098902230646021814650000007744179794269538689_);enable-background:new    ;" d="
				M13.4,6.7c0,3.7-3,6.7-6.7,6.7S0,10.4,0,6.7S3,0,6.7,0l0,0C10.4,0,13.4,3,13.4,6.7z"/>
			<path id="Path_480" class="st10" d="M11.7,3.3c0.6,1.2,0.5,2.5-0.2,2.8S9.7,5.9,9,4.7S8.5,2.2,9.2,1.8S11,2.1,11.7,3.3z"/>
			<path id="Path_481" class="st10" d="M3,9.6c0.3,0.5,0.2,1-0.1,1.2s-0.7-0.1-1-0.6S1.7,9.2,2,9S2.8,9.2,3,9.6z"/>
		</g>
		<g id="Group_117" transform="translate(80.327 52.715)">
			
				<radialGradient id="Path_482_00000166645151557357747250000014072496571286277038_" cx="-846.7244" cy="-83.1406" r="0.5" gradientTransform="matrix(12.092 0 0 -12.092 10244.6719 -999.2937)" gradientUnits="userSpaceOnUse">
				<stop  offset="0" style="stop-color:#000000"/>
				<stop  offset="1" style="stop-color:#00A9FF"/>
			</radialGradient>
			
				<path id="Path_482" style="opacity:0.2;fill:url(#Path_482_00000166645151557357747250000014072496571286277038_);enable-background:new    ;" d="
				M12.1,6c0,3.3-2.7,6-6,6S0,9.4,0,6s2.7-6,6-6l0,0C9.4,0,12.1,2.7,12.1,6C12.1,6,12.1,6,12.1,6z"/>
			<path id="Path_483" class="st10" d="M10.5,3C11.1,4,11,5.2,10.3,5.5S8.7,5.3,8.1,4.2S7.6,2,8.3,1.6S9.9,1.9,10.5,3z"/>
			<path id="Path_484" class="st10" d="M2.7,8.7c0.2,0.4,0.2,0.9-0.1,1S2,9.6,1.7,9.2s-0.2-0.9,0.1-1S2.5,8.2,2.7,8.7z"/>
		</g>
		<path id="Path_485" class="st14" d="M83.1,169.7c0.7,1.3,0.6,2.6-0.2,3s-1.9-0.3-2.6-1.6s-0.6-2.6,0.2-3S82.5,168.4,83.1,169.7z"
			/>
		
			<radialGradient id="Path_486_00000007396197636503668460000010882013557499672742_" cx="-781.3788" cy="-22.887" r="0.6475" gradientTransform="matrix(9.3128 0 0 -9.3236 7354.7886 -42.4615)" gradientUnits="userSpaceOnUse">
			<stop  offset="1.385225e-07" style="stop-color:#002C43;stop-opacity:0.6"/>
			<stop  offset="1" style="stop-color:#00A9FF;stop-opacity:0.4"/>
		</radialGradient>
		
			<path id="Path_486" style="opacity:0.69;fill:url(#Path_486_00000007396197636503668460000010882013557499672742_);enable-background:new    ;" d="
			M76.7,175.3c2.7,0.5,5.5,0.4,8.2-0.3c0.9-3.8-1.5-7.7-5.3-8.6c-3.8-0.9-7.7,1.5-8.6,5.3c-0.1,0.5-0.2,1.1-0.2,1.6
			c0,0.1,0,0.2,0,0.3C72.7,174.5,74.7,175,76.7,175.3z"/>
		<path id="Path_487" class="st16" d="M79.5,176.9c5.1,0,6.6-2.5,6.6-2.5s-3.2,1.8-9.3,1c-2.4-0.3-4.7-1-6.9-2.2
			C69.9,173.2,71.6,176.9,79.5,176.9z"/>
		<path id="Path_488" class="st14" d="M55.5,176.5c0.5,1,0.5,2.1-0.1,2.4s-1.5-0.2-2-1.2s-0.5-2.1,0.1-2.4S54.9,175.6,55.5,176.5z"
			/>
		
			<radialGradient id="Path_489_00000119118927070531770190000000410092983516044203_" cx="-770.5643" cy="-13.8492" r="0.647" gradientTransform="matrix(11.1652 0 0 -7.3156 8654.9375 76.1858)" gradientUnits="userSpaceOnUse">
			<stop  offset="1.385225e-07" style="stop-color:#002C43;stop-opacity:0.6"/>
			<stop  offset="1" style="stop-color:#00A9FF;stop-opacity:0.4"/>
		</radialGradient>
		
			<path id="Path_489" style="opacity:0.69;fill:url(#Path_489_00000119118927070531770190000000410092983516044203_);enable-background:new    ;" d="
			M50.4,180.9c2.1,0.4,4.3,0.3,6.4-0.2c0.7-3-1.2-6-4.2-6.7c-3-0.7-6,1.2-6.7,4.2c-0.1,0.4-0.1,0.9-0.1,1.3c0,0.1,0,0.2,0,0.2
			C47.3,180.3,48.9,180.7,50.4,180.9z"/>
		<path id="Path_490" class="st16" d="M52.6,182.1c4,0,5.2-1.9,5.2-1.9s-2.5,1.4-7.3,0.8c-1.9-0.2-3.7-0.8-5.4-1.7
			C45.2,179.3,46.5,182.2,52.6,182.1z"/>
		<path id="Path_491" class="st14" d="M34.9,166.9c0.5,1.1,0.3,2.3-0.4,2.6s-1.6-0.4-2.1-1.6s-0.3-2.3,0.4-2.6
			S34.4,165.8,34.9,166.9z"/>
		
			<radialGradient id="Path_492_00000098939031227275606960000004517249145295272608_" cx="-792.4457" cy="-26.0493" r="0.627" gradientTransform="matrix(8.2715 0.7982 0.8001 -8.2729 6605.8013 584.5776)" gradientUnits="userSpaceOnUse">
			<stop  offset="1.385225e-07" style="stop-color:#002C43;stop-opacity:0.6"/>
			<stop  offset="1" style="stop-color:#00A9FF;stop-opacity:0.4"/>
		</radialGradient>
		
			<path id="Path_492" style="opacity:0.69;fill:url(#Path_492_00000098939031227275606960000004517249145295272608_);enable-background:new    ;" d="
			M28.9,171.2c2.3,0.6,4.7,0.8,7.1,0.4c1.1-3.2-0.7-6.7-3.9-7.8c-3.2-1.1-6.7,0.7-7.8,3.9c-0.1,0.4-0.2,0.9-0.3,1.4
			c0,0.1,0,0.2,0,0.3C25.5,170.2,27.2,170.8,28.9,171.2z"/>
		<path id="Path_493" class="st16" d="M31.2,172.8c4.4,0.4,5.9-1.6,5.9-1.6s-2.9,1.3-8.1,0.1c-2.1-0.4-4-1.3-5.7-2.5
			C23.2,168.8,24.4,172.1,31.2,172.8z"/>
		<path id="Path_494" class="st14" d="M99.8,175.2c-0.6,1.1-0.5,2.3,0.2,2.6s1.7-0.3,2.2-1.4s0.5-2.3-0.2-2.6
			S100.4,174.1,99.8,175.2z"/>
		
			<radialGradient id="Path_495_00000088852090706454587760000013952169193528986792_" cx="-640.8299" cy="-17.7301" r="0.647" gradientTransform="matrix(-8.0537 0 0 -8.0611 -5060.0366 33.3846)" gradientUnits="userSpaceOnUse">
			<stop  offset="1.385225e-07" style="stop-color:#002C43;stop-opacity:0.6"/>
			<stop  offset="1" style="stop-color:#00A9FF;stop-opacity:0.4"/>
		</radialGradient>
		
			<path id="Path_495" style="opacity:0.69;fill:url(#Path_495_00000088852090706454587760000013952169193528986792_);enable-background:new    ;" d="
			M105.4,180.1c-2.4,0.4-4.8,0.3-7.1-0.3c-0.8-3.3,1.3-6.6,4.6-7.4c3.3-0.8,6.6,1.3,7.4,4.6c0.1,0.5,0.2,0.9,0.2,1.4
			c0,0.1,0,0.2,0,0.3C108.8,179.4,107.1,179.8,105.4,180.1z"/>
		<path id="Path_496" class="st16" d="M103,181.4c-4.4,0-5.7-2.1-5.7-2.1s2.7,1.5,8.1,0.9c2.1-0.2,4.1-0.9,5.9-1.9
			C111.2,178.3,109.8,181.4,103,181.4z"/>
		<path id="Path_497" class="st14" d="M120.5,169.9c-0.4,1.2-0.2,2.3,0.5,2.6s1.6-0.5,2-1.7s0.2-2.3-0.5-2.6
			S120.9,168.7,120.5,169.9z"/>
		
			<radialGradient id="Path_498_00000148660478380294992180000001703960517706931090_" cx="-650.4659" cy="-9.7811" r="0.614" gradientTransform="matrix(-8.3888 1.2038 -1.2037 -8.3927 -5350.6123 871.6824)" gradientUnits="userSpaceOnUse">
			<stop  offset="1.385225e-07" style="stop-color:#002C43;stop-opacity:0.6"/>
			<stop  offset="1" style="stop-color:#00A9FF;stop-opacity:0.4"/>
		</radialGradient>
		
			<path id="Path_498" style="opacity:0.69;fill:url(#Path_498_00000148660478380294992180000001703960517706931090_);enable-background:new    ;" d="
			M126.7,173.9c-2.3,0.7-4.7,1-7.1,0.7c-1.2-3.2,0.3-6.7,3.5-8s6.7,0.3,8,3.5c0.2,0.4,0.3,0.9,0.4,1.4c0,0.1,0,0.2,0,0.3
			C130,172.7,128.4,173.4,126.7,173.9z"/>
		<path id="Path_499" class="st16" d="M124.5,175.6c-4.4,0.6-6-1.3-6-1.3s2.9,1.1,8.1-0.3c2-0.5,3.9-1.5,5.6-2.7
			C132.2,171.3,131.2,174.6,124.5,175.6z"/>
	</g>
	<path id="Path_540" class="st21" d="M303,2583.3c1.2,0.5,0,16.7,0,16.7s1.4,4.4,11.3,4.6s13-4.6,13-4.6v-19l69.6-66.9
		c0,0-28.7,21.6-82.6,21.6s-80.6-21.6-80.6-21.6L303,2583.3z"/>
	<path id="Path_541" class="st3" d="M233.8,2514.1c0,0,24.3-19.6,84.8-18.6s79.3,18.6,79.3,18.6s-26.4,21.7-79.3,21.7
		s-78.6-17.4-78.6-17.4L233.8,2514.1z"/>
	<path id="Path_546" class="st22" d="M243,2515.3c0,0,33.4-15.2,68-14.3s56,7.3,56,7.3s-34-4.3-59.2-3.5s-49.6,10.5-49.5,13
		s15.1,7.5,25.2,10.2s20.4,4.4,20.4,4.4s-28.1-2-44.3-8.2S243,2515.3,243,2515.3z"/>
	<g id="Group_172" transform="translate(314.397 2391.705)" class="st23">
		<path id="Path_547" class="st24" d="M558.9,648.4c-1.9,0-3.9,0-5.8-0.1c-32.2-1.1-60-10.9-76.3-26.9
			c-35.3-34.8-34.6-80.6-34.5-82.5V113.8c0-59.6-36.4-97.1-72.4-107.8C333.9-4.7,284.3-4.9,252.8,26.2c-29.5,29.1-29,91.9-29,92.5
			c0,3.8,1.1,382.5,0,423.9c-1.3,47.7-29,101-86.6,105c-53.6,3.8-90.4-11.6-116-48.6c-22-31.7-20.7-80.3-20.7-82.3L0,231
			c0-1.2,1-2.3,2.2-2.3l0,0c1.2,0,2.2,1,2.2,2.3l0.6,285.7c0,0.6-1.2,49.2,19.9,79.7c24.9,36,59.4,50.3,111.9,46.6
			c54.8-3.9,81.2-54.9,82.4-100.7c1.1-41.3,0-419.9,0-423.7c0-2.6-0.6-65.3,30.3-95.7C282.5-9.5,334-9.3,371.1,1.7
			c37.6,11.2,75.6,50.1,75.6,112.1v425.1c0,0.5-0.7,45.9,33.2,79.3c15.4,15.2,42.2,24.6,73.3,25.6c28.1,0.9,54.7-5.3,67.7-16
			c28.7-23.4,42.1-59.3,41-109.9c-1.1-53,0-396.7,0.1-400.2c0-2.2-0.8-54.6,22.4-84.5c23.5-30.2,48.5-34.2,58-35.8
			C751.9-4,767.9-5,768.6-5c1.2,0,2.3,0.9,2.3,2.2c0,1.2-0.9,2.2-2.1,2.3c-0.2,0-16.4,1-25.8,2.5c-9.8,1.6-32.8,5.3-55.2,34.1
			c-22.2,28.6-21.5,81.1-21.5,81.7c0,3.5-1.2,347.2-0.1,400.1c1.1,51.3-13.3,89.5-42.7,113.5C610.6,642.1,586.1,648.4,558.9,648.4z"
			/>
	</g>
</g>
</svg>
