<?xml version="1.0" encoding="utf-8"?>
<!-- Generator: Adobe Illustrator 25.4.1, SVG Export Plug-In . SVG Version: 6.00 Build 0)  -->
<svg version="1.1" id="Layer_1" xmlns="http://www.w3.org/2000/svg" xmlns:xlink="http://www.w3.org/1999/xlink" x="0px" y="0px"
	 viewBox="0 0 267 133.4" style="enable-background:new 0 0 267 133.4;" xml:space="preserve">
<style type="text/css">
	.st0{fill:url(#Path_946_00000159460216409023709620000014502534890900474247_);}
	.st1{fill:url(#Path_947_00000120527080292148584480000015603909684082774693_);}
	.st2{fill:url(#Path_948_00000002351197780831145330000007007373365156691589_);}
	.st3{fill:url(#Path_950_00000114046140000196536960000016792541220911571099_);}
	.st4{fill:url(#Path_951_00000002347843478727457330000012199568063195690120_);}
	.st5{fill:url(#Path_952_00000129895474941605576540000015829849339860882845_);}
	.st6{fill:url(#SVGID_1_);}
	.st7{opacity:0.55;fill:#FFFFFF;enable-background:new    ;}
	.st8{fill:url(#Path_960_00000134936145637892677400000000684904972331414414_);}
	.st9{fill:url(#Path_961_00000109708636415694915810000015625421830980177553_);}
</style>
<linearGradient id="Path_946_00000025422616965462026890000012560627611891153046_" gradientUnits="userSpaceOnUse" x1="-4.5255" y1="24.4142" x2="242.6235" y2="33.2653">
	<stop  offset="0" style="stop-color:#B442ED"/>
	<stop  offset="0.1707" style="stop-color:#985FE2"/>
	<stop  offset="1" style="stop-color:#11EAAA"/>
</linearGradient>
<path id="Path_946" style="fill:url(#Path_946_00000025422616965462026890000012560627611891153046_);" d="M32.3,42.5
	c-2.5,5.1-7.4,8-13.5,8h0c-4.4,0-8.7-1.5-13.2-4.5c-3.1-2-4-6.2-1.9-9.3c0.3-0.4,0.6-0.8,1-1.2l0.2-0.2c2.5-2.3,6.2-2.7,9.1-0.9
	c1.1,0.7,2.3,1.3,3.6,1.8l0.1,0c0.5,0.3,1.1,0.3,1.6,0.2c0.2-0.2,0.3-0.5,0.2-0.8c0-1.5-1.4-2.9-2.6-3.7c-1.5-0.9-3-1.5-4.6-2
	c-0.4-0.1-0.8-0.3-1.2-0.4C3.1,26.8-0.7,21.5,0.1,14.7l0-0.1C1,9.5,4.3,5,8.9,2.6c5.3-2.9,11.6-3.4,17.3-1.2c3.3,1.3,5,5,3.7,8.4
	c-0.4,1-1,2-1.9,2.7L27.3,13c-2,1.7-4.7,2.1-7.1,1.2c-0.8-0.3-1.6-0.4-2.4-0.2c-0.6,0.2-1.1,0.5-1.5,1c-0.3,0.3-0.4,0.7-0.4,1.1
	c0.3,0.2,0.7,0.4,1,0.5c0.1,0.1,0.3,0.1,0.4,0.2c4.7,1.7,9.9,4.1,13.4,9C34.3,30.6,34.9,37.1,32.3,42.5z"/>
<linearGradient id="Path_947_00000003818343621247062980000016909817380737137568_" gradientUnits="userSpaceOnUse" x1="-4.4957" y1="23.583" x2="242.6532" y2="32.434">
	<stop  offset="0" style="stop-color:#B442ED"/>
	<stop  offset="1" style="stop-color:#11EAAA"/>
</linearGradient>
<path id="Path_947" style="fill:url(#Path_947_00000003818343621247062980000016909817380737137568_);" d="M72.1,7.5v0.7
	c0,3.3-2.6,5.9-5.9,6l-4.9,0.1L59.2,45c-0.2,3.3-3.1,5.8-6.4,5.5c-3.1-0.2-5.4-2.7-5.5-5.8l-0.9-30.3l-6.3,0.1c-3.3,0-6-2.6-6-5.9
	c0,0,0,0,0-0.1V6.3c0-3.3,2.7-6,6-6c0.1,0,0.2,0,0.3,0l26.2,1.3C69.6,1.7,72.1,4.4,72.1,7.5z"/>
<linearGradient id="Path_948_00000080889536995543275610000015912811986884896926_" gradientUnits="userSpaceOnUse" x1="-5.0622" y1="39.4009" x2="242.0867" y2="48.252">
	<stop  offset="0" style="stop-color:#B442ED"/>
	<stop  offset="1" style="stop-color:#11EAAA"/>
</linearGradient>
<path id="Path_948" style="fill:url(#Path_948_00000080889536995543275610000015912811986884896926_);" d="M110.3,45
	c-7.6,9.3,2.3,9.7,3.8,15.1c2.4,8.4-8.2,13.4-9.1,5.9c0,0,0,0,0,0c-0.4-3.8,1.2-11.3-0.8-14.5l-0.7-1.2c-3.4,0-6.2-2.6-6.5-6
	c-0.6-7.4-2-17.6-6.8-17.3c-5,0.4-5.8,9.7-5.8,16.8c0,1.8,17,48.5-1.5,39.5c-12.6-6.1,10.9-33.4-5-33c-3.2,0-5.9-2.2-6.4-5.3
	C67.6,24,73.4,7.2,83.9,2.5C91-0.7,98.1,2.6,98.4,2.7C108.8,7.7,114.3,24.4,110.3,45z M94.4,14.9c0-2.8-1.9-5-4.2-5s-4.2,2.2-4.2,5
	s1.9,5,4.2,5S94.4,17.7,94.4,14.9L94.4,14.9z"/>
<linearGradient id="Path_950_00000168103385865952280610000002008964909007427459_" gradientUnits="userSpaceOnUse" x1="-5.0242" y1="38.3407" x2="242.1247" y2="47.1917">
	<stop  offset="0" style="stop-color:#B442ED"/>
	<stop  offset="1" style="stop-color:#11EAAA"/>
</linearGradient>
<path id="Path_950" style="fill:url(#Path_950_00000168103385865952280610000002008964909007427459_);" d="M187.8,7.5v0.7
	c0,3.3-2.6,5.9-5.9,6l-4.9,0.1l-2.2,30.8c-0.2,2.2-2.3,3.1-3.9,4.7c-12.7,13.1,0.7,19.2,6.9,25.8c4.6,5,3.5,14.2-7,12.8
	c-21.2-3-2.1-27.5-9.3-45.2c-2.2-5.3,1-11.3,0.8-17L162,14.5l-3.8,0l-2.4,0c-3.3,0-6-2.6-6-5.9c0,0,0,0,0-0.1V6.3c0-3.3,2.7-6,6-6
	c0.1,0,0.2,0,0.3,0l26.2,1.3C185.3,1.7,187.8,4.4,187.8,7.5z"/>
<linearGradient id="Path_951_00000031918450569992163130000010554300285879974583_" gradientUnits="userSpaceOnUse" x1="-4.2938" y1="17.9438" x2="242.8552" y2="26.7949">
	<stop  offset="0" style="stop-color:#B442ED"/>
	<stop  offset="1" style="stop-color:#11EAAA"/>
</linearGradient>
<path id="Path_951" style="fill:url(#Path_951_00000031918450569992163130000010554300285879974583_);" d="M204,19.5h5.4
	c3.6,0,6.5,2.9,6.5,6.5c0,3.6-2.9,6.5-6.5,6.5l0,0h-4.6l0,0c2.1,2.2,5.2,3.2,8.2,2.8c0.2,0,0.3,0,0.5-0.1c2.8-0.5,5.6,0.8,7,3.2
	l0.6,1c2,3.2,1,7.4-2.3,9.4c-0.6,0.4-1.3,0.7-2.1,0.8c-1.2,0.3-2.5,0.4-3.8,0.5c-0.1,0-0.1,0-0.2,0c-13.6,0.6-25.1-9.8-25.7-23.4
	c-0.6-13.6,9.8-25.1,23.4-25.7c0.4,0,0.8,0,1.2,0c0.4,0,0.9,0,1.3,0c1.4,0.1,2.8,0.3,4.1,0.6c4,0.9,6.5,4.9,5.6,8.9
	c-0.2,1-0.7,1.9-1.3,2.8c0,0.1-0.1,0.1-0.1,0.2c-1.6,2.3-4.5,3.3-7.2,2.6c-0.4-0.1-0.8-0.2-1.1-0.2c-0.4-0.1-0.9-0.1-1.3-0.1
	C208.6,15.9,205.8,17.2,204,19.5z"/>
<linearGradient id="Path_952_00000044166448769379546450000007728712408090952350_" gradientUnits="userSpaceOnUse" x1="-4.2784" y1="17.5142" x2="242.8706" y2="26.3653">
	<stop  offset="0" style="stop-color:#B442ED"/>
	<stop  offset="1" style="stop-color:#11EAAA"/>
</linearGradient>
<path id="Path_952" style="fill:url(#Path_952_00000044166448769379546450000007728712408090952350_);" d="M267,26.2
	c0,14.1-11.4,25.5-25.5,25.5c0,0,0,0,0,0c-0.5,0-0.9,0-1.4,0v0h-3.7c-2.7,0-5.4-1.1-7.2-3.2l-1.3-1.7c-0.9-1.5-1.3-3.2-1.4-4.9
	l-0.4-31.8c0-1,0.2-2,0.6-3c0.7-1.6,1.9-2.9,3.5-3.7c0.2-0.1,0.4-0.2,0.6-0.3c0.4-0.2,0.8-0.4,1.3-0.5c0.1-0.1,0.3-0.1,0.4-0.2
	c0.1,0,0.1-0.1,0.2-0.1c0.3-0.1,0.6-0.2,0.9-0.3c0.1-0.1,0.3-0.1,0.4-0.1c0.8-0.2,1.6-0.4,2.4-0.6c0.2,0,0.4-0.1,0.6-0.1
	s0.4-0.1,0.6-0.1c0.5-0.1,1-0.1,1.4-0.2c0.2,0,0.3,0,0.5,0c0.1,0,0.2,0,0.3,0c0.2,0,0.3,0,0.5,0c0.5,0,0.9,0,1.4,0
	C255.6,0.8,267,12.2,267,26.2z M249.6,26.8c-0.1-3.7-2.9-7.4-4.8-7.1s-2.5,4.7-2.4,7.2c0,2.7,0.9,7.1,2.7,7.4
	C246.9,34.6,249.7,30.6,249.6,26.8L249.6,26.8z"/>
<linearGradient id="SVGID_1_" gradientUnits="userSpaceOnUse" x1="-4.9729" y1="36.9086" x2="242.176" y2="45.7596">
	<stop  offset="0" style="stop-color:#B442ED"/>
	<stop  offset="1" style="stop-color:#11EAAA"/>
</linearGradient>
<path class="st6" d="M148.5,46.3c-1.6-4.7-4.7-8.8-8.7-11.8c17.6-11.4,6.5-33.7-10.6-34.2c-3.7-0.2-7.3,1.3-9.9,4
	c-0.6,0.7-1.1,1.4-1.6,2.2c-1.2,2.2-1.7,4.7-1.7,7.2c0,0.4,0,0.8,0,1.2c0,0.5,0,0.9,0,1.4c0,0,0,0.1,0,0.1c0,1.2,0.1,2.5,0.1,3.7
	c0,0.1,0,0.1,0,0.2c0.1,1.8,0.1,3.6,0.2,5.4c0.1,1.9,0.1,3.7,0.2,5.6c0.1,1.7,0.1,3.5,0.2,5.2c0,1.5,0.1,3,0.2,4.5l0.1,3.4
	c0,0.4,0,0.7,0,1.1c0.1,2.9,2.4,5.1,5.3,5.1h1.2c-2.4,6-5.6,12.8-2.9,18.1c4.9,9.7,14,2.7,8.9-4.6c-3.9-5.7-5.2-9.6-4.4-13.7
	c2-0.6,3.6-2.4,3.8-4.7l0.3-4.1l7.6,6.3c6.1,4.1,11.2,7.1,10.5,10.6c-1.7,8.4-12.2,16.2-6.1,22.3C152.2,91.5,157.3,72.4,148.5,46.3z
	 M136.4,21.3c-5.2,6.2-9.1-7-2.6-7.5v0C137.2,13.9,138.1,18.9,136.4,21.3z"/>
<path id="Path_954" class="st7" d="M86.8,54.9c0.2,0.6,2.6,12,3.3,16.7c0.6,4.7,0.6,8.5-1,9.9S83.3,83,83.7,81s5.6-0.3,5.1-11.3
	C88.6,62.9,86.8,54.9,86.8,54.9z"/>
<path id="Path_955" class="st7" d="M109.4,56.1c1.4,1.2,2.5,2.7,3.3,4.3c0.9,2.1,0.6,4.5-0.9,6.3c-1.3,1.3-2.9,0.4-1.6-1.6
	s1.6-3.4,0.7-5.9C110.5,58.1,110.3,57.6,109.4,56.1z"/>
<path id="Path_956" class="st7" d="M124.8,56.3c0,0,1,5.6,2.9,7.6c1.4,1.5,2.2,3.6,2.1,5.7c0,1.4-4.2,2.4-3.1-1.1s-0.2-3.5-1.3-6.6
	C124.8,60.1,124.6,58.2,124.8,56.3z"/>
<path id="Path_957" class="st7" d="M150.9,64.2c0.2,3.8-0.1,7.6-0.8,11.4c-1.1,5.4-1.9,6.7-3.4,5.6s2-4.8,2.9-9.4
	S150.9,64.2,150.9,64.2z"/>
<path id="Path_958" class="st7" d="M169,69.5c0.2,0.1,7.9,6,8.6,10.7s-2.7,7-4.8,5.9s3.3-1.3,2.8-5s-0.9-4.8-3.6-8.1
	C171.2,71.8,170.1,70.6,169,69.5z"/>
<path id="Path_959" class="st7" d="M99.7,6.9c0,0,3.6,1.6,6.8,10.7s2,19.5,2,19.5s-0.7-14-3.6-20.4S94.8,6.1,99.7,6.9z"/>
<linearGradient id="Path_960_00000118387665366850066200000000151042918614999682_" gradientUnits="userSpaceOnUse" x1="-7.5604" y1="109.1592" x2="239.5885" y2="118.0102">
	<stop  offset="0" style="stop-color:#B442ED"/>
	<stop  offset="1" style="stop-color:#11EAAA"/>
</linearGradient>
<path id="Path_960" style="fill:url(#Path_960_00000118387665366850066200000000151042918614999682_);" d="M127.1,94.7
	c0,0,15.7,18.5,12.2,31.1c-4.1,14.6-29.4,6-19.1-6.8C129.3,107.8,128.9,108.9,127.1,94.7z"/>
<linearGradient id="Path_961_00000040533284260249451640000012197087859191880884_" gradientUnits="userSpaceOnUse" x1="-6.9012" y1="90.751" x2="240.2478" y2="99.6021">
	<stop  offset="0" style="stop-color:#B442ED"/>
	<stop  offset="1" style="stop-color:#11EAAA"/>
</linearGradient>
<path id="Path_961" style="fill:url(#Path_961_00000040533284260249451640000012197087859191880884_);" d="M102.8,82.1
	c0,0-10.2,12-7.9,20.1c2.6,9.5,19.1,3.9,12.4-4.4C101.4,90.7,101.6,91.3,102.8,82.1z"/>
<path id="Path_962" class="st7" d="M100.3,87.9c0,0-3.5,5.9-3.5,9.3s0.3,5.9,2.2,6.8s3.8-0.4,2.6-2.3s-4.3-2.8-3.5-7.1
	C98.6,92.3,99.3,90.1,100.3,87.9z"/>
<path id="Path_963" class="st7" d="M129.2,103.1c1,3.1,0.5,6.4-1.3,9.1c-3,4.6-6.8,7.1-7.4,11.8c-0.6,4.7,1.3,6,3.2,5.8
	s-0.4-3.4,0.6-7.5S132.7,111.7,129.2,103.1z"/>
</svg>
