<svg version="1.2" xmlns="http://www.w3.org/2000/svg" viewBox="0 0 533 286" width="533" height="286"><defs><clipPath clipPathUnits="userSpaceOnUse" id="cp1"><path d="m-24-983h1920v7535h-1920z" /></clipPath></defs><style>.s0{opacity: .6;fill:#ffffff}</style><g clip-path="url(#cp1)"><path fill-rule="evenodd" class="s0" d="m492 285.9h-450c-5.5 0-10.9-1.1-16-3.2c-4.8-2.1-9.2-5-13-8.8c-3.8-3.7-6.7-8.1-8.8-13c-2.1-5.1-3.2-10.4-3.2-16v-203c0-5.5 1.1-10.9 3.2-15.9c2.1-4.9 5-9.3 8.8-13.1c3.8-3.7 8.2-6.7 13-8.8c5.1-2.1 10.5-3.2 16-3.2h450c5.5 0 10.9 1.1 16 3.2c4.8 2.1 9.2 5.1 13 8.8c3.8 3.8 6.7 8.2 8.8 13.1c2.1 5 3.2 10.4 3.2 15.9v203c0 5.6-1.1 10.9-3.2 16c-2.1 4.9-5 9.3-8.8 13c-3.8 3.8-8.2 6.7-13 8.8c-5.1 2.1-10.5 3.2-16 3.2zm-372.5-137.5c-5.2 0-11 0-16.6 0.1q-1.7 0-2.2 0.7q-0.4 0.8 0.4 2.3l0.7 1.2c3.8 6.7 8 14.2 12.1 21.5c2.3 4.1 4.7 8.2 6.9 12.2l0.2 0.4q0.7 1.1 1.3 2.2q0.8 1.3 1.5 2.6q0.2 0.3 0.4 0.7c0.2 0.4 0.4 0.8 0.6 1.3c0.6 1.3 1.5 1.9 3 1.9q0.1 0 0.3 0c1-0.1 2.1-0.1 3.4-0.1q1.2 0 2.3 0h0.1h0.2h0.2q1.2 0.1 2.3 0.1q1.5 0 2.9 0q1.5 0 3 0c1.9 0 3.4 0 4.8-0.1c0.7 0 1.3-0.2 1.6-0.7c0.2-0.4 0.2-1-0.1-1.7q-0.1-0.3-0.2-0.4v-0.1q-0.1 0-0.1 0q0-0.1 0-0.1c-2.3-4-4.7-8.2-6.6-11.6l-0.1-0.1c-3-5.4-6.1-10.9-9.2-16.2c-1.3-2.2-2.5-4.4-3.6-6.4v-0.1c-1.3-2.3-2.7-4.7-4-7c-1-2.4-1.3-2.6-3.7-2.6zm-61.9 47.1c2.6 0 4.5 0 6.2 0c0.9 0 1.6-0.4 2-1.2c5.6-9.9 11.4-20.3 16.5-29.4l1.4-2.5l0.4-0.7l1.4-2.4c0.4-0.8 0.9-1.6 1.3-2.3l0.1-0.1v-0.1c1.1-1.8 2.2-3.8 3.3-5.7c0.4-0.7 0.4-1.4 0.2-1.9c-0.3-0.4-0.9-0.7-1.8-0.7q-0.4-0.1-0.8-0.1q-1 0.1-1.9 0.1h-0.1q-0.6 0-1.2 0c-1.3 0-2.7 0-4.3 0c-3.6 0-7.3 0-10.9-0.1c-1.5 0-2.4 0.6-3.1 1.9c-2.6 4.7-5.4 9.6-8 14.3l-0.1 0.2l-0.1 0.1q-1.1 2-2.2 4q-2.8 4.9-5.6 9.9l-0.1 0.1v0.1l-0.7 1.2c-2.3 4-4.7 8.2-7 12.4c-0.5 0.9-0.6 1.6-0.3 2.1c0.3 0.5 0.8 0.7 1.7 0.7c3 0.1 6.1 0.1 9 0.1h2.2q0.6 0 1.2 0h0.3q0.5 0 1 0zm376.4-72.4q-1 0-1.8 0.3q-0.8 0.4-1.3 0.9q-0.6 0.6-1 1.4q-0.3 0.8-0.3 1.7v39q0 0.9 0.3 1.7q0.4 0.8 1 1.4q0.5 0.5 1.3 0.9q0.8 0.3 1.8 0.3h23.3c2.8 0 5.5-0.5 7.9-1.5c2.4-1 4.5-2.4 6.3-4.1c1.8-1.8 3.2-3.9 4.2-6.3c1-2.4 1.5-5.1 1.5-8v-7.8c0-2.9-0.5-5.5-1.5-8c-1-2.4-2.4-4.5-4.2-6.3c-1.8-1.7-3.9-3.1-6.3-4.1c-2.4-1-5.1-1.5-7.9-1.5zm-53.3 35.9h30.3v11.7h8.7v-43.3q0-0.9-0.4-1.7q-0.3-0.8-0.9-1.4q-0.6-0.5-1.4-0.9q-0.8-0.3-1.7-0.3h-19.5c-3.4 0-6.6 0.6-9.4 1.7c-2.9 1.2-5.5 2.9-7.6 5c-2.1 2.1-3.8 4.6-5 7.5c-1.2 2.9-1.8 6.1-1.8 9.6v23.8h8.7v-11.7zm-50.6-35.9q-1.8 0-3.9 0.6q-2.2 0.7-4 2.1q-1.8 1.4-3 3.8q-1.2 2.3-1.2 5.6v35.5h8.6v-35.5q0-1.7 0.9-2.6q0.9-0.9 2.6-0.9h19.5q1.7 0 3 0.6q1.3 0.5 2.2 1.5q0.9 0.9 1.4 2.3q0.6 1.4 0.7 3v3.9q0 1.7-0.5 3q-0.5 1.3-1.5 2.2q-1 1-2.3 1.5q-1.3 0.5-3 0.7h-19.5v8.6h19.5q1.6 0 3.4-0.4q1.8-0.3 3.6-1.1q1.8-0.8 3.4-2.1q1.6-1.2 2.9-3q1.2-1.8 1.9-4.1q0.8-2.3 0.8-5.3v-3.9q0-1.6-0.4-3.4q-0.4-1.8-1.2-3.6q-0.8-1.8-2-3.4q-1.3-1.6-3.1-2.9q-1.7-1.2-4.1-2q-2.3-0.7-5.2-0.7zm-56.1 23.4v8.6h6.2l18 15.6h13.3l-18-15.6q1.6 0 3.4-0.3q1.8-0.4 3.6-1.2q1.8-0.8 3.4-2.1q1.6-1.3 2.9-3q1.2-1.8 1.9-4.1q0.8-2.4 0.8-5.3v-5.5q0-1.6-0.6-3.4q-0.5-1.9-1.8-3.4q-1.2-1.6-3.2-2.7q-2-1-4.9-1h-32.8q-0.9 0-1.7 0.3q-0.8 0.4-1.4 1q-0.5 0.5-0.9 1.3q-0.3 0.8-0.3 1.7v43.3h8.6v-39h28.5q0.3 0 0.6 0.1q0.3 0 0.6 0.2q0.3 0.2 0.5 0.5q0.1 0.4 0.1 1.1v5.5q0 1.7-0.5 3q-0.5 1.3-1.5 2.2q-1 1-2.3 1.5q-1.4 0.6-3 0.7zm-30.8 24.2h8.6v-47.6h-8.6zm-31.8-16.9l14.4 16.9h11.7l-20.3-23.8l20.5-23.8h-11.8l-14.5 17l-14.6-17h-11.7l20.4 23.8l-20.3 23.8h11.7l14.5-16.9zm-40.5-30.7v47.6h8.6v-47.6zm-123.4-31.7q-1.6 0-3.2 0q-1.6 0-2.1 0.7q-0.4 0.8 0.4 2.2q2.7 4.7 5.3 9.4l0.1 0.1l0.9 1.6v0.1c5.8 10.2 11.8 20.8 17.6 31.3c0.7 1.1 1.5 1.6 2.8 1.6c3.8-0.1 7.6-0.1 11.3-0.1h0.3h0.2q2 0 4.1 0q0.5 0 1 0h0.1c0.5 0.1 1.1 0.1 1.6 0.1q0.6 0 1.1 0c0.7-0.1 1.2-0.4 1.5-0.8c0.2-0.5 0.2-1.1-0.1-1.7c-1.1-1.9-2.2-3.8-3.2-5.6h-0.1l-0.1-0.3c-0.4-0.6-0.8-1.3-1.1-1.9q-0.1-0.1-0.1-0.1q0-0.2-0.1-0.3q-2.3-4.2-4.7-8.3l-0.2-0.3v-0.2c-4.9-8.5-9.9-17.4-14.8-26.2c-0.5-0.9-1.2-1.3-2.5-1.3c-2.6 0-5.4 0-8.9 0q-1.8 0-3.6 0h-0.3q-1.6 0-3.2 0zm79.8 0q-1.3 0-1.8 1q-0.9 1.5-1.7 3l-0.1 0.1v0.1q-0.3 0.6-0.6 1.1q-0.1 0.1-0.1 0.2l-0.1 0.1q-0.2 0.2-0.3 0.5c-4.5 8-9.4 16.6-16.2 28.7q-0.7 1.2-1.3 2.3l-0.1 0.2c-1.2 2-2.6 4.5-3.9 7c-0.4 0.7-0.5 1.4-0.2 1.9c0.2 0.5 0.8 0.7 1.5 0.7c3 0.1 6.2 0.1 9.8 0.1c3.5 0 7.1 0 10.3 0h0.1q1.6 0 1.8-1.4q0.2-0.3 0.4-0.6l0.1-0.1v-0.1q0.5-0.7 1-1.5c4.4-7.7 8.8-15.5 12.6-22.4l0.1-0.1l1.4-2.4v-0.1c2.4-4.2 5.6-10 8.8-15.6c0.4-0.8 0.5-1.5 0.2-2q-0.4-0.7-1.5-0.7c-3.2 0-6.4 0-8.8 0q-1.8 0-3.6 0h-0.7q-2 0-4.1 0q-1.5 0-3 0zm330.1 70.7h-19.1v-30.4h19.1q2.5 0 4.6 0.8q2 0.8 3.5 2.3q1.5 1.5 2.3 3.6q0.8 2.1 0.8 4.6v7.8q0 2.5-0.8 4.6q-0.8 2.1-2.3 3.6q-1.5 1.4-3.5 2.2q-2.1 0.9-4.6 0.9zm-46.3-11.7h-30.3v-3.5q0-3.6 1-6.2q1-2.5 2.5-4.2q1.6-1.7 3.5-2.7q1.8-0.9 3.5-1.4q1.7-0.5 3-0.6q1.2-0.1 1.6-0.1h15.2z" /></g></svg>