<?xml version="1.0" encoding="utf-8"?>
<!-- Generator: Adobe Illustrator 25.4.1, SVG Export Plug-In . SVG Version: 6.00 Build 0)  -->
<svg version="1.1" id="Layer_1" xmlns="http://www.w3.org/2000/svg" xmlns:xlink="http://www.w3.org/1999/xlink" x="0px" y="0px"
	 viewBox="0 0 1593 325" style="enable-background:new 0 0 1593 325;" xml:space="preserve">
<style type="text/css">
	.st0{opacity:0.35;}
	.st1{fill:none;stroke:#FFFFFF;stroke-width:2;stroke-miterlimit:10;}
</style>
<g id="Rectangle_106" class="st0">
	<path class="st1" d="M37.5,0.5h1518c20.4,0,37,16.5,37,36.9v250.2c0,20.4-16.6,36.9-37,36.9H37.5c-20.4,0-37-16.5-37-36.9V37.4
		C0.5,17,17.1,0.5,37.5,0.5z"/>
	<path class="st1" d="M37.5,1h1518c20.1,0,36.5,16.3,36.5,36.4v250.2c0,20.1-16.3,36.4-36.5,36.4H37.5C17.3,324,1,307.7,1,287.6
		V37.4C1,17.3,17.3,1,37.5,1z"/>
</g>
</svg>
