<?xml version="1.0" encoding="utf-8"?>
<!-- Generator: Adobe Illustrator 25.4.1, SVG Export Plug-In . SVG Version: 6.00 Build 0)  -->
<svg version="1.1" id="Layer_1" xmlns="http://www.w3.org/2000/svg" xmlns:xlink="http://www.w3.org/1999/xlink" x="0px" y="0px"
	 viewBox="0 0 698 307.1" style="enable-background:new 0 0 698 307.1;" xml:space="preserve">
<style type="text/css">
	.st0{opacity:0.42;}
	.st1{fill:#FFFFFF;}
	.st2{fill:none;stroke:#FFFFFF;stroke-miterlimit:10;}
	.st3{fill:none;stroke:#FFFFFF;}
</style>
<g id="Rectangle_75-2" transform="translate(4 4)" class="st0">
	<path class="st1" d="M32.4-2.7h628.1c18.2,0,32.9,14.8,32.9,32.9v239.9c0,18.2-14.8,32.9-32.9,32.9H32.4
		c-18.2,0-32.9-14.8-32.9-32.9V30.3C-0.6,12.1,14.2-2.7,32.4-2.7z"/>
	<path class="st1" d="M32.4-2.2h628.1c17.9,0,32.4,14.5,32.4,32.4v239.9c0,17.9-14.5,32.4-32.4,32.4H32.4
		C14.5,302.6,0,288.1,0,270.2V30.3C0,12.4,14.5-2.2,32.4-2.2z"/>
</g>
<g id="Rectangle_75-2_00000015314211316003922550000018083951813703902103_" transform="translate(4 4)">
	<path class="st2" d="M32.4-2.7h628.1c18.2,0,32.9,14.8,32.9,32.9v239.9c0,18.2-14.8,32.9-32.9,32.9H32.4
		c-18.2,0-32.9-14.8-32.9-32.9V30.3C-0.6,12.1,14.2-2.7,32.4-2.7z"/>
	<path class="st3" d="M32.4-2.2h628.1c17.9,0,32.4,14.5,32.4,32.4v239.9c0,17.9-14.5,32.4-32.4,32.4H32.4
		C14.5,302.6,0,288.1,0,270.2V30.3C0,12.4,14.5-2.2,32.4-2.2z"/>
</g>
</svg>
